<?xml version="1.0" standalone="no"?>
<!DOCTYPE svg PUBLIC "-//W3C//DTD SVG 1.1//EN" "http://www.w3.org/Graphics/SVG/1.1/DTD/svg11.dtd" >
<svg>
<metadata>
Created by FontForge 20090914 at Thu Nov  3 19:30:27 2016
 By www-data
Copyright (c) BPG InfoTech, 2008. All rights reserved.
</metadata>
<defs>
<font id="BPGNinoMtavruli-Bold" horiz-adv-x="1023" >
  <font-face 
    font-family="BPG Nino Mtavruli"
    font-weight="700"
    font-style="italic"
    font-stretch="normal"
    units-per-em="2048"
    panose-1="2 0 8 6 0 0 0 2 0 4"
    ascent="1638"
    descent="-410"
    x-height="1060"
    cap-height="1542"
    bbox="-42.001 -446 2279 1691"
    underline-thickness="49"
    underline-position="-52"
    slope="-25"
    unicode-range="U+0020-U+2122"
  />
<missing-glyph horiz-adv-x="1735" 
d="M430 229h961v1078h-961v-1078zM301 91v1354h1216v-1354h-1216z" />
    <glyph glyph-name=".notdef" horiz-adv-x="1735" 
d="M430 229h961v1078h-961v-1078zM301 91v1354h1216v-1354h-1216z" />
    <glyph glyph-name="space" unicode=" " horiz-adv-x="400" 
 />
    <glyph glyph-name="space" unicode="&#xa0;" horiz-adv-x="400" 
 />
    <glyph glyph-name="exclam" unicode="!" horiz-adv-x="597" 
d="M199 114v225h232v-225h-232zM250 470l-57 765v411h246v-411l-55 -765h-134z" />
    <glyph glyph-name="quotedbl" unicode="&#x22;" horiz-adv-x="734" 
d="M503 1201l-49 249v220h207v-222l-49 -247h-109zM133 1201l-47 247v222h207v-218l-42 -251h-118z" />
    <glyph glyph-name="numbersign" unicode="#" horiz-adv-x="1948" 
d="M1626 931c-14.667 0 -27.999 -2.99805 -39.999 -8.99805s-22.333 -13.833 -31 -23.5s-15.5 -20.834 -20.5 -33.501s-7.5 -25.334 -7.5 -38.001c0 -31.333 9.16699 -57.333 27.5 -78s42.166 -31 71.499 -31c36 0 62.833 10 80.5 30s26.5 45.667 26.5 77
c0 14 -2.5 27.333 -7.5 40s-12.167 24 -21.5 34s-20.5 17.833 -33.5 23.5s-27.833 8.5 -44.5 8.5zM1887 359.002v-178h-514v178h514zM1626 1111c44.667 0 84.5 -8.16699 119.5 -24.5s64.333 -38 88 -65s41.667 -57.833 54 -92.5s18.5 -70 18.5 -106
c0 -40 -6.16699 -77.667 -18.5 -113s-30.333 -66.166 -54 -92.499s-53 -47 -88 -62s-74.833 -22.5 -119.5 -22.5c-42 0 -79.5 7.83301 -112.5 23.5s-61.167 36.667 -84.5 63s-41.166 57.166 -53.499 92.499s-18.5 73 -18.5 113c0 36 5.83301 71.167 17.5 105.5
s29 64.833 52 91.5s51.167 48.167 84.5 64.5s71.666 24.5 114.999 24.5zM1318 1478c-11.333 0 -21.499 -2.83105 -30.499 -8.49805s-17 -13.167 -24 -22.5s-12.333 -19.833 -16 -31.5s-5.5 -23.5 -5.5 -35.5v-1264h-167l-528 1062v-785
c0 -34.667 -6.16699 -68.667 -18.5 -102s-29.666 -63 -51.999 -89s-48.833 -46.833 -79.5 -62.5s-64.334 -23.5 -101.001 -23.5c-35.333 0 -68 8.5 -98 25.5s-56.5 39.833 -79.5 68.5s-42 61.667 -57 99s-24.5 76 -28.5 116h170c2 -18 6 -34.5 12 -49.5
s13.167 -27.667 21.5 -38s17 -18.5 26 -24.5s17.5 -9 25.5 -9c24 0 43.833 7.33301 59.5 22s23.5 37 23.5 67v1021h-201v180h370l525 -1052v838c0 37.333 7 72.666 21 105.999s32.833 62.666 56.5 87.999s50.667 45.333 81 60s61.833 22 94.5 22
c33.333 0 65.666 -7.66699 96.999 -23s59.666 -36.5 84.999 -63.5s46.333 -59 63 -96s27 -77.167 31 -120.5h-185c-1.33301 14 -4.83301 28.5 -10.5 43.5s-12.667 28.5 -21 40.5s-17.666 21.833 -27.999 29.5s-20.833 11.5 -31.5 11.5z" />
    <glyph glyph-name="dollar" unicode="$" horiz-adv-x="1039" 
d="M698 593c46 21.333 79.501 44.332 100.501 68.999s31.5 47.667 31.5 69c0 12 -5 26.667 -15 44s-21.333 34.333 -34 51c-8 8 -19.5 17.667 -34.5 29s-32.167 23.333 -51.5 36l-62 39l-66 40c-34.667 19.333 -68.334 39.333 -101.001 60s-62 40.334 -88 59.001
c-50 -28.667 -85.167 -54.667 -105.5 -78s-30.5 -47.666 -30.5 -72.999c0 -18.667 3.33301 -35.834 10 -51.501s18.667 -31.667 36 -48s41.5 -34.5 72.5 -54.5s70.833 -43.333 119.5 -70l-1 1l27.5 -15.5c9 -5 17.833 -10.167 26.5 -15.5l30 -17l28 -16l42.5 -23.5
l38.5 -21.5c4 -3.33301 10.333 -7 19 -11zM314.001 338.999c17.333 -73.333 45.8311 -125.832 85.498 -157.499s91.5 -47.5 155.5 -47.5c28.667 0 55.167 3.66699 79.5 11s45.333 17.166 63 29.499s31.5 26.666 41.5 42.999s15 33.833 15 52.5
c0 10.667 -2.83301 22.167 -8.5 34.5s-13.167 23.166 -22.5 32.499c-19.333 19.333 -56.333 47.333 -111 84s-125.667 79 -213 127c-46 25.333 -85.5 48 -118.5 68s-60.167 39.667 -81.5 59c-17.333 16 -34 33.167 -50 51.5s-30.167 37.833 -42.5 58.5
s-22.166 42.5 -29.499 65.5s-11 47.5 -11 73.5c0 24.667 3.33301 48.5 10 71.5s17.834 44.833 33.501 65.5s36.5 40.334 62.5 59.001s58.333 36.334 97 53.001c-40.667 39.333 -68.667 75.5 -84 108.5s-23 65.167 -23 96.5c0 38.667 8.33301 75.667 25 111
s40.5 66.333 71.5 93s68.5 48 112.5 64s93 24 147 24c115.333 0 206.5 -28.667 273.5 -86s113.167 -138.333 138.5 -243l-193 -23c-8.66699 37.333 -19.334 68.166 -32.001 92.499s-27.667 43.833 -45 58.5s-36.666 24.834 -57.999 30.501s-44.666 8.5 -69.999 8.5
s-49.333 -3 -72 -9s-42.667 -14.333 -60 -25s-31.166 -23 -41.499 -37s-15.5 -29.333 -15.5 -46c0 -12.667 2.16699 -25.334 6.5 -38.001s11.833 -24.334 22.5 -35.001c8 -8 21 -18.5 39 -31.5s40 -27.667 66 -44l87.5 -53c32.333 -19 67.166 -38.167 104.499 -57.5
c18.667 -10 37.5 -20.833 56.5 -32.5l55.5 -34c18 -11 34.667 -21.667 50 -32l40 -26.5c44 -30.667 77.833 -67 101.5 -109s35.5 -86.667 35.5 -134c0 -16 -2 -32.333 -6 -49s-9.16699 -33 -15.5 -49s-14 -31 -23 -45s-18.5 -26.333 -28.5 -37
c-11.333 -12 -27.5 -24.667 -48.5 -38s-47.5 -27 -79.5 -41c47.333 -38 81.5 -75.833 102.5 -113.5s31.5 -78.167 31.5 -121.5c0 -38.667 -9 -76.167 -27 -112.5s-43.667 -68.5 -77 -96.5s-73.833 -50.5 -121.5 -67.5s-101.167 -25.5 -160.5 -25.5
c-58 0 -110.833 7.83301 -158.5 23.5s-89.5 38.334 -125.5 68.001s-66.333 65.834 -91 108.501s-43.334 91 -56.001 145z" />
    <glyph glyph-name="percent" unicode="%" horiz-adv-x="1693" 
d="M432 1506c-24.667 0 -47.667 -3.83398 -69 -11.501s-39.833 -21.167 -55.5 -40.5s-28 -46.166 -37 -80.499s-13.5 -77.833 -13.5 -130.5c0 -44 4.33301 -81.667 13 -113s20.834 -56.666 36.501 -75.999s34.167 -33.5 55.5 -42.5s44.666 -13.5 69.999 -13.5
s48.5 4.83301 69.5 14.5s39.167 25 54.5 46s27.333 48.333 36 82s13 74.167 13 121.5c0 45.333 -4.5 83.5 -13.5 114.5s-21.333 56.167 -37 75.5s-34 33.166 -55 41.499s-43.5 12.5 -67.5 12.5zM1286 721.999c-26 0 -50.001 -4.3291 -72.001 -12.9961
s-40.667 -23.334 -56 -44.001s-27.333 -47.667 -36 -81s-13 -75 -13 -125c0 -46 4.83301 -84.833 14.5 -116.5s22.5 -57.334 38.5 -77.001s34.5 -33.834 55.5 -42.501s43.167 -13 66.5 -13c24.667 0 47.834 4.83301 69.501 14.5s40.5 25.167 56.5 46.5
s28.5 48.666 37.5 81.999s13.5 74 13.5 122c0 44.667 -4.66699 82.667 -14 114s-21.833 56.833 -37.5 76.5s-34.167 34 -55.5 43s-44 13.5 -68 13.5zM316.999 60.0029l910 1602h174l-906 -1602h-178zM929.999 477.003c0 54 7.33301 104.998 22 152.998s36.667 90.333 66 127
s65.833 65.667 109.5 87s94.5 32 152.5 32c50.667 0 98 -9.16699 142 -27.5s82.333 -45 115 -80s58.5 -78 77.5 -129s28.5 -109.167 28.5 -174.5c0 -66 -9.66699 -124.167 -29 -174.5s-45.333 -92.666 -78 -126.999s-71 -60.166 -115 -77.499s-90.333 -26 -139 -26
c-52 0 -99.5 8.16699 -142.5 24.5s-80 41.5 -111 75.5s-55.167 77.167 -72.5 129.5s-26 114.833 -26 187.5zM73.999 1264c0 54.667 7.49707 106.164 22.4971 154.497s37.167 90.5 66.5 126.5s65.5 64.5 108.5 85.5s92.833 31.5 149.5 31.5
c52.667 0 101.334 -8.66699 146.001 -26s83.167 -43.333 115.5 -78s57.5 -77.5 75.5 -128.5s27 -109.833 27 -176.5s-9.5 -125.5 -28.5 -176.5s-44.833 -93.667 -77.5 -128s-70.5 -60.166 -113.5 -77.499s-88.833 -26 -137.5 -26c-51.333 0 -98.666 8.33301 -141.999 25
s-80.666 42.334 -111.999 77.001s-55.833 78.334 -73.5 131.001s-26.5 114.667 -26.5 186z" />
    <glyph glyph-name="ampersand" unicode="&#x26;" horiz-adv-x="1451" 
d="M898 1335c0 23.333 -5.33496 45.8311 -16.002 67.498s-25.167 40.667 -43.5 57s-39.666 29.5 -63.999 39.5s-49.833 15 -76.5 15c-24.667 0 -49.334 -4.33301 -74.001 -13s-47 -20.834 -67 -36.501s-36.167 -34.167 -48.5 -55.5s-18.5 -44.666 -18.5 -69.999
c0 -9.33301 2.16699 -20.666 6.5 -33.999s12.833 -30.166 25.5 -50.499s30.334 -45 53.001 -74s52.334 -63.5 89.001 -103.5c46 26.667 84.167 51.667 114.5 75s54.333 45.5 72 66.5s30 41.167 37 60.5s10.5 38 10.5 56zM585.998 867.998
c-0.666992 0 -1.16406 -0.333984 -1.49707 -1.00098s-0.833008 -1 -1.5 -1l-122.5 -72.5c-36.333 -22.333 -67.166 -45.166 -92.499 -68.499s-44.833 -48.333 -58.5 -75s-19.834 -57 -18.501 -91c0.666992 -30 8.66699 -61.833 24 -95.5s37.166 -65 65.499 -94
s62.333 -53 102 -72s84.167 -28.5 133.5 -28.5c27.333 0 56.333 3.5 87 10.5s61.667 17.667 93 32s62.166 32.333 92.499 54s59.166 47.5 86.499 77.5zM1106 291.997l-7.5 7.49805c-2.33301 2.33301 -4.5 4.83301 -6.5 7.5c-74.667 -70.667 -151.167 -123 -229.5 -157
s-160.5 -51 -246.5 -51c-77.333 0 -148.333 12 -213 36s-120.5 56.5 -167.5 97.5s-83.667 89.167 -110 144.5s-39.5 114 -39.5 176c0 86.667 33.667 168.167 101 244.5s162 145.166 284 206.499l-25.5 30.5l-24.5 28.5c-3.33301 3.33301 -6.33301 6.5 -9 9.5
s-5.33398 6.16699 -8.00098 9.5l-45 52c-14 16.667 -26 34.167 -36 52.5s-17.833 38.5 -23.5 60.5s-8.5 47.333 -8.5 76c0 48 10.833 93 32.5 135s51.334 78.833 89.001 110.5s81.5 56.5 131.5 74.5s103.333 27 160 27c58 0 111 -9 159 -27s89.167 -42.167 123.5 -72.5
s60.833 -65.5 79.5 -105.5s28 -82 28 -126c0 -35.333 -7.66699 -69.5 -23 -102.5s-37.333 -65.167 -66 -96.5s-63 -61.833 -103 -91.5s-85 -58.5 -135 -86.5c12 -14 26.667 -30.167 44 -48.5l55.5 -59l61 -65l60.5 -64.5h-1l30 -31l25 -26l17 -18.5
c4 -4.33301 7.33301 -7.66602 10 -9.99902s4.83398 -4.5 6.50098 -6.5s3.5 -4.33301 5.5 -7c17.333 36.667 33.5 75 48.5 115s28.5 78.667 40.5 116l188 -51c-18.667 -65.333 -39.834 -126.666 -63.501 -183.999s-47.167 -105.333 -70.5 -144
c2 -2.66699 4.16699 -5.16699 6.5 -7.5s4.5 -4.83301 6.5 -7.5c3.33301 -4 7 -8 11 -12s7.66699 -8 11 -12c27.333 -31.333 57.333 -63.666 90 -96.999s74 -69 124 -107l-139 -146c-18.667 12 -37.5 25.667 -56.5 41s-37.667 31.333 -56 48l-53 50.5l-48.5 49.5z" />
    <glyph glyph-name="quotesingle" unicode="'" horiz-adv-x="372" 
d="M133 1199l-44 247v224h207v-228l-45 -243h-118z" />
    <glyph glyph-name="parenleft" unicode="(" horiz-adv-x="777" 
d="M569 -415c-26.667 34.667 -53.501 71.502 -80.501 110.502s-53.333 79 -79 120s-50.167 82.833 -73.5 125.5s-44.333 85 -63 127c-18.667 43.333 -35.667 88.333 -51 135s-28.5 93.667 -39.5 141s-19.5 94.666 -25.5 141.999s-9 93.666 -9 138.999
c0 86.667 8.33301 173.334 25 260.001s39 167 67 241c14.667 38.667 34.167 81.167 58.5 127.5s51.333 93.333 81 141s60.834 94.834 93.501 141.501s64.667 90 96 130h166c-60 -88 -105.167 -159.167 -135.5 -213.5s-51.833 -93.833 -64.5 -118.5l-32 -71.5
c-11.333 -26.333 -22.333 -53.5 -33 -81.5s-20.5 -55.333 -29.5 -82s-16.5 -50.334 -22.5 -71.001c-6.66699 -30 -13.167 -62 -19.5 -96s-12 -68.667 -17 -104s-9 -70.333 -12 -105s-4.5 -67.334 -4.5 -98.001c0 -160 31 -326.333 93 -499s154.333 -353 277 -541h-166z" />
    <glyph glyph-name="parenright" unicode=")" horiz-adv-x="777" 
d="M130 -411c126.667 188.667 220.666 369.167 281.999 541.5s92 338.5 92 498.5c0 30.667 -1.16699 63.667 -3.5 99s-5.83301 70.833 -10.5 106.5s-10 70.5 -16 104.5s-13 65 -21 93c-5.33301 19.333 -12.5 42.166 -21.5 68.499s-18.833 53.5 -29.5 81.5l-32 82.5
c-10.667 27 -20.667 50.833 -30 71.5c-11.333 28 -34.333 70.5 -69 127.5s-80 125.833 -136 206.5h165l94 -130.5c32 -46.333 62.833 -93.166 92.5 -140.499s56.834 -94 81.501 -140s45.334 -89 62.001 -129c28.667 -76 50.667 -156.833 66 -242.5s23 -171.834 23 -258.501
c0 -45.333 -2.33301 -92.166 -7 -140.499s-12 -96.666 -22 -144.999s-22.333 -95.833 -37 -142.5s-32 -91 -52 -133c-40.667 -81.333 -86.334 -163.333 -137.001 -246s-106 -160.334 -166 -233.001h-168z" />
    <glyph glyph-name="asterisk" unicode="*" horiz-adv-x="1158" 
d="M646 1222l44.9941 54.0068l-1 -1l30.5 38l30.5 37c0.666992 0 1 0.333008 1 1s0.333008 1.33398 1 2.00098c8.66699 11.333 17.834 21.666 27.501 30.999s23.167 14 40.5 14h10c8 0 17.5 -1 28.5 -3s22.167 -8.66699 33.5 -20s18 -22.5 20 -33.5s3 -20.5 3 -28.5v-10
c0 -16.667 -5.16699 -30.334 -15.5 -41.001s-21.5 -20.334 -33.5 -29.001h1l-36.5 -29.5l-34.5 -28.5c-8.66699 -7.33301 -14.5 -12.5 -17.5 -15.5s-5.66699 -5.5 -8 -7.5l-9 -7.5l-19.5 -15.5c6 0.666992 12.667 1.33398 20 2.00098s14 1.33398 20 2.00098
c20.667 2 41 4.16699 61 6.5s40.333 4.5 61 6.5h17c20 0 36.333 -2.66699 49 -8s22.834 -12.166 30.501 -20.499s12.834 -17.5 15.501 -27.5s4 -19.667 4 -29c0 -10.667 -1.16699 -21.167 -3.5 -31.5s-7 -19.5 -14 -27.5s-17 -14.5 -30 -19.5s-29.833 -7.5 -50.5 -7.5
c-3.33301 0 -6.66602 -0.166992 -9.99902 -0.5s-6.66602 0.166992 -9.99902 1.5c-26 2.66699 -51.667 5.16699 -77 7.5s-51 5.16602 -77 8.49902c-0.666992 0 -1.83398 0.166992 -3.50098 0.5s-3.16699 0.5 -4.5 0.5l63.5 -51.5l63.5 -51.5h-1
c12.667 -9.33301 24 -19.333 34 -30s15 -24.334 15 -41.001v-10c0 -8 -1.33301 -17.667 -4 -29s-9.66699 -22.666 -21 -33.999c-8.66699 -8 -17.5 -13.667 -26.5 -17s-18.833 -5 -29.5 -5c-16.667 0 -32 4.33301 -46 13s-26.667 20.334 -38 35.001l1 -1
c-13.333 15.333 -23.833 27.833 -31.5 37.5l-21.5 26.5l-21.5 26l-30.5 37c1.33301 -9.33301 2.16602 -18.5 2.49902 -27.5s1.16602 -18.167 2.49902 -27.5l12 -108v-19c0 -20.667 -2.33301 -37.334 -7 -50.001s-11 -22.5 -19 -29.5s-17.167 -11.667 -27.5 -14
s-20.833 -3.5 -31.5 -3.5c-9.33301 0 -19.166 1.16699 -29.499 3.5s-19.666 7 -27.999 14s-15.166 17 -20.499 30s-8 29.833 -8 50.5v6c0 3.33301 -0.166992 5.66602 -0.5 6.99902s0.166992 3.66602 1.5 6.99902c2 22.667 4.33301 45.5 7 68.5l8 68.5
c0.666992 7.33301 1.16699 11.5 1.5 12.5s0.5 1.16699 0.5 0.5s0 -0.5 0 0.5s0.333008 5.16699 1 12.5c-5.33301 -6 -10.666 -12.667 -15.999 -20s-10.666 -14 -15.999 -20l-37 -44.5l-36 -43.5l1 1c-12 -15.333 -25.167 -27.333 -39.5 -36s-29.5 -13 -45.5 -13
c-22 0 -41 8 -57 24s-24 35 -24 57c0 15.333 4.5 30.333 13.5 45s20.5 27.667 34.5 39c6 5.33301 12.5 10.666 19.5 15.999s13.5 10.666 19.5 15.999l27 21.5l16 13.5l16 13.5l27 22.5c-26.667 -3.33301 -53.167 -6.16602 -79.5 -8.49902l-80.5 -7.5
c-2.66699 -0.666992 -5.33398 -1 -8.00098 -1h-7h-6c-20.667 0 -37.167 2.5 -49.5 7.5s-22 11.5 -29 19.5s-11.667 17.167 -14 27.5s-3.5 20.833 -3.5 31.5c0 9.33301 1.16699 19 3.5 29s7 19.167 14 27.5s16.833 15.166 29.5 20.499s29.334 8 50.001 8h18l163 -18
c-4 3.33301 -7.83301 6.33301 -11.5 9s-7.5 5.66699 -11.5 9l-51.5 44l-51.5 43l1 -1c-15.333 11.333 -27.333 24.166 -36 38.499s-13 29.833 -13 46.5c0 20.667 10.667 43 32 67c7.33301 6.66699 15.833 10.667 25.5 12s18.834 2 27.501 2h10
c17.333 0 30.833 -4.66699 40.5 -14s18.834 -19.666 27.501 -30.999c0 -0.666992 0.666992 -1.66699 2 -3l1 -1l20 -25c6.66699 -8.66699 13.334 -16.667 20.001 -24l19.5 -24l11.5 -14l11.5 -14c4.33301 -5.33301 11.166 -13.333 20.499 -24
c-0.666992 3.33301 -1 7.16602 -1 11.499s-0.333008 8.16602 -1 11.499l-8 69c-2.66699 22.667 -5 45.667 -7 69c-0.666992 2.66699 -1 5.16699 -1 7.5v6.5v5c0 20.667 2.66699 37.5 8 50.5s12.166 23 20.499 30s17.666 11.667 27.999 14s20.166 3.5 29.499 3.5
c10 0 20 -1.16699 30 -3.5s19 -7 27 -14s14.667 -16.833 20 -29.5s8 -29.334 8 -50.001v-18z" />
    <glyph glyph-name="plus" unicode="+" horiz-adv-x="1054" 
d="M465 224v336h-368v176h368v336h177v-336h368v-176h-368v-336h-177z" />
    <glyph glyph-name="comma" unicode="," horiz-adv-x="542" 
d="M109 -164c26.667 30.667 49.501 58.832 68.501 84.499s34.167 49.167 45.5 70.5s19.666 41 24.999 59s8 35 8 51v6c-32.667 2 -60.5 13.167 -83.5 33.5s-34.5 48.5 -34.5 84.5c0 24 4 44.5 12 61.5s18.5 31 31.5 42s27.5 19.167 43.5 24.5s31.667 8 47 8
c44 0 79.333 -14.167 106 -42.5s40 -75.166 40 -140.499c0 -35.333 -5.16699 -71.333 -15.5 -108s-25 -73.5 -44 -110.5s-42.333 -73.333 -70 -109s-58.5 -69.5 -92.5 -101.5z" />
    <glyph glyph-name="hyphen" unicode="-" horiz-adv-x="777" 
d="M25 486v216h764v-216h-764z" />
    <glyph glyph-name="period" unicode="." horiz-adv-x="570" 
d="M152 246c0 18 3.49902 35.0029 10.499 51.0029s16.5 30 28.5 42s26.167 21.5 42.5 28.5s33.833 10.5 52.5 10.5s36 -3.33301 52 -10s30 -16 42 -28s21.333 -26 28 -42s10 -33.333 10 -52c0 -20 -3.5 -38.333 -10.5 -55s-16.5 -30.834 -28.5 -42.501
s-26 -20.834 -42 -27.501s-33 -10 -51 -10s-35.167 3.5 -51.5 10.5s-30.666 16.667 -42.999 29s-22 26.666 -29 42.999s-10.5 33.833 -10.5 52.5z" />
    <glyph glyph-name="slash" unicode="/" horiz-adv-x="626" 
d="M-5 99l493 1571h168l-487 -1571h-174z" />
    <glyph glyph-name="zero" unicode="0" 
d="M512 304c44.667 0 84.833 12.666 120.5 37.999s67.167 62.333 94.5 111v-1c28 52 48.333 111.833 61 179.5s19 145.167 19 232.5c0 85.333 -5.5 163.5 -16.5 234.5s-27.833 131.5 -50.5 181.5c-22 44.667 -52.5 79.834 -91.5 105.501s-84.5 38.5 -136.5 38.5
c-50 0 -93.667 -12.667 -131 -38s-68.666 -61 -93.999 -107v1c-24.667 -49.333 -42.667 -108.5 -54 -177.5s-17 -148.5 -17 -238.5c0 -86.667 6.16699 -164 18.5 -232s32.166 -127 59.499 -177v1c26.667 -48 58.5 -85 95.5 -111s77.833 -39.667 122.5 -41zM511.999 113.999
c-80 0 -150.17 15.001 -210.503 45.001s-110.666 75.833 -150.999 137.5s-70.666 139.667 -90.999 234s-30.5 205.5 -30.5 333.5c0 256 40.333 444.833 121 566.5s201.334 182.5 362.001 182.5c86 0 159.833 -15 221.5 -45s111.5 -77.333 149.5 -142v1
c38 -60.667 66 -137.334 84 -230.001s27 -203.667 27 -333c0 -125.333 -9.5 -235.333 -28.5 -330s-46.5 -173 -82.5 -235c-36.667 -60.667 -86 -106.667 -148 -138s-136.333 -47 -223 -47z" />
    <glyph glyph-name="one" unicode="1" horiz-adv-x="695" 
d="M347 114v1116h-224v190c54 1.33301 96.667 4.83301 128 10.5s52.333 13.167 63 22.5c9.33301 12 17 30.167 23 54.5s9.66699 59.5 11 105.5h183v-1499h-184z" />
    <glyph glyph-name="two" unicode="2" 
d="M29 114l-0.00390625 178.004l682 715c25.333 25.333 44.333 52.666 57 81.999s19 59.666 19 90.999c0 30 -4.16699 58 -12.5 84s-21.5 49.333 -39.5 70c-28 32 -61 55 -99 69s-79.333 21 -124 21c-46.667 0 -88.5 -7.66699 -125.5 -23s-69.5 -37.666 -97.5 -66.999l1 1
c-19.333 -22.667 -35.833 -52.334 -49.5 -89.001s-23.167 -73.334 -28.5 -110.001h-181c1.33301 56 11 109.167 29 159.5s45 100.5 81 150.5l-1 -1c74.667 112 198.667 168 372 168c30.667 0 62.834 -2.83301 96.501 -8.5s66.834 -13.834 99.501 -24.501
s63.334 -23.834 92.001 -39.501s53.334 -33.5 74.001 -53.5v1c20 -18.667 37.5 -40.5 52.5 -65.5s27.5 -51.833 37.5 -80.5s17.5 -58.5 22.5 -89.5s7.5 -62.167 7.5 -93.5c0 -58.667 -11.333 -111.667 -34 -159s-55 -91.666 -97 -132.999l-563 -563h694v-190h-965z" />
    <glyph glyph-name="three" unicode="3" horiz-adv-x="1041" 
d="M515 956c52 3.33301 97.1689 9.49609 135.502 18.4961s70.166 22.5 95.499 40.5c26.667 19.333 46.667 43.833 60 73.5s20 64.167 20 103.5c0 32 -6.33301 62.5 -19 91.5s-31.667 54.167 -57 75.5l1 -1c-26.667 21.333 -59.167 37.666 -97.5 48.999s-79.5 17 -123.5 17
c-96.667 0 -171.334 -30 -224.001 -90c-21.333 -23.333 -38.333 -52.666 -51 -87.999s-21.667 -72 -27 -110h-182c8 108.667 45 211.667 111 309c38 54 87.833 95.5 149.5 124.5s136.167 43.5 223.5 43.5c140.667 0 255.667 -36.667 345 -110c90 -74 135 -177.667 135 -311
c0 -34 -5 -67 -15 -99s-23.5 -62 -40.5 -90s-36.667 -53.833 -59 -77.5s-45.833 -44.167 -70.5 -61.5c25.333 -15.333 49.333 -34.166 72 -56.499s42.334 -47.5 59.001 -75.5s29.834 -58.5 39.501 -91.5s14.5 -67.5 14.5 -103.5c0 -74.667 -11.333 -139 -34 -193
s-55.334 -97.333 -98.001 -130c-44 -32 -95.5 -56.667 -154.5 -74s-123.5 -26 -193.5 -26c-64.667 0 -126.5 11.333 -185.5 34s-111.5 53.334 -157.5 92.001c-44 40 -77.833 90 -101.5 150s-36.167 133.667 -37.5 221h180c4 -48 13.5 -92.5 28.5 -133.5
s34.167 -73.5 57.5 -97.5v1c27.333 -26 59.166 -45.333 95.499 -58s76.5 -19 120.5 -19c39.333 0 76.5 3.83301 111.5 11.5s67.5 19.834 97.5 36.501c28 15.333 49.5 38.833 64.5 70.5s22.5 69.834 22.5 114.501c0 34.667 -6.5 66.5 -19.5 95.5s-31.833 53.167 -56.5 72.5
c-25.333 18.667 -57 33.5 -95 44.5s-84.667 18.167 -140 21.5v185z" />
    <glyph glyph-name="four" unicode="4" 
d="M259 796h303v483zM562 114v489h-533v183l538 827h177v-817h250v-193h-250v-489h-182z" />
    <glyph glyph-name="five" unicode="5" 
d="M29 1592l917.998 0.000976562v-188h-731v-377c84.667 64 183.334 96 296.001 96c68.667 0 131.167 -12.167 187.5 -36.5s108.166 -60.5 155.499 -108.5c92.667 -92.667 139 -213.334 139 -362.001c0 -74.667 -11.333 -141.334 -34 -200.001s-55 -111.667 -97 -159
c-85.333 -95.333 -202.333 -143 -351 -143c-64.667 0 -124.667 7.33301 -180 22s-101.666 35.667 -138.999 63c-32 23.333 -63.167 54 -93.5 92s-55.166 82 -74.499 132l170 73c33.333 -64 75.333 -112 126 -144s114.334 -48 191.001 -48c46 0 87.667 7.16699 125 21.5
s68.666 34.166 93.999 59.499c26 30 45.167 64 57.5 102s18.5 81 18.5 129c0 44.667 -6.33301 85.834 -19 123.501s-33 71.167 -61 100.5c-28 31.333 -60 54.333 -96 69s-75.667 22 -119 22c-37.333 0 -71.5 -3.5 -102.5 -10.5s-60.5 -17.167 -88.5 -30.5h1
c-24.667 -11.333 -47.667 -27.166 -69 -47.499s-40.333 -46.5 -57 -78.5l-167 78v750z" />
    <glyph glyph-name="six" unicode="6" 
d="M512 304c45.333 0 85.167 5.99902 119.5 17.999s65.5 31.333 93.5 58c29.333 28 50.333 61.333 63 100s19 84 19 136s-6.5 96.833 -19.5 134.5s-33.167 71.167 -60.5 100.5c-26 28 -56.667 48.333 -92 61s-76.333 19 -123 19c-28 0 -56.333 -2.33301 -85 -7
s-54 -10.667 -76 -18c-40.667 -14.667 -84.334 -47 -131.001 -97c1.33301 -79.333 8.83301 -149.666 22.5 -210.999s34.834 -114 63.501 -158c28 -45.333 59.667 -79.333 95 -102s72.333 -34 111 -34zM512.001 113.999c-86.667 0 -160.001 16.833 -220.001 50.5
s-109 85.5 -147 155.5h1c-38 68.667 -67 148 -87 238s-30 192 -30 306c0 122.667 10.5 229.5 31.5 320.5s51.5 168.5 91.5 232.5c42 65.333 92.167 114.333 150.5 147s128.166 49 209.499 49c60.667 0 113.5 -5.33301 158.5 -16s85.5 -25.667 121.5 -45
c32 -17.333 64 -39.833 96 -67.5s65 -62.5 99 -104.5l-129 -101c-45.333 44 -97.333 79.167 -156 105.5s-122 39.5 -190 39.5c-42 0 -80.167 -9 -114.5 -27s-64.166 -44 -89.499 -78v1c-21.333 -30.667 -39 -69 -53 -115s-24.333 -101 -31 -165
c46 28.667 92.833 49.667 140.5 63s96.834 20 147.501 20c68.667 0 131.5 -12.5 188.5 -37.5s109.167 -61.5 156.5 -109.5c45.333 -47.333 79.5 -100.5 102.5 -159.5s34.5 -125.833 34.5 -200.5c0 -142.667 -45.667 -261.667 -137 -357
c-92.667 -96.667 -207.667 -145 -345 -145z" />
    <glyph glyph-name="seven" unicode="7" 
d="M22 114l721 1269h-734v189h964v-177l-732 -1281h-219z" />
    <glyph glyph-name="eight" unicode="8" 
d="M512 958c76 0 135.999 21.001 179.999 63.001c22 21.333 39.167 46.5 51.5 75.5s18.5 60.833 18.5 95.5c0 60.667 -21 114 -63 160c-43.333 48 -105.666 72 -186.999 72c-42.667 0 -79.167 -6 -109.5 -18s-55.5 -28.667 -75.5 -50c-22 -21.333 -38.5 -46 -49.5 -74
s-16.5 -58 -16.5 -90c0 -35.333 5 -66.5 15 -93.5s24.667 -51.167 44 -72.5v1c20.667 -22.667 46.667 -39.834 78 -51.501s69.333 -17.5 114 -17.5zM511.999 304.001c45.333 0 86.166 4.83203 122.499 14.499s67.333 24.334 93 44.001s45.334 44 59.001 73
s20.5 62.833 20.5 101.5c0 39.333 -5.5 73.5 -16.5 102.5s-28.167 52.833 -51.5 71.5c-24.667 19.333 -55.667 33.833 -93 43.5s-82 14.5 -134 14.5s-96.667 -4.16699 -134 -12.5s-68 -21.833 -92 -40.5s-41.667 -42.667 -53 -72s-17 -65 -17 -107
c0 -84 25.333 -143 76 -177c27.333 -18.667 59 -32.667 95 -42s77.667 -14 125 -14zM511.999 114c-72 0 -136.5 10.166 -193.5 30.499s-109.167 51.5 -156.5 93.5c-44 40.667 -77.167 85.334 -99.5 134.001s-33.5 103.667 -33.5 165c0 150 63.667 266 191 348
c-46 45.333 -81.833 93.833 -107.5 145.5s-38.5 105.5 -38.5 161.5c0 70.667 10 131.5 30 182.5s51.667 95.167 95 132.5c42 34.667 88.667 61 140 79s110.333 27 177 27c59.333 0 113.5 -9.33301 162.5 -28s95.5 -46 139.5 -82c46 -38 79.333 -82.167 100 -132.5
s31 -109.833 31 -178.5c0 -62.667 -12 -119.167 -36 -169.5s-60.333 -97.166 -109 -140.499c126.667 -82.667 190 -197.667 190 -345c0 -60.667 -11.333 -115.334 -34 -164.001s-57 -93.667 -103 -135c-44.667 -40 -95.167 -70.667 -151.5 -92s-120.833 -32 -193.5 -32z" />
    <glyph glyph-name="nine" unicode="9" 
d="M512 1424c-44 0 -83.499 -6.49707 -118.499 -19.4971s-66.833 -33.833 -95.5 -62.5c-54.667 -50 -82 -127.333 -82 -232c0 -52 6.16699 -97.333 18.5 -136s32.166 -71.334 59.499 -98.001c28 -29.333 59.333 -50 94 -62s76 -18 124 -18c30 0 60 5.33301 90 16
s59.333 26.334 88 47.001c29.333 21.333 52.833 50.166 70.5 86.499s26.5 80.166 26.5 131.499c0 56 -5.5 105 -16.5 147s-30.167 78.667 -57.5 110c-25.333 29.333 -55 51.666 -89 66.999s-71.333 23 -112 23zM512.001 1613c42 0 80.6641 -4.5 115.997 -13.5
s67.833 -22.333 97.5 -40s57 -39.5 82 -65.5s48.833 -56 71.5 -90c22.667 -34.667 41.334 -71.667 56.001 -111s26.334 -81.5 35.001 -126.5s14.834 -92.667 18.501 -143s5.5 -103.5 5.5 -159.5c0 -122 -10.333 -229.833 -31 -323.5s-51.334 -172 -92.001 -235
s-91 -110.667 -151 -143s-129.333 -48.5 -208 -48.5c-56.667 0 -108.667 4.83301 -156 14.5s-89.666 25.167 -126.999 46.5c-28.667 17.333 -59.667 40.5 -93 69.5s-65 60.167 -95 93.5l126 115c46 -47.333 98.167 -84 156.5 -110s121.166 -39 188.499 -39
c40.667 0 78.334 9 113.001 27s64.667 44 90 78v-1c9.33301 14 18.5 32.333 27.5 55s17.667 48.834 26 78.501s16 62.167 23 97.5s13.5 72.666 19.5 111.999c-52 -50 -102.667 -87.167 -152 -111.5s-98.333 -36.5 -147 -36.5c-71.333 0 -135.333 12.667 -192 38
s-108 61 -154 107c-47.333 48 -82 102.167 -104 162.5s-33 126.833 -33 199.5c0 70.667 11.5 136.5 34.5 197.5s56.833 115.167 101.5 162.5c45.333 46 97 81.333 155 106s122 37 192 37z" />
    <glyph glyph-name="colon" unicode=":" horiz-adv-x="570" 
d="M152 834c0 18 3.49902 35.001 10.499 51.001s16.5 30 28.5 42s26.167 21.5 42.5 28.5s33.833 10.5 52.5 10.5s36 -3.33301 52 -10s30 -16 42 -28s21.333 -26 28 -42s10 -33.333 10 -52s-3.5 -36.167 -10.5 -52.5s-16.5 -30.5 -28.5 -42.5s-26 -21.5 -42 -28.5
s-33 -10.5 -51 -10.5s-35.167 3.5 -51.5 10.5s-30.666 16.667 -42.999 29s-22 26.666 -29 42.999s-10.5 33.5 -10.5 51.5zM151.999 247.001c0 18 3.49902 35.0029 10.499 51.0029s16.5 30 28.5 42s26.167 21.5 42.5 28.5s33.833 10.5 52.5 10.5s36 -3.33301 52 -10
s30 -16 42 -28s21.333 -26 28 -42s10 -33.333 10 -52c0 -20 -3.5 -38.333 -10.5 -55s-16.5 -30.834 -28.5 -42.501s-26 -20.834 -42 -27.501s-33 -10 -51 -10s-35.167 3.5 -51.5 10.5s-30.666 16.667 -42.999 29s-22 26.666 -29 42.999s-10.5 33.833 -10.5 52.5z" />
    <glyph glyph-name="semicolon" unicode=";" horiz-adv-x="542" 
d="M138 830c0 18 3.49902 35.001 10.499 51.001s16.5 30 28.5 42s26.167 21.5 42.5 28.5s33.833 10.5 52.5 10.5s36 -3.33301 52 -10s30 -16 42 -28s21.333 -26 28 -42s10 -33.333 10 -52s-3.5 -36.167 -10.5 -52.5s-16.5 -30.5 -28.5 -42.5s-26 -21.5 -42 -28.5
s-33 -10.5 -51 -10.5s-35.167 3.5 -51.5 10.5s-30.666 16.667 -42.999 29s-22 26.666 -29 42.999s-10.5 33.5 -10.5 51.5zM108.999 -164.999c26.667 30.667 49.501 58.832 68.501 84.499s34.167 49.167 45.5 70.5s19.666 41 24.999 59s8 35 8 51v6
c-32.667 2 -60.5 13.167 -83.5 33.5s-34.5 48.5 -34.5 84.5c0 24 4 44.5 12 61.5s18.5 31 31.5 42s27.5 19.167 43.5 24.5s31.667 8 47 8c44 0 79.333 -14.167 106 -42.5s40 -75.166 40 -140.499c0 -35.333 -5.16699 -71.333 -15.5 -108s-25 -73.5 -44 -110.5
s-42.333 -73.333 -70 -109s-58.5 -69.5 -92.5 -101.5z" />
    <glyph glyph-name="less" unicode="&#x3c;" horiz-adv-x="1054" 
d="M93 541v169l917 352v-183l-671 -252l125 -47.5l127 -48.5l211 -80l208 -79v-184z" />
    <glyph glyph-name="equal" unicode="=" horiz-adv-x="1054" 
d="M1010 310h-913v174h913v-174zM1010 685h-913v176h913v-176z" />
    <glyph glyph-name="greater" unicode="&#x3e;" horiz-adv-x="1054" 
d="M1010 541l-917 -359v190l670 255l-170 64l-172 64l-165 61.5l-163 60.5v185l917 -348v-173z" />
    <glyph glyph-name="question" unicode="?" horiz-adv-x="867" 
d="M446 394c21.333 0 40.166 -3.83203 56.499 -11.499s30.166 -18 41.499 -31s19.833 -28.167 25.5 -45.5s8.5 -36 8.5 -56c0 -18.667 -2.83301 -36.334 -8.5 -53.001s-14.167 -31.167 -25.5 -43.5s-25.166 -22 -41.499 -29s-35.166 -10.5 -56.499 -10.5
c-22 0 -41.833 3.5 -59.5 10.5s-32.834 16.5 -45.501 28.5s-22.334 26.333 -29.001 43s-10 34.667 -10 54c0 20 3.33301 38.667 10 56s16.334 32.5 29.001 45.5s27.834 23.333 45.501 31s37.5 11.5 59.5 11.5zM529 452.001l-178 -0.00683594v199
c0 26.667 4.16699 52 12.5 76s19.833 47.5 34.5 70.5s32.167 45.667 52.5 68s42.833 45.5 67.5 69.5l68 68c21.333 22 40 43.833 56 65.5s28.667 43.667 38 66s14 45.5 14 69.5c0 29.333 -5.5 61.166 -16.5 95.499s-26.5 66.166 -46.5 95.499s-44.333 53.833 -73 73.5
s-60.667 29.5 -96 29.5c-26 0 -52.667 -6.66699 -80 -20s-52 -30.5 -74 -51.5s-40 -44.333 -54 -70s-21 -51.167 -21 -76.5c0 -15.333 3 -30.666 9 -45.999s14 -29.166 24 -41.499s21.833 -22.5 35.5 -30.5s28.5 -12 44.5 -12c10.667 0 21.667 1.33301 33 4
s21.5 6.66699 30.5 12s16.333 12.333 22 21s8.5 18.667 8.5 30c0 4.66699 0.166992 9.33398 0.5 14.001s0.333008 10.334 0 17.001s-1.33301 15.334 -3 26.001s-4.83398 25 -9.50098 43h99c8 -19.333 14.333 -35.666 19 -48.999s8.16699 -25.166 10.5 -35.499
s3.83301 -19.833 4.5 -28.5s1 -18 1 -28c0 -64 -18.333 -112 -55 -144s-90.334 -48 -161.001 -48c-43.333 0 -82.166 8.16699 -116.499 24.5s-63.333 38.333 -87 66s-41.667 59.334 -54 95.001s-18.5 72.5 -18.5 110.5c0 50 10.667 97 32 141s50 82.5 86 115.5
s77.667 59.167 125 78.5s97 29 149 29c60 0 114.167 -12.667 162.5 -38s89.5 -58.666 123.5 -99.999s60.333 -88.333 79 -141s28 -106.334 28 -161.001c0 -42 -5.33301 -80.333 -16 -115s-26 -68.167 -46 -100.5s-44.333 -64.666 -73 -96.999l-97 -104.5l-14 -14.5
l-12 -13.5l-32 -34.5c-8.66699 -9.66699 -15.667 -18.5 -21 -26.5s-9.16602 -15.667 -11.499 -23s-3.5 -15.333 -3.5 -24v-199z" />
    <glyph glyph-name="at" unicode="@" horiz-adv-x="1668" 
d="M582 582c0 -45.333 5 -85.498 15 -120.498s23.667 -64.833 41 -89.5c17.333 -22.667 35.333 -40.334 54 -53.001s37.667 -19 57 -19c17.333 0 36 4.66699 56 14s40.333 22.666 61 39.999c24.667 20.667 47.167 46 67.5 76s39.5 65.667 57.5 107l-1 -1
c15.333 42 27 85.333 35 130s12 89 12 133c0 46 -4.66699 86.5 -14 121.5s-22.666 64.167 -39.999 87.5c-34 48 -75 72 -123 72c-37.333 0 -76 -17 -116 -51c-18.667 -15.333 -37.834 -39.833 -57.501 -73.5s-37.5 -70.167 -53.5 -109.5c-14 -42.667 -26 -87.667 -36 -135
s-15 -90.333 -15 -129zM1140 110.002c-54.667 0 -95.8311 11.167 -123.498 33.5s-45.834 58.5 -54.501 108.5c-40 -48 -81 -83.333 -123 -106s-82.333 -34 -121 -34c-43.333 0 -83.666 9.5 -120.999 28.5s-71 49.5 -101 91.5c-34 48 -60.167 102.167 -78.5 162.5
s-27.5 126.833 -27.5 199.5c0 60.667 6 119.5 18 176.5s29.667 114.167 53 171.5c25.333 52 53.833 99.5 85.5 142.5s65.834 79.833 102.501 110.5c35.333 22.667 69.333 41 102 55s65.334 21 98.001 21c38.667 0 79.5 -14.167 122.5 -42.5s83.5 -69.5 121.5 -123.5l10 66
c3.33301 22.667 6 45 8 67h196l-123 -714c-10 -49.333 -17.167 -86.5 -21.5 -111.5s-6.5 -39.5 -6.5 -43.5c0 -15.333 4 -28 12 -38s17.333 -15 28 -15c13.333 0 29.666 6.33301 48.999 19s41.333 30.334 66 53.001c26.667 24 52.167 52.167 76.5 84.5
s43.166 69.166 56.499 110.499c19.333 46 34.166 93.333 44.499 142s15.5 99.334 15.5 152.001c0 58.667 -6.5 115 -19.5 169s-32.167 104.667 -57.5 152l1 -1c-27.333 46.667 -59.166 89 -95.499 127s-76.166 70.667 -119.499 98h1c-42 24.667 -88.833 44.167 -140.5 58.5
s-103.167 21.5 -154.5 21.5c-126 0 -240 -33.833 -342 -101.5s-186.333 -168.834 -253 -303.501v1c-30 -70 -53.5 -143.5 -70.5 -220.5s-25.5 -159.833 -25.5 -248.5c0 -122.667 16.667 -231.5 50 -326.5s81 -175.167 143 -240.5s137.333 -115 226 -149
s188.334 -51 299.001 -51c65.333 0 126.5 6.16699 183.5 18.5s111.5 32.5 163.5 60.5h-1c48 26 92 58.833 132 98.5s74 83.5 102 131.5h195c-28 -59.333 -57.333 -110.833 -88 -154.5s-62.667 -82.5 -96 -116.5c-40 -38.667 -82.167 -72.5 -126.5 -101.5
s-90.166 -53.833 -137.499 -74.5c-48.667 -18 -99.834 -32 -153.501 -42s-111.5 -15 -173.5 -15c-90 0 -173.5 10 -250.5 30s-147.5 48.833 -211.5 86.5s-121.5 83.667 -172.5 138s-95.167 115.833 -132.5 184.5c-34.667 67.333 -62.167 144.666 -82.5 231.999
s-30.5 179.333 -30.5 276c0 107.333 10.167 208.166 30.5 302.499s51.166 184.833 92.499 271.5v-1c37.333 86.667 82.166 161.834 134.499 225.501s109.166 115.5 170.499 155.5s129.166 70.5 203.499 91.5s150.833 31.5 229.5 31.5c140 0 264.667 -33.667 374 -101
s198 -165.333 266 -294c32 -64.667 56.833 -132.167 74.5 -202.5s26.5 -144.166 26.5 -221.499c0 -107.333 -15.333 -207 -46 -299s-76.667 -178.333 -138 -259c-104 -136 -218.667 -204 -344 -204z" />
    <glyph glyph-name="A" unicode="A" horiz-adv-x="1452" 
d="M507 674h445l-52.5 138l-51.5 132l-31 80l-27.5 72l-28.5 75l-34 88zM91 106l544 1436h183l542 -1436h-198l-143 376h-584l-72.5 -189.5l-71.5 -186.5h-200z" />
    <glyph glyph-name="B" unicode="B" 
d="M305 986l200 0.00195312c64.667 0 116.667 17.333 156 52c36 31.333 54 73.666 54 126.999c0 24.667 -4.5 48.167 -13.5 70.5s-23.167 42.5 -42.5 60.5c-18 17.333 -39.667 30.666 -65 39.999s-55 14 -89 14h-200v-364zM305 302.002l210.999 -0.000976562
c28.667 0 55.334 3.33301 80.001 10s45.667 18.667 63 36c18.667 17.333 32.667 42.833 42 76.5s14 73.5 14 119.5c0 44.667 -4.5 82.834 -13.5 114.501s-23.167 56.5 -42.5 74.5c-20 20 -42.833 34.5 -68.5 43.5s-54.167 13.5 -85.5 13.5h-200v-488zM504.999 1542
c72.667 0 134.168 -9 184.501 -27s92.166 -46.667 125.499 -86c32 -38 56.333 -81.167 73 -129.5s25 -102.166 25 -161.499c0 -26.667 -4.16699 -52 -12.5 -76s-19.666 -46.667 -33.999 -68s-31 -41.333 -50 -60s-39.167 -35.334 -60.5 -50.001
c20.667 -16 40.5 -34.667 59.5 -56s35.833 -45 50.5 -71s26.167 -54.333 34.5 -85s12.5 -63 12.5 -97c0 -161.333 -32.833 -279.833 -98.5 -355.5s-168.834 -113.5 -309.501 -113.5h-396v1436h396z" />
    <glyph glyph-name="C" unicode="C" horiz-adv-x="1259" 
d="M671 106c-84.667 0 -162.168 17.8291 -232.501 53.4961s-130.166 85.167 -179.499 148.5c-50 64.667 -87.5 140.5 -112.5 227.5s-37.5 182.833 -37.5 287.5c0 200 50 368.667 150 506c51.333 70.667 109.833 123.834 175.5 159.501s139.5 53.5 221.5 53.5
c66.667 0 126.167 -7.5 178.5 -22.5s98.5 -36.167 138.5 -63.5c38 -26 72.5 -57.167 103.5 -93.5s59.833 -80.833 86.5 -133.5l-168 -85c-40 70 -86.333 121.833 -139 155.5s-114.334 50.5 -185.001 50.5c-54.667 0 -104.167 -13.667 -148.5 -41s-82.5 -66 -114.5 -116
c-35.333 -54 -61.333 -111.667 -78 -173s-25 -127 -25 -197c0 -66 8.66699 -130.167 26 -192.5s43 -120.166 77 -173.499c32 -50.667 70.167 -89.167 114.5 -115.5s93.833 -39.5 148.5 -39.5c41.333 0 77.833 2.33301 109.5 7s60.5 13.334 86.5 26.001
c20.667 9.33301 41.334 26.333 62.001 51s42.667 58.334 66 101.001l168 -67c-26.667 -55.333 -55 -103 -85 -143s-61.333 -72.333 -94 -97c-35.333 -25.333 -78.833 -44 -130.5 -56s-112.5 -18 -182.5 -18z" />
    <glyph glyph-name="D" unicode="D" horiz-adv-x="1206" 
d="M305 302h198c108 0 201.333 38.333 280 115c40 38 69.833 91.333 89.5 160s29.5 150.667 29.5 246c0 178 -34.5 310.333 -103.5 397s-167.5 130 -295.5 130h-198v-1048zM109 106v1436h394c82 0 158.167 -13.833 228.5 -41.5s134.833 -69.834 193.5 -126.501v1
c58.667 -56 102.167 -129 130.5 -219s42.5 -201 42.5 -333c0 -122 -15.5 -228.833 -46.5 -320.5s-75.5 -166.834 -133.5 -225.501c-58 -54 -122.167 -96 -192.5 -126s-144.5 -45 -222.5 -45h-394z" />
    <glyph glyph-name="E" unicode="E" horiz-adv-x="1100" 
d="M109 106v1436h882v-192h-686v-429h467v-192h-467v-427h686v-196h-882z" />
    <glyph glyph-name="F" unicode="F" horiz-adv-x="1044" 
d="M109 106v1436h882v-192h-686v-429h467v-192h-467v-623h-196z" />
    <glyph glyph-name="G" unicode="G" horiz-adv-x="1259" 
d="M748 106c-110 0 -206.5 17.998 -289.5 53.998s-149.5 85.333 -199.5 148c-48 64.667 -85 141.334 -111 230.001s-39 183.667 -39 285c0 200 50 368.667 150 506c51.333 70.667 109.833 123.834 175.5 159.501s139.5 53.5 221.5 53.5c66.667 0 126.167 -7.5 178.5 -22.5
s98.5 -36.167 138.5 -63.5c38 -26 72.5 -57.167 103.5 -93.5s59.833 -80.833 86.5 -133.5l-168 -85c-40 70 -86.333 121.833 -139 155.5s-114.334 50.5 -185.001 50.5c-54.667 0 -104.167 -13.667 -148.5 -41s-82.5 -66 -114.5 -116c-35.333 -54 -61.333 -111.667 -78 -173
s-25 -127 -25 -197c0 -66.667 9 -131.167 27 -193.5s43.333 -119.833 76 -172.5c32 -52 76.833 -90.833 134.5 -116.5s126.834 -38.5 207.501 -38.5c38 0 74.667 6.33301 110 19s69 31.667 101 57v249h-301v192h489v-527c-27.333 -28.667 -57.333 -54.5 -90 -77.5
s-66.5 -42.5 -101.5 -58.5s-70.5 -28.333 -106.5 -37s-70.333 -13 -103 -13z" />
    <glyph glyph-name="H" unicode="H" horiz-adv-x="1157" 
d="M109 106v1436h194v-621h549v621h196v-1436h-196v623h-549v-623h-194z" />
    <glyph glyph-name="I" unicode="I" horiz-adv-x="413" 
d="M109 106v1436h194v-1436h-194z" />
    <glyph glyph-name="J" unicode="J" horiz-adv-x="1037" 
d="M521 106c-56.667 0 -111 9.66699 -163 29s-97 45.333 -135 78c-30.667 26.667 -56.667 67.834 -78 123.501s-34 120.167 -38 193.5h196c3.33301 -78.667 22.5 -136.334 57.5 -173.001s88.5 -55 160.5 -55c38.667 0 71.667 4.83301 99 14.5s49.666 23.5 66.999 41.5
s29.833 40 37.5 66s11.5 55.333 11.5 88v1030h192v-1030c0 -66 -10.167 -125.167 -30.5 -177.5s-47.5 -94.5 -81.5 -126.5c-77.333 -68 -175.666 -102 -294.999 -102z" />
    <glyph glyph-name="K" unicode="K" horiz-adv-x="1174" 
d="M109 106l-0.000976562 1436h196v-631l42.5 54l43.5 54l208 263l205 260h238l-502 -645l154.5 -216.5l157.5 -222.5l61 -87l66 -92.5l64.5 -91l58.5 -81.5h-237l-452 630c-8 -10.667 -16.167 -21 -24.5 -31s-16.166 -20.333 -23.499 -31
c-11.333 -14 -21.5 -27.167 -30.5 -39.5l-29.5 -39.5v-489h-196z" />
    <glyph glyph-name="L" unicode="L" horiz-adv-x="1100" 
d="M109 106v1436h196v-1240h686v-196h-882z" />
    <glyph glyph-name="M" unicode="M" horiz-adv-x="1502" 
d="M109 106v1436h188l455 -744l140 228l141 230l87.5 143.5l86.5 142.5h186v-1436h-193v1057l-126 -203.5l-127 -205.5l-48.5 -78.5l-51 -83l-50.5 -82l-47 -76.5l-445 729v-1057h-196z" />
    <glyph glyph-name="N" unicode="N" horiz-adv-x="1253" 
d="M958 106l-653 1055v-1055h-196v1436h188l654 -1050v1050h193v-1436h-186z" />
    <glyph glyph-name="O" unicode="O" horiz-adv-x="1349" 
d="M672 302c56.667 0 107.999 10.668 153.999 32.001s85 54 117 98s56.833 99.667 74.5 167s26.5 142 26.5 224c0 75.333 -9 145.666 -27 210.999s-43 122 -75 170h1c-32 46.667 -71 82.667 -117 108s-97.333 38 -154 38c-49.333 0 -96.166 -12 -140.499 -36
s-83.833 -58 -118.5 -102c-36.667 -46 -63.5 -101.167 -80.5 -165.5s-25.5 -138.833 -25.5 -223.5c0 -82.667 10.167 -157 30.5 -223s49.166 -121.333 86.499 -166v1c36.667 -40 76.834 -72.167 120.501 -96.5s86.167 -36.5 127.5 -36.5zM671.999 106.001
c-76 0 -147.001 17.6689 -213.001 53.002s-126 84.333 -180 147c-52 66.667 -93.333 143.834 -124 231.501s-46 182.834 -46 285.501c0 47.333 3.5 94.666 10.5 141.999s17 93.166 30 137.499s28.667 86.166 47 125.499s39.166 74.666 62.499 105.999
c22.667 31.333 49.667 59.833 81 85.5s65 47.5 101 65.5s73.667 32 113 42s78.666 15 117.999 15c80.667 0 154.834 -16.5 222.501 -49.5s127.834 -79.833 180.501 -140.5c52.667 -64.667 93.334 -141 122.001 -229s43 -188 43 -300c0 -106.667 -14 -202.5 -42 -287.5
s-69 -161.5 -123 -229.5c-54 -66.667 -114 -116.667 -180 -150s-140.333 -50 -223 -50z" />
    <glyph glyph-name="P" unicode="P" 
d="M305 921l211 0.00292969c29.333 0 56 4.16699 80 12.5s45 21.166 63 38.499c37.333 35.333 56 90.666 56 165.999c0 34 -4.5 64.333 -13.5 91s-23.167 49 -42.5 67c-18 17.333 -39.667 30.666 -65 39.999s-55 14 -89 14h-200v-429zM505 1542
c72.667 0 134.169 -9.00098 184.502 -27.001s92.166 -46.667 125.499 -86c32 -38 56.333 -81.167 73 -129.5s25 -102.166 25 -161.499c0 -136 -33.333 -238.167 -100 -306.5s-169.334 -102.5 -308.001 -102.5h-200v-623h-196v1436h396z" />
    <glyph glyph-name="Q" unicode="Q" horiz-adv-x="1361" 
d="M722 496l149.002 153l117 -117c18.667 36 32.667 77.5 42 124.5s14 102.5 14 166.5c0 74.667 -9.16699 145 -27.5 211s-43.5 122.667 -75.5 170c-31.333 46 -69.833 81.833 -115.5 107.5s-96.834 38.5 -153.501 38.5c-49.333 0 -96.5 -11.667 -141.5 -35
s-84.167 -57 -117.5 -101c-36.667 -46 -63.834 -101.833 -81.501 -167.5s-26.5 -140.167 -26.5 -223.5c0 -86 9.66699 -161.333 29 -226s49.333 -119 90 -163c40 -44 80.167 -77 120.5 -99s82.833 -33 127.5 -33c33.333 0 65.833 4.66699 97.5 14s60.5 26 86.5 50z
M672.002 106c-76 0 -146.997 17.6699 -212.997 53.0029s-126 84.333 -180 147c-52 66.667 -93.333 143.834 -124 231.501s-46 182.834 -46 285.501c0 47.333 3.5 94.666 10.5 141.999s17 93.166 30 137.499s28.667 86.166 47 125.499s39.166 74.666 62.499 105.999
c22.667 31.333 49.667 59.833 81 85.5s65 47.5 101 65.5s73.667 32 113 42s78.666 15 117.999 15c163.333 0 297.666 -63.667 402.999 -191c52 -64.667 92.5 -140.834 121.5 -228.501s43.5 -187.5 43.5 -299.5c0 -93.333 -8.33301 -177 -25 -251s-41 -139 -73 -195l25 -24.5
l26 -25.5l39 -37.5l37 -35.5l-152 -155l-123 124c-48.667 -42 -99 -72 -151 -90s-109 -27 -171 -27z" />
    <glyph glyph-name="R" unicode="R" horiz-adv-x="1102" 
d="M305 921l211 0.000976562c29.333 0 56 4.16699 80 12.5s45 21.166 63 38.499c18.667 18.667 32.667 41.5 42 68.5s14 59.5 14 97.5c0 34.667 -4.33301 65.5 -13 92.5s-22.334 49.5 -41.001 67.5c-19.333 18 -41.666 31.167 -66.999 39.5s-55 12.5 -89 12.5h-200v-429z
M505 1542c72 0 133.164 -8.99707 183.497 -26.9971s93.166 -46.667 128.499 -86c34 -38 58.5 -81.333 73.5 -130s22.5 -102.334 22.5 -161.001c0 -42 -3.16699 -79 -9.5 -111s-16.666 -61 -30.999 -87s-33.5 -50.167 -57.5 -72.5s-54 -44.833 -90 -67.5
c14.667 -16 28.334 -35.333 41.001 -58s24.334 -47.667 35.001 -75s20.667 -56 30 -86s17.666 -60 24.999 -90c10 -38.667 21.667 -76.167 35 -112.5s27.5 -70.833 42.5 -103.5s30.5 -63.334 46.5 -92.001s31.667 -54.334 47 -77.001h-207
c-12 10.667 -23.667 26.167 -35 46.5s-22.5 44 -33.5 71s-21.667 57 -32 90s-20.5 67.167 -30.5 102.5c-11.333 42 -23.166 82 -35.499 120s-25.166 71.167 -38.499 99.5s-27.5 51 -42.5 68s-30.833 25.5 -47.5 25.5h-220v-623h-196v1436h396z" />
    <glyph glyph-name="S" unicode="S" horiz-adv-x="1035" 
d="M519 106c-54.667 0 -105.333 5.50293 -152 16.5029s-85.667 30.167 -117 57.5c-27.333 23.333 -52.833 50.166 -76.5 80.499s-48.167 65.833 -73.5 106.5l153 129c22 -38 44.5 -71.167 67.5 -99.5s42.833 -48.5 59.5 -60.5h-1c19.333 -13.333 40.333 -22.333 63 -27
s48.334 -7 77.001 -7c32 0 60.833 3.33301 86.5 10s48.5 18 68.5 34c18 14 32.167 34.833 42.5 62.5s15.5 59.167 15.5 94.5c0 31.333 -5.83301 61.5 -17.5 90.5s-26.834 52.167 -45.501 69.5c-11.333 10.667 -25.666 22 -42.999 34s-37 24.333 -59 37
s-45.833 25.667 -71.5 39s-52.5 26.333 -80.5 39c-43.333 19.333 -84.666 40.166 -123.999 62.499s-72.333 46.833 -99 73.5c-25.333 28.667 -45.5 61 -60.5 97s-22.5 74.667 -22.5 116c0 58.667 9.83301 111.834 29.5 159.501s49.5 88.167 89.5 121.5
c40 32.667 84.333 57.5 133 74.5s101.334 25.5 158.001 25.5c73.333 0 141.5 -15.333 204.5 -46s121.167 -80 174.5 -148l-149 -118c-34 38 -70.167 67.5 -108.5 88.5s-78.833 31.5 -121.5 31.5c-28.667 0 -55.334 -4.33301 -80.001 -13s-49 -21.334 -73 -38.001
c-40.667 -26.667 -61 -67 -61 -121c0 -20 5.33301 -40 16 -60s25.167 -39.333 43.5 -58s39.833 -36 64.5 -52s51 -30.333 79 -43c70.667 -32 133.167 -64.333 187.5 -97s97.166 -65.667 128.499 -99c32.667 -35.333 58 -74.333 76 -117s27 -89.334 27 -140.001
c0 -129.333 -34.333 -229.333 -103 -300s-170.334 -106 -305.001 -106z" />
    <glyph glyph-name="T" unicode="T" horiz-adv-x="1350" 
d="M109 1350v192h1133v-192h-468v-1244h-195v1244h-470z" />
    <glyph glyph-name="U" unicode="U" horiz-adv-x="1190" 
d="M109 1542l196.001 -0.00195312v-951c0 -43.333 6.83301 -83.666 20.5 -120.999s33.167 -69 58.5 -95c24 -26 54.5 -44.667 91.5 -56s77.5 -17 121.5 -17c42 0 81 6.33301 117 19s66.667 31 92 55c27.333 26 47.333 57.667 60 95s19 77.333 19 120v951h196v-951
c0 -72.667 -11.833 -137 -35.5 -193s-59.5 -107.667 -107.5 -155c-46.667 -46 -98 -80.333 -154 -103s-118.333 -34 -187 -34c-140.667 0 -257.334 45.667 -350.001 137c-48 46 -83 97.333 -105 154s-33 121.334 -33 194.001v951z" />
    <glyph glyph-name="V" unicode="V" horiz-adv-x="1485" 
d="M653 106l-564 1436h202l450 -1160l136.5 352l137.5 353l89 228.5l88 226.5h204l-565 -1436h-178z" />
    <glyph glyph-name="W" unicode="W" horiz-adv-x="2062" 
d="M617 106l-526 1436h198l417 -1151l63.5 188l64.5 189v-1l54 156.5l53 154.5h182l239 -686l106.5 298l107.5 300l99.5 277.5l98.5 274.5h197l-523 -1436h-180l-236 681l-67 -194.5l-68 -195.5l-51.5 -146.5l-50.5 -144.5h-178z" />
    <glyph glyph-name="X" unicode="X" horiz-adv-x="1164" 
d="M82 106l401 716l-78.5 142.5l-82.5 147.5l-60 106.5l-62.5 111.5l-61.5 110l-57 102h206l296 -533l92.5 165.5l93.5 168.5l56.5 100.5l55.5 98.5h202l-401 -719l69.5 -122.5l71.5 -126.5h-1l65 -116.5l67.5 -121.5l66.5 -119.5l62 -110.5h-202l-299 558l-70.5 -133.5
l-71.5 -134.5l-77.5 -146l-75.5 -144h-205z" />
    <glyph glyph-name="Y" unicode="Y" horiz-adv-x="1162" 
d="M485 106v713l-124 222l-128 229l-37 66.5l-40.5 71.5l-40 70.5l-35.5 63.5h203l297 -532l61 107.5l62 109.5l87.5 158.5l86.5 156.5h205l-405 -723v-713h-192z" />
    <glyph glyph-name="Z" unicode="Z" horiz-adv-x="1190" 
d="M109 106v164l733 1098h-733v174h972v-161l-732 -1098h732v-177h-972z" />
    <glyph glyph-name="bracketleft" unicode="[" horiz-adv-x="486" 
d="M111 -306v1970h377v-193h-184v-1585h184v-192h-377z" />
    <glyph glyph-name="backslash" unicode="\" horiz-adv-x="486" 
d="M359 69l-369 1599h160l373 -1599h-164z" />
    <glyph glyph-name="bracketright" unicode="]" horiz-adv-x="486" 
d="M406 -306h-377v192h187v1585h-187v193h377v-1970z" />
    <glyph glyph-name="asciicircum" unicode="^" horiz-adv-x="794" 
d="M220 808h-190l310 860h150l315 -860h-195l-195 573z" />
    <glyph glyph-name="underscore" unicode="_" horiz-adv-x="933" 
d="M-24 -9h1022v-140h-1022v140z" />
    <glyph glyph-name="grave" unicode="`" horiz-adv-x="575" 
d="M436 1344h-166l-213 326h247z" />
    <glyph glyph-name="a" unicode="a" horiz-adv-x="873" 
d="M610 526c-49.333 -20.667 -106 -30.998 -170 -30.998c-66.667 0 -113.334 -8.66699 -140.001 -26v1c-13.333 -9.33301 -23.166 -19.666 -29.499 -30.999s-9.5 -25 -9.5 -41c0 -34.667 14.167 -59.334 42.5 -74.001s72.166 -22 131.499 -22
c22.667 0 45.334 1.66699 68.001 5s42.667 7.66602 60 12.999l-2 -1c15.333 6.66699 27.333 16.667 36 30s13 29.666 13 48.999v128zM48 837.002c28.667 44.667 56.6641 83.1689 83.9971 115.502s53.333 55.166 78 68.499v-1c34.667 19.333 69.834 33.833 105.501 43.5
s75.5 14.5 119.5 14.5c70.667 0 130.667 -9.16699 180 -27.5s86.666 -45.166 111.999 -80.499c22 -32 40.333 -68.833 55 -110.5s22 -83.167 22 -124.5v-629h-194v21c-25.333 -6.66699 -53.166 -11.834 -83.499 -15.501s-60.833 -5.5 -91.5 -5.5
c-52.667 0 -103.167 7.16699 -151.5 21.5s-87.833 34.166 -118.5 59.499c-32 27.333 -56.667 59.5 -74 96.5s-26 75.167 -26 114.5c0 37.333 5.83301 72.833 17.5 106.5s29.167 64.834 52.5 93.501l-1 -1c46 60 146.333 90 301 90c34 0 63 2.66699 87 8s42 12.333 54 21
c9.33301 7.33301 17.333 16.833 24 28.5s10 23.834 10 36.501c0 13.333 -3.66699 25.666 -11 36.999s-16.666 22.666 -27.999 33.999v-1c-11.333 10.667 -28.833 18.5 -52.5 23.5s-51.5 7.5 -83.5 7.5c-16.667 0 -35 -1.33301 -55 -4s-38 -7.66699 -54 -15
c-12 -4.66699 -24.667 -15.167 -38 -31.5s-24.666 -36.833 -33.999 -61.5z" />
    <glyph glyph-name="b" unicode="b" horiz-adv-x="986" 
d="M509 882c-34 0 -64.001 -5.83203 -90.001 -17.499s-47.667 -27.167 -65 -46.5v1c-19.333 -21.333 -33.5 -51.833 -42.5 -91.5s-13.5 -85.167 -13.5 -136.5c0 -52 4.5 -97.333 13.5 -136s23.167 -69.334 42.5 -92.001c18 -21.333 40.333 -36.833 67 -46.5
s56 -14.5 88 -14.5c30.667 0 59.334 5.33301 86.001 16s49 25.667 67 45c18.667 23.333 33.667 54.333 45 93s17 83.667 17 135c0 49.333 -5.16699 94.333 -15.5 135s-25.166 71.667 -44.499 93l1 -2c-18.667 17.333 -41.834 32.5 -69.501 45.5s-56.5 19.5 -86.5 19.5z
M100.999 106.001l0.00195312 1436h197v-531c30.667 21.333 63.667 37.833 99 49.5s72.666 17.5 111.999 17.5c57.333 0 111.166 -11 161.499 -33s94.166 -52 131.499 -90c38 -39.333 66.667 -90 86 -152s29 -132.667 29 -212c0 -83.333 -9.83301 -154.166 -29.5 -212.499
s-47.5 -107.5 -83.5 -147.5c-75.333 -83.333 -173.666 -125 -294.999 -125c-38 0 -75.167 5.5 -111.5 16.5s-69.5 26.5 -99.5 46.5v-63h-197z" />
    <glyph glyph-name="c" unicode="c" horiz-adv-x="900" 
d="M670 789c-25.333 30 -54.334 52.998 -87.001 68.998s-68.667 24 -108 24c-69.333 0 -122 -20.667 -158 -62c-37.333 -41.333 -56 -117.666 -56 -228.999c0 -54 5.33301 -100.333 16 -139s24.334 -68.667 41.001 -90l-1 1c17.333 -21.333 39.333 -36.833 66 -46.5
s57.334 -14.5 92.001 -14.5c40 0 76 9.16699 108 27.5s60.667 45.5 86 81.5l191 -61c-53.333 -79.333 -112.166 -139.833 -176.499 -181.5s-133.833 -62.5 -208.5 -62.5c-114.667 0 -212.334 41.333 -293.001 124c-38.667 40 -67.834 89.667 -87.501 149
s-29.5 130 -29.5 212c0 79.333 9.33301 149.833 28 211.5s47.667 112.5 87 152.5c38 38 81.333 68 130 90s103.667 33 165 33c72.667 0 141.667 -21.167 207 -63.5s125.333 -106.166 180 -191.499z" />
    <glyph glyph-name="d" unicode="d" horiz-adv-x="986" 
d="M477 882c-34 0 -64.668 -5.33203 -92.001 -15.999s-49.333 -26 -66 -46s-30.334 -50.167 -41.001 -90.5s-16 -86.5 -16 -138.5c0 -53.333 5.5 -99.5 16.5 -138.5s25.167 -69.5 42.5 -91.5c16 -21.333 37.333 -36.5 64 -45.5s57.334 -13.5 92.001 -13.5
c32 0 61.167 4.66699 87.5 14s48.5 25 66.5 47c38.667 46 58 122 58 228c0 50.667 -4.66699 96 -14 136s-23.666 70.667 -42.999 92c-18 19.333 -40.333 34.666 -67 45.999s-56 17 -88 17zM688.999 106.001l-0.000976562 64.001c-59.333 -42.667 -130 -64 -212 -64
c-60.667 0 -114.667 10.333 -162 31s-91 51 -131 91c-38.667 38 -68 87.5 -88 148.5s-30 132.5 -30 214.5c0 79.333 9.66699 149.5 29 210.5s49 112.167 89 153.5c39.333 39.333 82.833 69.666 130.5 90.999s101.834 32 162.501 32c42 0 80.333 -5.33301 115 -16
s67 -27 97 -49v529h194v-1436h-194z" />
    <glyph glyph-name="e" unicode="e" horiz-adv-x="953" 
d="M679 733c-4 23.333 -10.1689 42.999 -18.502 58.999s-19.166 29.333 -32.499 40c-18.667 16.667 -40 29.167 -64 37.5s-53 12.5 -87 12.5s-63.667 -3.66699 -89 -11s-46.666 -19.666 -63.999 -36.999c-12 -11.333 -22.5 -25 -31.5 -41s-15.833 -36 -20.5 -60h407z
M853.998 338.999c-106 -155.333 -231.666 -232.997 -376.999 -232.997c-60.667 0 -114.667 10.333 -162 31s-91 51 -131 91c-38.667 38 -68 87.5 -88 148.5s-30 132.5 -30 214.5c0 79.333 9.66699 150 29 212s48.333 112.667 87 152
c39.333 39.333 82.833 69.666 130.5 90.999s102.5 32 164.5 32c57.333 0 110.666 -10.667 159.999 -32s94 -51.666 134 -90.999c36 -36.667 63.667 -89.834 83 -159.501s29 -154.834 29 -255.501h-619c7.33301 -81.333 29.5 -141.333 66.5 -180s85.833 -58 146.5 -58
c40 0 76 9.66699 108 29s60.667 46.666 86 81.999z" />
    <glyph glyph-name="f" unicode="f" horiz-adv-x="720" 
d="M227 106l0.000976562 776.002h-162v196h162v135c0 25.333 1.5 50.166 4.5 74.499s7.5 47.166 13.5 68.499s13.5 41 22.5 59s19.167 33.333 30.5 46c25.333 27.333 56.833 47.666 94.5 60.999s75.834 20 114.501 20c25.333 0 49.666 -3.16699 72.999 -9.5
s47 -16.166 71 -29.499v-184c-26.667 8.66699 -53.167 16 -79.5 22s-47.833 9 -64.5 9c-30.667 0 -53.334 -10.167 -68.001 -30.5s-22 -55.833 -22 -106.5v-135h155v-196h-155v-776h-190z" />
    <glyph glyph-name="g" unicode="g" horiz-adv-x="986" 
d="M477 882c-34 0 -64.668 -5.33203 -92.001 -15.999s-49.333 -26 -66 -46s-30.334 -50.167 -41.001 -90.5s-16 -86.5 -16 -138.5c0 -53.333 5.5 -99.5 16.5 -138.5s25.167 -69.5 42.5 -91.5c16 -21.333 37.333 -36.5 64 -45.5s57.334 -13.5 92.001 -13.5
c32 0 61.167 4.66699 87.5 14s48.5 25 66.5 47c38.667 46 58 122 58 228c0 50.667 -4.66699 96 -14 136s-23.666 70.667 -42.999 92c-18 19.333 -40.333 34.666 -67 45.999s-56 17 -88 17zM274.999 -149.999c57.333 0 111.164 2.33496 161.497 7.00195
s94.166 13.5 131.499 26.5s66.833 31.167 88.5 54.5s32.5 54 32.5 92v140c-59.333 -42.667 -130 -64 -212 -64c-60.667 0 -114.667 10.333 -162 31s-91 51 -131 91c-38.667 38 -68 87.5 -88 148.5s-30 132.5 -30 214.5c0 79.333 9.66699 149.5 29 210.5s49 112.167 89 153.5
c39.333 39.333 82.833 69.666 130.5 90.999s101.834 32 162.501 32c42 0 80.333 -5.33301 115 -16s67 -27 97 -49v65h194v-1043c0 -52 -7 -97.167 -21 -135.5s-33.167 -71.166 -57.5 -98.499s-52.833 -49.833 -85.5 -67.5s-67.667 -31.5 -105 -41.5
s-76.333 -16.833 -117 -20.5s-80.667 -5.5 -120 -5.5c-5.33301 0 -12.666 0.166992 -21.999 0.5s-19.166 0.666016 -29.499 0.999023s-20.166 0.666016 -29.499 0.999023s-16.333 0.5 -21 0.5v181z" />
    <glyph glyph-name="h" unicode="h" horiz-adv-x="986" 
d="M101 106l0.00292969 1436h197v-531c30.667 21.333 63.667 37.833 99 49.5s72.666 17.5 111.999 17.5c57.333 0 111.166 -11 161.499 -33s94.166 -52 131.499 -90c38 -39.333 66.667 -90 86 -152s29 -132.667 29 -212v-485h-193v485c0 49.333 -5.16699 94.333 -15.5 135
s-25.166 71.667 -44.499 93l1 -2c-18.667 17.333 -41.834 32.5 -69.501 45.5s-56.5 19.5 -86.5 19.5c-34 0 -64 -5.83301 -90 -17.5s-47.667 -27.167 -65 -46.5v1c-19.333 -21.333 -33.5 -51.833 -42.5 -91.5s-13.5 -85.167 -13.5 -136.5v-485h-197z" />
    <glyph glyph-name="i" unicode="i" horiz-adv-x="501" 
d="M250 1387c30.667 0 54.167 -9.5 70.5 -28.5s24.5 -41.5 24.5 -67.5c0 -31.333 -8.16699 -55.166 -24.5 -71.499s-39.833 -24.5 -70.5 -24.5c-32 0 -55.833 8.16699 -71.5 24.5s-23.5 40.166 -23.5 71.499c0 26 7.83301 48.5 23.5 67.5s39.5 28.5 71.5 28.5zM155 106v972
h190v-972h-190z" />
    <glyph glyph-name="j" unicode="j" horiz-adv-x="501" 
d="M250 1387c30.667 0 54.167 -9.5 70.5 -28.5s24.5 -41.5 24.5 -67.5c0 -31.333 -8.16699 -55.166 -24.5 -71.499s-39.833 -24.5 -70.5 -24.5c-32 0 -55.833 8.16699 -71.5 24.5s-23.5 40.166 -23.5 71.499c0 26 7.83301 48.5 23.5 67.5s39.5 28.5 71.5 28.5zM155 -360
v1438h190v-1438h-190z" />
    <glyph glyph-name="k" unicode="k" horiz-adv-x="986" 
d="M101 106v1436h197v-783l57 60l57 60l96 100.5l95 98.5h265l-298 -313l52 -90.5l54 -93.5l67 -117.5l70.5 -123.5l69.5 -122l64 -112h-223l-289 533l-22 -20.5l-22 -21.5l-47.5 -43.5l-45.5 -43.5v-404h-197z" />
    <glyph glyph-name="l" unicode="l" horiz-adv-x="501" 
d="M155 106v1436h190v-1436h-190z" />
    <glyph glyph-name="m" unicode="m" horiz-adv-x="1586" 
d="M80 106l-0.0078125 971.999h192v-67c32 21.333 66.333 37.833 103 49.5s74.334 17.5 113.001 17.5c66 0 124.5 -13.5 175.5 -40.5s95.833 -62.833 134.5 -107.5c38.667 44.667 83.167 80.5 133.5 107.5s109.5 40.5 177.5 40.5c60.667 0 115.167 -11 163.5 -33
s91.166 -52 128.499 -90c38 -40 66.667 -90.833 86 -152.5s29 -132.167 29 -211.5v-485h-192v485c0 54 -4.66699 100.667 -14 140s-23 69 -41 89c-20.667 19.333 -44.167 34.5 -70.5 45.5s-56.166 16.5 -89.499 16.5c-31.333 0 -60.166 -6 -86.499 -18
s-49.166 -27 -68.499 -45c-19.333 -21.333 -33.666 -51.5 -42.999 -90.5s-14 -84.833 -14 -137.5v-485h-193v485c0 51.333 -5.16699 96.833 -15.5 136.5s-25.166 70.167 -44.499 91.5c-17.333 20 -39.166 35.5 -65.499 46.5s-56.5 16.5 -90.5 16.5
c-32 0 -61.167 -6 -87.5 -18s-49.166 -27 -68.499 -45c-19.333 -21.333 -34.166 -51.166 -44.499 -89.499s-15.5 -84.5 -15.5 -138.5v-485h-192z" />
    <glyph glyph-name="n" unicode="n" horiz-adv-x="967" 
d="M80 106l-0.000976562 972h194v-67c62.667 44.667 134 67 214 67c58 0 112 -11 162 -33s93.667 -52 131 -90c38 -39.333 67.167 -90 87.5 -152s30.5 -132.667 30.5 -212v-485h-195v485c0 50.667 -5.16699 96.167 -15.5 136.5s-24.833 70.833 -43.5 91.5l1 -1
c-17.333 18.667 -40 34 -68 46s-58 18 -90 18c-34 0 -64.167 -5.16699 -90.5 -15.5s-48.166 -25.833 -65.499 -46.5c-17.333 -20 -31.333 -50.5 -42 -91.5s-16 -86.833 -16 -137.5v-485h-194z" />
    <glyph glyph-name="o" unicode="o" horiz-adv-x="953" 
d="M477 882c-34 0 -64.668 -5.33203 -92.001 -15.999s-49.333 -26 -66 -46s-30.334 -50.167 -41.001 -90.5s-16 -86.5 -16 -138.5c0 -53.333 5.5 -99.5 16.5 -138.5s25.167 -69.5 42.5 -91.5c16 -21.333 37.333 -36.5 64 -45.5s57.334 -13.5 92.001 -13.5
c32 0 61.167 4.66699 87.5 14s48.5 25 66.5 47c38.667 46 58 122 58 228c0 50.667 -4.66699 96 -14 136s-23.666 70.667 -42.999 92c-18 19.333 -40.333 34.666 -67 45.999s-56 17 -88 17zM65.999 591.001c0 79.333 9.66699 149.5 29 210.5s49 112.167 89 153.5
c39.333 39.333 82.833 69.666 130.5 90.999s101.834 32 162.501 32c58 0 111.5 -10.5 160.5 -31.5s93.5 -51.5 133.5 -91.5c38 -38 66.167 -88.333 84.5 -151s27.5 -133.667 27.5 -213c0 -163.333 -36.667 -283.666 -110 -360.999
c-78.667 -82.667 -177.334 -124 -296.001 -124c-60.667 0 -114.667 10.333 -162 31s-91 51 -131 91c-38.667 38 -68 87.5 -88 148.5s-30 132.5 -30 214.5z" />
    <glyph glyph-name="p" unicode="p" horiz-adv-x="986" 
d="M509 882c-34 0 -64.001 -5.83203 -90.001 -17.499s-47.667 -27.167 -65 -46.5v1c-19.333 -21.333 -33.5 -51.833 -42.5 -91.5s-13.5 -85.167 -13.5 -136.5c0 -52 4.5 -97.333 13.5 -136s23.167 -69.334 42.5 -92.001c18 -21.333 40.333 -36.833 67 -46.5
s56 -14.5 88 -14.5c30.667 0 59.334 5.33301 86.001 16s49 25.667 67 45c18.667 23.333 33.667 54.333 45 93s17 83.667 17 135c0 49.333 -5.16699 94.333 -15.5 135s-25.166 71.667 -44.499 93l1 -2c-18.667 17.333 -41.834 32.5 -69.501 45.5s-56.5 19.5 -86.5 19.5z
M100.999 -359.999l0.00195312 1438h197v-67c30.667 21.333 63.667 37.833 99 49.5s72.666 17.5 111.999 17.5c57.333 0 111.166 -11 161.499 -33s94.166 -52 131.499 -90c38 -39.333 66.667 -90 86 -152s29 -132.667 29 -212c0 -83.333 -9.83301 -154.166 -29.5 -212.499
s-47.5 -107.5 -83.5 -147.5c-75.333 -83.333 -173.666 -125 -294.999 -125c-38 0 -75.167 5.5 -111.5 16.5s-69.5 26.5 -99.5 46.5v-529h-197z" />
    <glyph glyph-name="q" unicode="q" horiz-adv-x="986" 
d="M477 882c-34 0 -64.668 -5.33203 -92.001 -15.999s-49.333 -26 -66 -46s-30.334 -50.167 -41.001 -90.5s-16 -86.5 -16 -138.5c0 -53.333 5.5 -99.5 16.5 -138.5s25.167 -69.5 42.5 -91.5c16 -21.333 37.333 -36.5 64 -45.5s57.334 -13.5 92.001 -13.5
c32 0 61.167 4.66699 87.5 14s48.5 25 66.5 47c38.667 46 58 122 58 228c0 50.667 -4.66699 96 -14 136s-23.666 70.667 -42.999 92c-18 19.333 -40.333 34.666 -67 45.999s-56 17 -88 17zM688.999 -359.999l-0.000976562 530.001c-59.333 -42.667 -130 -64 -212 -64
c-60.667 0 -114.667 10.333 -162 31s-91 51 -131 91c-38.667 38 -68 87.5 -88 148.5s-30 132.5 -30 214.5c0 79.333 9.66699 149.5 29 210.5s49 112.167 89 153.5c39.333 39.333 82.833 69.666 130.5 90.999s101.834 32 162.501 32c42 0 80.333 -5.33301 115 -16
s67 -27 97 -49v65h194v-1438h-194z" />
    <glyph glyph-name="r" unicode="r" horiz-adv-x="856" 
d="M80 106v971.998h192v-65c31.333 22.667 64.5 39.167 99.5 49.5s73.167 15.5 114.5 15.5c64.667 0 122.5 -11.667 173.5 -35s98.5 -59.666 142.5 -108.999l-113 -148c-34 32 -67.333 56 -100 72s-67 24 -103 24c-33.333 0 -62.833 -5.5 -88.5 -16.5
s-48.5 -26.5 -68.5 -46.5h1c-20 -21.333 -34.667 -51.166 -44 -89.499s-14 -84.5 -14 -138.5v-485h-192z" />
    <glyph glyph-name="s" unicode="s" horiz-adv-x="794" 
d="M570 801c-41.333 54 -99.3389 80.999 -174.006 80.999c-56.667 0 -93.334 -9 -110.001 -27c-16 -16 -24 -40 -24 -72c0 -10.667 18.667 -26.5 56 -47.5s86 -45.833 146 -74.5h-1c38 -17.333 73 -36.5 105 -57.5s59.667 -43 83 -66s41.5 -46.5 54.5 -70.5
s19.5 -47.667 19.5 -71c0 -39.333 -6.33301 -76.833 -19 -112.5s-31 -67.5 -55 -95.5c-23.333 -25.333 -57.166 -45.333 -101.499 -60s-95.5 -22 -153.5 -22c-75.333 0 -140.666 19 -195.999 57s-101.666 97.333 -138.999 178l182 59c13.333 -33.333 33 -58 59 -74
s57.333 -24 94 -24c46 0 80.333 6.5 103 19.5s34 37.833 34 74.5c0 6.66699 -5.5 14.834 -16.5 24.501s-25.667 20 -44 31s-39.666 22.333 -63.999 34s-49.833 23.167 -76.5 34.5c-40 17.333 -76.333 36.5 -109 57.5s-60.667 43 -84 66s-41.5 46.333 -54.5 70
s-19.5 46.834 -19.5 69.501c0 43.333 6.5 82.5 19.5 117.5s31.167 65.5 54.5 91.5c25.333 28.667 59.833 50.167 103.5 64.5s94.834 21.5 153.501 21.5c72.667 0 137.334 -14.833 194.001 -44.5s105.334 -75.834 146.001 -138.501z" />
    <glyph glyph-name="t" unicode="t" horiz-adv-x="720" 
d="M417 1387l-0.00195312 -309h234v-196h-234v-446c0 -27.333 1.83301 -50.5 5.5 -69.5s9.16699 -32.833 16.5 -41.5c7.33301 -8 16.833 -13.833 28.5 -17.5s24.834 -5.5 39.501 -5.5c17.333 0 37.666 2 60.999 6s51 10.667 83 20v-181
c-23.333 -14 -47.166 -24.333 -71.499 -31s-48.5 -10 -72.5 -10c-40 0 -77.833 5.83301 -113.5 17.5s-67.167 31.167 -94.5 58.5c-27.333 28.667 -46.166 63.667 -56.499 105s-15.5 91 -15.5 149v446h-162v196h162v309h190z" />
    <glyph glyph-name="u" unicode="u" horiz-adv-x="967" 
d="M886 1078l0.00390625 -972h-194v66c-30.667 -21.333 -64.167 -37.666 -100.5 -48.999s-74.5 -17 -114.5 -17c-58 0 -111 10.5 -159 31.5s-92.333 50.5 -133 88.5c-79.333 77.333 -119 199 -119 365v487h196v-487c0 -51.333 5.83301 -97 17.5 -137s26.167 -71 43.5 -93
c17.333 -20 39.166 -34.833 65.499 -44.5s55.833 -14.5 88.5 -14.5c31.333 0 60.166 4.83301 86.499 14.5s49.166 25.167 68.499 46.5c19.333 22 34.166 52.167 44.499 90.5s15.5 84.166 15.5 137.499v487h194z" />
    <glyph glyph-name="v" unicode="v" horiz-adv-x="1079" 
d="M45 1078h207l288 -711c1.33301 2 2.33301 4.66699 3 8s1.66699 6 3 8l140.5 348.5l140.5 346.5h206l-408 -972h-172z" />
    <glyph glyph-name="w" unicode="w" horiz-adv-x="1625" 
d="M50 1078h196l237 -690l60.5 177l61.5 179l58 168l57 166h181l238 -691l59 172l60.5 176l60.5 174.5l58 168.5h194l-341 -972h-184l-235 686l-59 -172l-59 -174l-28.5 -83.5l-29.5 -87.5l-30 -87l-28 -82h-185z" />
    <glyph glyph-name="x" unicode="x" horiz-adv-x="907" 
d="M31 1078h201l223 -330l57.5 87l57.5 88l52 78l51 77h206l-326 -487l72.5 -107.5l75.5 -113.5l44.5 -65.5l47.5 -71l46.5 -69l39.5 -58.5h-204l-219 332l-47.5 -70l-48.5 -71l-65 -96l-63 -95h-204l320 484z" />
    <glyph glyph-name="y" unicode="y" horiz-adv-x="1090" 
d="M55 1078h199.001l299 -717l95.5 229l95.5 230h-1l54 130l54 128h196l-479 -1115c-46 -106.667 -97.833 -187.167 -155.5 -241.5s-114.834 -81.5 -171.501 -81.5h-175v173h175c16.667 0 37.167 14.333 61.5 43s49.5 69 75.5 121l23 48l24 48
c5.33301 11.333 10 20.833 14 28.5l14 27.5z" />
    <glyph glyph-name="z" unicode="z" horiz-adv-x="954" 
d="M66 874v186h820v-177l-560 -590h560v-187h-820v176l560 592h-560z" />
    <glyph glyph-name="braceleft" unicode="{" horiz-adv-x="577" 
d="M41 753c38.667 3.33301 72.3271 16.334 100.994 39.001s47 50.667 55 84c5.33301 23.333 9.83301 57.333 13.5 102s5.5 97 5.5 157s0.833008 111.333 2.5 154s3.5 75 5.5 97c3.33301 32 9.33301 63.667 18 95s19.667 57.666 33 78.999
c22.667 35.333 51.334 60.5 86.001 75.5s80.667 22.5 138 22.5h69v-197h-46c-24.667 0 -45.334 -3.33301 -62.001 -10s-29.667 -15.667 -39 -27h1c-9.33301 -11.333 -16.666 -30 -21.999 -56s-8 -60 -8 -102c0 -93.333 -0.333008 -170.833 -1 -232.5s-3 -104.5 -7 -128.5
c-5.33301 -31.333 -13.5 -61.833 -24.5 -91.5s-22.833 -54.834 -35.5 -75.501c-18.667 -30.667 -49 -61.667 -91 -93c28 -18.667 50.833 -38.5 68.5 -59.5s32.834 -44.833 45.501 -71.5c15.333 -35.333 26.666 -79.666 33.999 -132.999s11 -118.333 11 -195
c0 -74.667 0.833008 -134.5 2.5 -179.5s3.83398 -73.167 6.50098 -84.5c2.66699 -13.333 7.33398 -26 14.001 -38s13.667 -21.667 21 -29c8.66699 -5.33301 20.834 -9.66602 36.501 -12.999s32.167 -5 49.5 -5h46v-201h-69c-30.667 0 -57.834 2.83301 -81.501 8.5
s-43.167 12.5 -58.5 20.5c-15.333 8.66699 -29.666 17.667 -42.999 27s-25.666 22.666 -36.999 39.999h1c-15.333 21.333 -26.666 44.666 -33.999 69.999s-12.666 49.666 -15.999 72.999c-4 26.667 -7.33301 64.834 -10 114.501s-4 107.834 -4 174.501
c0 62.667 -2.16699 115.334 -6.5 158.001s-8.83301 75.667 -13.5 99l1 -1c-10 42.667 -26.667 73.667 -50 93h1c-11.333 9.33301 -25.333 17.166 -42 23.499s-38.334 11.5 -65.001 15.5v201z" />
    <glyph glyph-name="bar" unicode="|" horiz-adv-x="183" 
d="M9 -446v2114h166v-2114h-166z" />
    <glyph glyph-name="braceright" unicode="}" horiz-adv-x="577" 
d="M560 550c-42 -4 -76.3291 -17.6689 -102.996 -41.002s-45.667 -54 -57 -92v1c-5.33301 -21.333 -9.33301 -53.333 -12 -96s-4 -95.334 -4 -158.001c0 -62 -1.33301 -113.833 -4 -155.5s-5 -73.834 -7 -96.501c-3.33301 -30 -9.5 -60.333 -18.5 -91
s-20.167 -58.334 -33.5 -83.001l1 1c-18.667 -34.667 -46 -60.5 -82 -77.5s-83.333 -25.5 -142 -25.5h-69v201h46c26.667 0 48.5 3.33301 65.5 10s30.167 15 39.5 25c8 8.66699 13.833 26.5 17.5 53.5s5.5 62.833 5.5 107.5c0 96.667 1 175.334 3 236.001
s5.33301 103 10 127v-1c9.33301 62 25.666 113.167 48.999 153.5s57 74.5 101 102.5c-28 21.333 -52.333 44.5 -73 69.5s-36.667 48.5 -48 70.5c-12 32 -22 75.5 -30 130.5s-12 118.5 -12 190.5c0 74.667 -0.5 134 -1.5 178s-3.16699 72.667 -6.5 86
c-3.33301 14.667 -7.33301 27.334 -12 38.001s-11 18.667 -19 24c-8.66699 6.66699 -20 12.167 -34 16.5s-32.333 6.5 -55 6.5h-46v197h69c30 0 56.667 -1.16699 80 -3.5s44.666 -9.16602 63.999 -20.499l-1 1c15.333 -8 29.666 -18.167 42.999 -30.5
s24.666 -26.166 33.999 -41.499c12.667 -20 24 -43.167 34 -69.5s16.333 -51.833 19 -76.5c3.33301 -25.333 6.33301 -62.166 9 -110.499s4 -105.5 4 -171.5c0 -62 1.33301 -114.833 4 -158.5s6.66699 -76.5 12 -98.5c6 -21.333 13.5 -40.333 22.5 -57
s19.5 -29.667 31.5 -39c8 -7.33301 21 -13.5 39 -18.5s40.333 -9.16699 67 -12.5v-201z" />
    <glyph glyph-name="asciitilde" unicode="~" horiz-adv-x="978" 
d="M60 925c71.333 91.333 155.671 137 253.004 137c17.333 0 35.833 -1.83301 55.5 -5.5s38.5 -8.5 56.5 -14.5c19.333 -6.66699 44.333 -16.167 75 -28.5s61 -26.166 91 -41.499c59.333 -31.333 105.333 -47 138 -47c14.667 0 29 2.5 43 7.5s27.667 11.5 41 19.5
c8.66699 5.33301 17.834 11.666 27.501 18.999l32.5 25.5l40.5 33.5l51.5 45v-257c-81.333 -84.667 -166.333 -127 -255 -127c-18 0 -34.833 0.666992 -50.5 2s-32.5 4.66602 -50.5 9.99902c-13.333 4 -27 9.5 -41 16.5l-51 26.5l-12.5 6.5l-13.5 7.5l-21 12l1 -1
c-34.667 17.333 -66.834 31.5 -96.501 42.5s-55.834 16.5 -78.501 16.5c-12 0 -25.333 -2.66699 -40 -8s-31.334 -12.666 -50.001 -21.999c-4.66699 -2 -11.834 -7 -21.501 -15s-20.834 -18 -33.501 -30l-42.5 -41l-48.5 -48v259z" />
    <glyph glyph-name="currency" unicode="&#xa4;" horiz-adv-x="969" 
d="M301 739c0 -23.333 5.33301 -45.5 16 -66.5s25.167 -39.333 43.5 -55s39.666 -28 63.999 -37s50.166 -13.5 77.499 -13.5c26.667 0 52.167 4.5 76.5 13.5s45.666 21.333 63.999 37s32.833 34 43.5 55s16 43.167 16 66.5c0 24 -5.33301 46.5 -16 67.5s-25 39.167 -43 54.5
s-39.167 27.5 -63.5 36.5s-50.166 13.5 -77.499 13.5s-53.166 -4.5 -77.499 -13.5s-45.666 -21.167 -63.999 -36.5s-32.833 -33.5 -43.5 -54.5s-16 -43.5 -16 -67.5zM40 1026l137.999 137l122 -117c36.667 18.667 72 32.5 106 41.5s66 13.5 96 13.5
c30.667 0 63.167 -4.5 97.5 -13.5s69.166 -22.833 104.499 -41.5l31.5 30l33 31.5l32 30l26.5 24.5l135 -134l-120 -110c15.333 -28.667 27 -58.167 35 -88.5s12 -60.5 12 -90.5c0 -28 -4.16699 -57.667 -12.5 -89s-20.166 -61.666 -35.499 -90.999l32 -29.5l33.5 -30.5
l31.5 -28.5l26 -23.5l-139 -127l-121 112c-36 -18 -70.5 -31.667 -103.5 -41s-65.833 -14 -98.5 -14c-30 0 -62 4.83301 -96 14.5s-69.333 23.5 -106 41.5c-9.33301 -9.33301 -19.666 -19.166 -30.999 -29.499l-33.5 -30.5l-31.5 -28.5c-10 -9 -18.333 -16.833 -25 -23.5
l-139 126l128 113c-15.333 29.333 -27.5 59.166 -36.5 89.499s-13.5 60.166 -13.5 89.499c0 28.667 4 58.167 12 88.5s20.333 60.5 37 90.5z" />
    <glyph glyph-name="brokenbar" unicode="&#xa6;" horiz-adv-x="451" 
d="M324 523v-884h-171v884h171zM324 1605v-888h-171v888h171z" />
    <glyph glyph-name="section" unicode="&#xa7;" horiz-adv-x="1110" 
d="M739 499c42.667 23.333 75.001 47.0059 97.001 71.0059s33 46.333 33 67c0 11.333 -4.83301 25.166 -14.5 41.499s-22.167 33.166 -37.5 50.499v-1c-14 16.667 -39.833 37.667 -77.5 63s-83.5 53.666 -137.5 84.999l-100 58c-33.333 20 -64 39.667 -92 59
c-24 -14 -44.333 -27.167 -61 -39.5s-30.167 -24.166 -40.5 -35.499s-17.833 -22.5 -22.5 -33.5s-7 -22.5 -7 -34.5c0 -16.667 3.66699 -32.334 11 -47.001s20.166 -30.334 38.499 -47.001s43.333 -35.167 75 -55.5s71.834 -44.833 120.501 -73.5v1l103.5 -62l93.5 -56
c3.33301 -2.66699 5.66602 -4.33398 6.99902 -5.00098s4.33301 -2.33398 9 -5.00098zM348.001 242.006c20.667 -74 50.833 -128.168 90.5 -162.501s91.167 -51.5 154.5 -51.5c28.667 0 55.167 3.33301 79.5 10s45 16 62 28s30.333 26 40 42s14.5 33.333 14.5 52
c0 10.667 -2.66699 21.167 -8 31.5s-12.666 20.833 -21.999 31.5c-19.333 22 -57.333 51.5 -114 88.5s-128.334 79.167 -215.001 126.5l-121.5 69.5c-35 21 -64.833 41.5 -89.5 61.5l1 -1c-18.667 14.667 -36.334 32.334 -53.001 53.001s-31.334 42.5 -44.001 65.5
s-22.834 46.667 -30.501 71s-11.5 48.166 -11.5 71.499c0 27.333 3.16699 53.333 9.5 78s17.333 48 33 70s36.334 42.667 62.001 62s57.834 37.333 96.501 54c-39.333 40 -66.333 77.167 -81 111.5s-22 68.5 -22 102.5c0 40 8.66699 78.5 26 115.5s42.333 69.833 75 98.5
s72.167 51.667 118.5 69s98.5 26 156.5 26c122.667 0 220.167 -31.167 292.5 -93.5s120.5 -150.833 144.5 -265.5l-221 -28c-8.66699 39.333 -19 71.833 -31 97.5s-26.167 46 -42.5 61s-34.833 25.5 -55.5 31.5s-43.667 9 -69 9c-27.333 0 -52.333 -3 -75 -9
s-42.5 -14.333 -59.5 -25s-30.167 -22.834 -39.5 -36.501s-14 -28.167 -14 -43.5c0 -11.333 2.5 -22.5 7.5 -33.5s12.167 -22.5 21.5 -34.5c9.33301 -9.33301 23.333 -21.166 42 -35.499s41 -30 67 -47s55.167 -35 87.5 -54s66.5 -37.833 102.5 -56.5l63 -34l61.5 -35
c19.667 -11.333 37.334 -22.333 53.001 -33s28.5 -20 38.5 -28h-1c43.333 -36 78.166 -74.667 104.499 -116s39.5 -87 39.5 -137c0 -37.333 -7 -72.5 -21 -105.5s-33.667 -62.167 -59 -87.5c-4.66699 -4.66699 -11.5 -10 -20.5 -16l-30 -19.5
c-11 -7 -22.833 -13.833 -35.5 -20.5l-37 -19c46 -40.667 79.833 -80.5 101.5 -119.5s32.5 -78.833 32.5 -119.5c0 -45.333 -9.5 -87.5 -28.5 -126.5s-46.167 -72.667 -81.5 -101s-78.333 -50.666 -129 -66.999s-107.667 -24.5 -171 -24.5c-124 0 -224.167 32.333 -300.5 97
s-129.166 156 -158.499 274z" />
    <glyph glyph-name="copyright" unicode="&#xa9;" horiz-adv-x="1634" 
d="M1285 706c-19.333 -54 -44.167 -101.33 -74.5 -141.997s-64.333 -74.334 -102 -101.001s-77.5 -46.667 -119.5 -60s-84.333 -20 -127 -20c-66.667 0 -127.5 10.333 -182.5 31s-102.333 50.5 -142 89.5s-70.334 86.5 -92.001 142.5s-32.5 119 -32.5 189
c0 72 11.167 136.167 33.5 192.5s53.333 103.666 93 141.999s87 67.5 142 87.5s115.167 30 180.5 30c46 0 89.5 -6.83301 130.5 -20.5s79 -32.834 114 -57.501s67.167 -54.667 96.5 -90s55.666 -74.333 78.999 -117l-173 -23c-27.333 52 -60.333 89.667 -99 113
s-87 35 -145 35c-38 0 -73.667 -6.33301 -107 -19s-62.333 -31.5 -87 -56.5s-44.167 -55.833 -58.5 -92.5s-21.5 -78.667 -21.5 -126s6.66699 -88.833 20 -124.5s31.833 -65.5 55.5 -89.5s51.334 -42 83.001 -54s65.834 -18 102.501 -18c60.667 0 114 17 160 51
s82.667 79.333 110 136zM861.999 1438c-26 0 -53.502 -1.66797 -82.502 -5.00098s-58.333 -8.16602 -88 -14.499s-58.5 -14.333 -86.5 -24s-54 -20.834 -78 -33.501c-50.667 -25.333 -98 -57.666 -142 -96.999s-80.667 -81.333 -110 -126v1
c-61.333 -98 -92 -198.667 -92 -302c0 -49.333 8 -99.333 24 -150s38.667 -99.667 68 -147c29.333 -44.667 65.333 -86.5 108 -125.5s90 -72.167 142 -99.5c50 -28 104 -48.333 162 -61s116.333 -19 175 -19s116.334 6.5 173.001 19.5s112.334 33.5 167.001 61.5
c52.667 27.333 98.834 59.5 138.501 96.5s74.167 79.167 103.5 126.5c32 50 56 99.333 72 148s24 98.667 24 150c0 48.667 -8.5 99.5 -25.5 152.5s-40.5 102.5 -70.5 148.5c-29.333 45.333 -65.333 88 -108 128s-90 71.667 -142 95c-108.667 51.333 -219.334 77 -332.001 77
zM861.997 1614c136 0 272.999 -32.334 410.999 -97.001c66.667 -32 126.5 -73.333 179.5 -124s98.5 -105.667 136.5 -165c37.333 -59.333 65.166 -123.166 83.499 -191.499s27.5 -134.833 27.5 -199.5c0 -66.667 -8.66699 -132.167 -26 -196.5
s-45.666 -127.833 -84.999 -190.5h1c-40 -64 -85.667 -120 -137 -168s-110.333 -87.667 -177 -119c-68.667 -33.333 -136.5 -58.333 -203.5 -75s-137.167 -25 -210.5 -25c-74 0 -145.667 8.33301 -215 25s-138 41.667 -206 75c-62.667 32 -120 72.667 -172 122
s-97.667 104.333 -137 165c-77.333 127.333 -116 256.333 -116 387c0 68.667 9.83301 135.167 29.5 199.5s48.5 127.833 86.5 190.5v-1c40 66 86.167 122.333 138.5 169s111.5 87 177.5 121c68.667 34 137.834 58.833 207.501 74.5s138.5 23.5 206.5 23.5z" />
    <glyph glyph-name="guillemotleft" unicode="&#xab;" horiz-adv-x="999" 
d="M347 542l61 -96.5l67 -106l66.5 -104.5l58.5 -92h-188l-307 399l308 399h186zM691 542l61.5 -96.5l67.5 -106l66.5 -104.5l58.5 -92h-191l-303 398l305 400h188z" />
    <glyph glyph-name="logicalnot" unicode="&#xac;" horiz-adv-x="1296" 
d="M1227 386h-222v436h-871v214h1093v-650z" />
    <glyph glyph-name="uni00AD" unicode="&#xad;" horiz-adv-x="737" 
d="M18 489v228h738v-228h-738z" />
    <glyph glyph-name="registered" unicode="&#xae;" horiz-adv-x="1634" 
d="M656 906h158c36.667 0 67.667 2.66699 93 8s46 12.5 62 21.5s27.5 19.5 34.5 31.5s10.5 25 10.5 39c0 64.667 -69.667 97 -209 97h-149v-197zM482 401l-0.00195312 857.004h323c50 0 94 -1.83301 132 -5.5s69 -8.83398 93 -15.501
c21.333 -6.66699 42.166 -17.334 62.499 -32.001s38.5 -31.834 54.5 -51.501s28.833 -41 38.5 -64s14.5 -46.5 14.5 -70.5c0 -26 -4.33301 -51.333 -13 -76s-21.5 -47.5 -38.5 -68.5s-38 -39.833 -63 -56.5s-54.167 -29.667 -87.5 -39
c32.667 -26 60.334 -54.167 83.001 -84.5l68 -95.5l19 -27.5l28 -38l42 -54.5l62 -78h-238c-48 83.333 -90.667 153.166 -128 209.499s-70.666 93.833 -99.999 112.5c-11.333 7.33301 -25.666 13.333 -42.999 18s-38 7 -62 7h-73v-347h-174zM861.998 1445
c-26.667 0 -54.667 -1.99902 -84 -5.99902s-58.666 -9.5 -87.999 -16.5s-58 -15.333 -86 -25s-54 -20.167 -78 -31.5c-24.667 -11.333 -48.834 -25.333 -72.501 -42s-46.334 -35 -68.001 -55s-41.834 -41 -60.501 -63s-35.334 -43.667 -50.001 -65
c-30 -47.333 -52.833 -96.5 -68.5 -147.5s-23.5 -102.167 -23.5 -153.5c0 -96.667 31 -195.334 93 -296.001l-1 1c30.667 -48 66.5 -90.833 107.5 -128.5s88.5 -70.834 142.5 -99.501c49.333 -28 103.166 -48 161.499 -60s116.833 -18 175.5 -18
s116.334 6.16699 173.001 18.5s112.334 32.5 167.001 60.5c52.667 26.667 98.834 59.167 138.501 97.5s74.5 81.5 104.5 129.5c63.333 98.667 95 197 95 295c0 24 -2.33301 49 -7 75s-11.167 52.167 -19.5 78.5s-18.333 52 -30 77s-24.5 48.5 -38.5 70.5
c-30 44 -66.667 86.333 -110 127s-90.666 73.334 -141.999 98.001c-106 52.667 -216.333 79 -331 79zM861.998 1620c68.667 0 136.831 -8.50098 204.498 -25.501s136.5 -41.833 206.5 -74.5c66.667 -32 126.5 -73 179.5 -123s98.5 -104.667 136.5 -164
c37.333 -59.333 65.166 -122.666 83.499 -189.999s27.5 -135 27.5 -203c0 -66.667 -8.66699 -131.667 -26 -195s-45.666 -126.333 -84.999 -189s-84.666 -118.167 -135.999 -166.5s-110.333 -89.166 -177 -122.499c-69.333 -34 -137.333 -58.833 -204 -74.5
s-136.667 -23.5 -210 -23.5s-144.666 7.83301 -213.999 23.5s-138.333 40.5 -207 74.5c-62.667 32 -119.667 72.667 -171 122s-97 104.666 -137 165.999c-38 60 -67 122.833 -87 188.5s-30 131.167 -30 196.5c0 70 9.66699 137 29 201s48.333 127.667 87 191
c38.667 64 84.167 119.5 136.5 166.5s112.5 87.167 180.5 120.5c70 33.333 139.167 58.5 207.5 75.5s136.833 25.5 205.5 25.5z" />
    <glyph glyph-name="macron" unicode="&#xaf;" horiz-adv-x="1225" 
d="M-27 1432v182h1338v-182h-1338z" />
    <glyph glyph-name="degree" unicode="&#xb0;" horiz-adv-x="889" 
d="M287 1307c0 -22 4.66699 -42 14 -60s21.833 -33.5 37.5 -46.5s33.834 -23 54.501 -30s42.667 -10.5 66 -10.5s45.5 3.5 66.5 10.5s39.333 17 55 30s28.167 28.5 37.5 46.5s14 38 14 60c0 18.667 -4.66699 36.5 -14 53.5s-21.833 32 -37.5 45s-34 23.333 -55 31
s-43.167 11.5 -66.5 11.5s-45.333 -3.83301 -66 -11.5s-38.834 -18 -54.501 -31s-28.167 -28 -37.5 -45s-14 -34.833 -14 -53.5zM138 1307c0 39.333 8.83203 76.9971 26.499 112.997s41.334 67.5 71.001 94.5s63.834 48.5 102.501 64.5s79 24 121 24
c43.333 0 84.5 -8 123.5 -24s73.333 -37.5 103 -64.5s53.167 -58.5 70.5 -94.5s26 -73.667 26 -113c0 -43.333 -8.66699 -83.666 -26 -120.999s-40.833 -69.666 -70.5 -96.999s-64 -48.666 -103 -63.999s-80.167 -23 -123.5 -23c-41.333 0 -81.333 7.66699 -120 23
s-72.834 36.5 -102.501 63.5s-53.5 59.167 -71.5 96.5s-27 78 -27 122z" />
    <glyph glyph-name="plusminus" unicode="&#xb1;" horiz-adv-x="1219" 
d="M1184 143h-1091v215h1091v-215zM531 401v403h-438v213h438v401h214v-401h439v-213h-439v-403h-214z" />
    <glyph glyph-name="acute" unicode="&#xb4;" horiz-adv-x="737" 
d="M226 1280l175 329h309l-284 -329h-200z" />
    <glyph glyph-name="paragraph" unicode="&#xb6;" horiz-adv-x="1194" 
d="M453 -301l-0.000976562 1044c-68.667 10.667 -130.334 28.334 -185.001 53.001s-101.167 55.334 -139.5 92.001s-67.666 78.834 -87.999 126.501s-30.5 99.834 -30.5 156.501c0 68.667 11 130.334 33 185.001s55.333 101 100 139s100.334 67 167.001 87
s144.667 30 234 30h704v-218h-156v-1695h-214v1695h-217v-1695h-208z" />
    <glyph glyph-name="periodcentered" unicode="&#xb7;" horiz-adv-x="692" 
d="M231 461v253h256v-253h-256z" />
    <glyph glyph-name="ordmasculine" unicode="&#xba;" horiz-adv-x="809" 
d="M426 1426c-28 0 -53.668 -3.83398 -77.001 -11.501s-43.166 -20 -59.499 -37s-29.166 -39.333 -38.499 -67s-14 -61.5 -14 -101.5c0 -72 17.167 -126.167 51.5 -162.5s80.166 -54.5 137.499 -54.5c26 0 50.167 4.33301 72.5 13s41.666 22 57.999 40s29.166 41 38.499 69
s14 61.667 14 101c0 36.667 -4.66699 68.334 -14 95.001s-22.166 48.5 -38.499 65.5s-35.666 29.667 -57.999 38s-46.5 12.5 -72.5 12.5zM425.999 1610c55.333 0 105.83 -9.33301 151.497 -28s84.834 -45.334 117.501 -80.001s58 -76.667 76 -126s27 -105 27 -167
c0 -61.333 -9.66699 -116.5 -29 -165.5s-45.833 -90.667 -79.5 -125s-73 -60.666 -118 -78.999s-93.5 -27.5 -145.5 -27.5c-55.333 0 -106.166 9 -152.499 27s-86.166 44 -119.499 78s-59.333 75.5 -78 124.5s-28 104.167 -28 165.5c0 62.667 9.16699 119 27.5 169
s44 92.333 77 127s72.833 61.167 119.5 79.5s98 27.5 154 27.5z" />
    <glyph glyph-name="guillemotright" unicode="&#xbb;" horiz-adv-x="999" 
d="M693 540l-60.5 97.5l-67.5 107.5l-66 104.5l-56 89.5h185l302 -399l-302 -399h-186zM349 540l-61.5 97l-67.5 107l-66 105l-57 90h189l303 -401l-303 -397h-189z" />
    <glyph glyph-name="tilde" unicode="&#x2dc;" horiz-adv-x="737" 
d="M-11 1330c14 55.333 28.5029 101.167 43.5029 137.5s32.167 63.5 51.5 81.5c21.333 19.333 46.333 33.833 75 43.5s57 14.5 85 14.5c8.66699 0 19 -1.33301 31 -4s24.667 -6.16699 38 -10.5s26.833 -9 40.5 -14l39.5 -14.5c5.33301 -2.66699 11.333 -5 18 -7
s13 -4.33301 19 -7c23.333 -10 42.833 -17.333 58.5 -22s31.167 -7 46.5 -7c17.333 0 31.666 5.83301 42.999 17.5s21.666 35.167 30.999 70.5h166c-14 -92 -42 -161.167 -84 -207.5s-92 -69.5 -150 -69.5c-27.333 0 -55.833 5 -85.5 15s-63.834 24 -102.501 42h1
c-46 22.667 -80 34 -102 34c-19.333 0 -35.833 -7 -49.5 -21s-24.167 -38 -31.5 -72h-182z" />
    <glyph glyph-name="uni10D0" unicode="&#x10d0;" horiz-adv-x="1044" 
d="M954 555c0 -308 -144 -461.995 -432 -461.995c-71.333 0 -133.833 11.833 -187.5 35.5s-98.667 56 -135 97s-63.666 88.5 -81.999 142.5s-27.5 111.667 -27.5 173v64c0 21.333 3.33301 44.166 10 68.499s16 49.166 28 74.499s26 51.333 42 78s33.333 53 52 79l176 -88
c-25.333 -47.333 -44.333 -90 -57 -128s-19 -66 -19 -84v-69c0 -37.333 3.5 -70.333 10.5 -99s18.333 -52.667 34 -72s36.167 -34 61.5 -44s56.666 -15 93.999 -15c34.667 0 64.5 4.5 89.5 13.5s45.667 23.667 62 44s28.5 46.666 36.5 78.999s12 71.833 12 118.5v105
c0 40 -5.66699 76.833 -17 110.5s-26 65.167 -44 94.5s-38.667 57.166 -62 83.499l-71 77.5l-80 87.5c-26 29.667 -49.167 61.167 -69.5 94.5s-36.666 69.666 -48.999 108.999s-18.5 83 -18.5 131v162h222v-162c0 -28.667 4.83301 -55.834 14.5 -81.501
s22.667 -50.5 39 -74.5s35 -47.667 56 -71l64.5 -71v1l89 -98.5c29.333 -33.667 55.666 -70.167 78.999 -109.5s42.333 -82.166 57 -128.499s22 -97.833 22 -154.5v-111z" />
    <glyph glyph-name="uni10D1" unicode="&#x10d1;" horiz-adv-x="1044" 
d="M322 541c0 -30.667 3.83203 -60.166 11.499 -88.499s19.667 -53.333 36 -75s37 -39 62 -52s55.167 -19.5 90.5 -19.5c36.667 0 67.667 7 93 21s46 32 62 54s27.5 46.167 34.5 72.5s10.5 51.833 10.5 76.5v189c0 26.667 -4.16699 54.167 -12.5 82.5s-20.666 54 -36.999 77
s-37 41.833 -62 56.5s-54.5 22 -88.5 22c-36 0 -66.667 -6.5 -92 -19.5s-46 -30.667 -62 -53s-27.667 -48.333 -35 -78s-11 -60.834 -11 -93.501v-172zM441.999 1616c0 -23.333 3.16504 -43.1631 9.49805 -59.4961s14.5 -30.166 24.5 -41.499s21.333 -20.833 34 -28.5
s25.334 -14.5 38.001 -20.5c18.667 -9.33301 37.167 -19.166 55.5 -29.499s34.833 -22.333 49.5 -36s26.5 -29.5 35.5 -47.5s13.5 -39.333 13.5 -64c0 -31.333 -2.16699 -57.833 -6.5 -79.5s-11.5 -43.834 -21.5 -66.501c46 -18.667 86.5 -43.834 121.5 -75.501
s64 -66.5 87 -104.5s40.333 -77.667 52 -119s17.5 -80.666 17.5 -117.999l2 -207c0 -28.667 -4.16699 -59.167 -12.5 -91.5s-20.666 -64.333 -36.999 -96s-36.666 -61.834 -60.999 -90.501s-52.5 -54 -84.5 -76s-67.833 -39.5 -107.5 -52.5s-82.834 -19.5 -129.501 -19.5
c-71.333 0 -133.833 13 -187.5 39s-98.667 59.5 -135 100.5s-63.666 87 -81.999 138s-27.5 101.167 -27.5 150.5v203c0 45.333 6.33301 91.166 19 137.499s33.167 89.166 61.5 128.499s65 73.833 110 103.5s99.833 50.834 164.5 63.501c6 15.333 10.667 28.666 14 39.999
s6 21.666 8 30.999s3.16699 18.333 3.5 27s0.5 18 0.5 28c-2.66699 5.33301 -10.5 11.666 -23.5 18.999l-46.5 25c-22 11.333 -44.167 23.833 -66.5 37.5s-42.833 31.167 -61.5 52.5s-33.834 48 -45.501 80s-17.5 71.667 -17.5 119h232z" />
    <glyph glyph-name="uni10D2" unicode="&#x10d2;" horiz-adv-x="1167" 
d="M841 683c0 26 -4.5 53.5 -13.5 82.5s-22.5 55.667 -40.5 80s-40.667 44.5 -68 60.5s-59 24 -95 24h-62c-38 0 -71.833 -6.33301 -101.5 -19s-54.834 -31 -75.501 -55s-36.5 -52.833 -47.5 -86.5s-16.5 -71.5 -16.5 -113.5v-89c0 -30.667 5.33301 -61.667 16 -93
s26.834 -59.5 48.501 -84.5s49 -45.5 82 -61.5s71.833 -24 116.5 -24c44 0 82.167 6.5 114.5 19.5s59 31.167 80 54.5s36.667 51 47 83s15.5 67.333 15.5 106v116zM1074 551c-0.666992 -50 -10.6631 -101.833 -29.9961 -155.5s-49.166 -103 -89.499 -148
s-91.666 -82 -153.999 -111s-136.5 -43.5 -222.5 -43.5c-52 0 -100.167 7.16699 -144.5 21.5s-84.666 33.333 -120.999 57s-68.333 51.167 -96 82.5s-50.834 64 -69.501 98s-32.834 68.333 -42.501 103s-14.5 67 -14.5 97v109c0 58.667 9.83301 115.5 29.5 170.5
s49.667 104.5 90 148.5s91.166 80.667 152.499 110s134 47 218 53l36.5 72l37.5 74c-2 11.333 -6.33301 23.666 -13 36.999s-15.334 25.5 -26.001 36.5s-22.834 20.167 -36.501 27.5s-28.834 11 -45.501 11c-46 0 -79.833 -7 -101.5 -21s-32.5 -32.333 -32.5 -55v-91h-218
v91c0 42.667 10 81.834 30 117.501s46.333 66.334 79 92.001s70.167 45.667 112.5 60s85.833 21.5 130.5 21.5c56.667 0 106.334 -8.16699 149.001 -24.5s78.167 -39.5 106.5 -69.5s49.5 -66.333 63.5 -109s21 -90.667 21 -144l-75 -160c33.333 -16 66.666 -37 99.999 -63
s63.333 -57 90 -93s48.167 -76.833 64.5 -122.5s24.166 -95.834 23.499 -150.501z" />
    <glyph glyph-name="uni10D3" unicode="&#x10d3;" horiz-adv-x="1526" 
d="M1202 1122c0 32.667 -1.16504 65.666 -3.49805 98.999s-9 63.333 -20 90s-27.833 48.334 -50.5 65.001s-54.334 25 -95.001 25c-36.667 0 -66.334 -6 -89.001 -18s-40.167 -29.833 -52.5 -53.5s-20.666 -52.834 -24.999 -87.501s-6.5 -74.667 -6.5 -120v-154
c0 -97.333 13.667 -168.666 41 -213.999s71.333 -68 132 -68c40 0 71.167 9.16699 93.5 27.5s39.166 41.5 50.499 69.5s18.333 58.5 21 91.5s4 64.167 4 93.5v154zM1148 92.999l-218.001 0.000976562c-96 0 -183.5 11.333 -262.5 34s-149.667 54.167 -212 94.5
s-116.333 87.833 -162 142.5s-83.667 114 -114 178s-52.833 131.333 -67.5 202s-22 142 -22 214v113c0 34.667 1.5 72.167 4.5 112.5s9 80.666 18 120.999s22.167 79.166 39.5 116.499s40.333 70.5 69 99.5s63.834 52.167 105.501 69.5s91.5 26 149.5 26
c33.333 0 63.166 -2.5 89.499 -7.5s50.166 -13.333 71.499 -25s40.5 -27.167 57.5 -46.5s33.167 -43 48.5 -71c16.667 28.667 35 52.5 55 71.5s42 34.333 66 46s50 20 78 25s58.333 7.5 91 7.5c52.667 0 99.167 -6.83301 139.5 -20.5s75.333 -32.334 105 -56.001
s54.667 -51.5 75 -83.5s36.666 -66.333 48.999 -103s21.166 -74.667 26.499 -114s8 -78.333 8 -117v-160c0 -58 -7.66699 -116.167 -23 -174.5s-39.166 -110.666 -71.499 -156.999s-74 -84 -125 -113s-112.167 -43.5 -183.5 -43.5c-67.333 0 -126.333 12.5 -177 37.5
s-92.834 59.833 -126.501 104.5s-59 97.334 -76 158.001s-25.5 127 -25.5 199v145c0 38.667 -2.66699 75.167 -8 109.5s-14 64.333 -26 90s-27.667 46 -47 61s-43 22.5 -71 22.5c-24.667 0 -45.667 -5.5 -63 -16.5s-31.666 -25.5 -42.999 -43.5s-20.166 -38.667 -26.499 -62
s-11.166 -47.166 -14.499 -71.499s-5.33301 -48.5 -6 -72.5s-1 -45.333 -1 -64v-107c0 -92.667 13.167 -178.167 39.5 -256.5s65.333 -145.833 117 -202.5s115.334 -100.834 191.001 -132.501s162.5 -47.5 260.5 -47.5h218v-232z" />
    <glyph glyph-name="uni10D4" unicode="&#x10d4;" horiz-adv-x="1083" 
d="M953 463c0 -65.333 -11.834 -121.338 -35.501 -168.005s-55.334 -85 -95.001 -115s-85.5 -52 -137.5 -66s-106.333 -21 -163 -21c-62.667 0 -120.5 9.83301 -173.5 29.5s-98.667 47 -137 82s-68.166 76.167 -89.499 123.5s-32 99 -32 155
c0 40.667 1.83301 75.834 5.5 105.501s10 56.834 19 81.501s21.167 47.834 36.5 69.501s34.666 44.834 57.999 69.501l173 -69c-14 -18 -25 -35.833 -33 -53.5s-14.167 -36.5 -18.5 -56.5s-7 -42.167 -8 -66.5s-1.5 -51.833 -1.5 -82.5c0 -56.667 16.333 -100 49 -130
s83.334 -45 152.001 -45c61.333 0 110 14.5 146 43.5s54 68.5 54 118.5v789c0 42.667 -14.833 77.334 -44.5 104.001s-70.167 40 -121.5 40c-53.333 0 -96.5 -13 -129.5 -39s-49.5 -61.667 -49.5 -107c0 -16.667 0.666992 -33.667 2 -51s7 -38.333 17 -63l-181 -65
c-11.333 16 -20.833 30.167 -28.5 42.5s-14 24.833 -19 37.5s-8.66699 26.667 -11 42s-3.5 34.333 -3.5 57c0 54 9.33301 103.167 28 147.5s45 82.333 79 114s75 56.167 123 73.5s101.667 26 161 26c58 0 111.833 -7.66699 161.5 -23s92.834 -38.166 129.501 -68.499
s65.5 -67.833 86.5 -112.5s31.5 -96.334 31.5 -155.001v-794z" />
    <glyph glyph-name="uni10D5" unicode="&#x10d5;" horiz-adv-x="1063" 
d="M953 472c0 -50 -9.16992 -97.8301 -27.5029 -143.497s-45.666 -86 -81.999 -121s-81.333 -62.833 -135 -83.5s-115.834 -31 -186.501 -31c-71.333 0 -134 11.167 -188 33.5s-99 51.166 -135 86.499s-63.167 75.166 -81.5 119.499s-27.5 88.5 -27.5 132.5v73
c0 20 2.16699 41.333 6.5 64s11.333 45.5 21 68.5s22.167 45.5 37.5 67.5s34.333 43 57 63l190 -87c-33.333 -35.333 -55.166 -68 -65.499 -98s-15.5 -58.667 -15.5 -86v-55c0 -22.667 4.16699 -44.167 12.5 -64.5s20.666 -38.333 36.999 -54s37.166 -28 62.499 -37
s55 -13.5 89 -13.5c68.667 0 119.167 15 151.5 45s48.5 70.333 48.5 121v151c0 16.667 -1.66699 35.167 -5 55.5s-8.66602 39.5 -15.999 57.5s-17.166 33 -29.499 45s-27.5 18 -45.5 18h-133v214h133c19.333 0 34.666 7.33301 45.999 22s20 32.5 26 53.5
s9.83301 42.667 11.5 65s2.5 41.5 2.5 57.5v42c0 18 -3.5 35.833 -10.5 53.5s-17.667 33.5 -32 47.5s-32.833 25.333 -55.5 34s-49.667 13 -81 13c-27.333 0 -51.666 -4.16699 -72.999 -12.5s-39.5 -18.666 -54.5 -30.999s-26.5 -25.833 -34.5 -40.5
s-12 -28.334 -12 -41.001v-29c0 -14 0.333008 -26 1 -36s2 -19.5 4 -28.5s5.33301 -18.167 10 -27.5s11 -20.333 19 -33l-169 -92c-18 22.667 -33.167 42.5 -45.5 59.5s-22.5 33.167 -30.5 48.5s-13.667 31 -17 47s-5 34.333 -5 55v45c0 38.667 10 77.667 30 117
s48 74.833 84 106.5s78.833 57.5 128.5 77.5s104.5 30 164.5 30c68.667 0 128.834 -10.167 180.501 -30.5s94.5 -47 128.5 -80s59.5 -70.833 76.5 -113.5s25.5 -86.334 25.5 -131.001v-61c0 -16 -0.333008 -35.5 -1 -58.5s-4.66699 -47.5 -12 -73.5
s-19.333 -52.833 -36 -80.5s-40.667 -54.167 -72 -79.5c32.667 -23.333 57.834 -47.166 75.501 -71.499s30.5 -48.833 38.5 -73.5s12.667 -48.834 14 -72.501s2 -46.167 2 -67.5v-151z" />
    <glyph glyph-name="uni10D6" unicode="&#x10d6;" horiz-adv-x="1184" 
d="M599 1312c0 14.667 -4.49902 27.668 -13.499 39.001s-20.5 20.666 -34.5 27.999s-29.5 12.833 -46.5 16.5s-33.5 5.5 -49.5 5.5c-44 0 -78.833 -7.33301 -104.5 -22s-38.5 -37.667 -38.5 -69v-70c0 -30.667 12 -56.167 36 -76.5s61 -30.5 111 -30.5
c15.333 0 31.166 2.16699 47.499 6.5s31.333 10.833 45 19.5s25 19.667 34 33s13.5 29.333 13.5 48v72zM425.001 557.001c0 -42.667 5.66699 -79.665 17 -110.998s27 -57.333 47 -78s43.333 -36.167 70 -46.5s55 -15.5 85 -15.5c30.667 0 59.334 5.5 86.001 16.5
s49.5 27.5 68.5 49.5s34 49.167 45 81.5s16.5 70.166 16.5 113.499v85c0 42.667 -5.5 79.834 -16.5 111.501s-26 57.667 -45 78s-41.833 35.5 -68.5 45.5s-55.334 15 -86.001 15c-30 0 -58.333 -4.16699 -85 -12.5s-50 -21.833 -70 -40.5s-35.667 -42.834 -47 -72.501
s-17 -65.834 -17 -108.501v-111zM820.001 1269c0 -25.333 -5.66699 -52.666 -17 -81.999s-26.666 -57.333 -45.999 -84c56 -11.333 105.167 -30.333 147.5 -57s77.5 -58.667 105.5 -96s49 -78.5 63 -123.5s21 -91.167 21 -138.5v-152c0 -74 -11.5 -138.667 -34.5 -194
s-54.5 -101.5 -94.5 -138.5s-87.5 -64.667 -142.5 -83s-114.5 -27.5 -178.5 -27.5c-63.333 0 -122.166 9.16699 -176.499 27.5s-101.833 46 -142.5 83s-72.5 83.167 -95.5 138.5s-34.5 120 -34.5 194v147c0 66 9.33301 121.167 28 165.5s43.667 82.5 75 114.5
c-71.333 23.333 -123.833 60.666 -157.5 111.999s-50.5 117 -50.5 197v44c0 47.333 9 89.666 27 126.999s43.167 68.833 75.5 94.5s70.666 45.167 114.999 58.5s93.166 20 146.499 20c66 0 122.333 -7.16699 169 -21.5s84.5 -34.666 113.5 -60.999s50.167 -58 63.5 -95
s20 -77.833 20 -122.5v-47z" />
    <glyph glyph-name="uni10D7" unicode="&#x10d7;" horiz-adv-x="1641" 
d="M732 1202c0 24 -3.33105 47.834 -9.99805 71.501s-17.5 45 -32.5 64s-34.667 34.333 -59 46s-54.166 17.5 -89.499 17.5c-40 0 -72.5 -11.167 -97.5 -33.5s-44.333 -51.333 -58 -87s-22.834 -75.667 -27.501 -120s-7 -88.833 -7 -133.5v-330
c0 -65.333 2.83301 -122.333 8.5 -171s15.667 -89.334 30 -122.001s33.666 -57.167 57.999 -73.5s55.5 -24.5 93.5 -24.5c35.333 0 65.166 7.83301 89.499 23.5s44 38.5 59 68.5s25.833 66.333 32.5 109s10 91 10 145v550zM1521 748.001
c0 -50 -2.83398 -100.665 -8.50098 -151.998s-15 -101.333 -28 -150s-30.5 -94.334 -52.5 -137.001s-49.333 -80 -82 -112s-71.5 -57.333 -116.5 -76s-96.833 -28 -155.5 -28v213c42 0 76.5 12.333 103.5 37s48.5 57 64.5 97s27.167 85.833 33.5 137.5s9.5 104.5 9.5 158.5
v268c0 31.333 -0.5 62.833 -1.5 94.5s-3.16699 62.334 -6.5 92.001s-8.5 57.167 -15.5 82.5s-16.5 47.5 -28.5 66.5s-27 34 -45 45s-39.667 16.5 -65 16.5c-40 0 -71 -5.83301 -93 -17.5s-38.167 -27 -48.5 -46s-16.5 -40.333 -18.5 -64s-3 -47.5 -3 -71.5v-544
c0 -46 -3.16699 -91.667 -9.5 -137s-16.333 -89 -30 -131s-31.5 -81 -53.5 -117s-48.667 -67.333 -80 -94s-67.666 -47.667 -108.999 -63s-88.333 -23 -141 -23c-56.667 0 -106.334 7.83301 -149.001 23.5s-79.5 37.167 -110.5 64.5s-56.833 59.666 -77.5 96.999
s-37.334 77.833 -50.001 121.5s-21.5 89.667 -26.5 138s-7.5 96.833 -7.5 145.5v380c0 44 2.5 88 7.5 132s13.667 86 26 126s28.833 77.5 49.5 112.5s46.5 65.667 77.5 92s67.833 47.166 110.5 62.499s92.334 24 149.001 26c24 0 49.833 -1.83301 77.5 -5.5
s55.334 -10.5 83.001 -20.5s54.334 -23.667 80.001 -41s48.5 -40 68.5 -68c17.333 30.667 35.666 55.167 54.999 73.5s40.333 32.166 63 41.499s47.167 15.333 73.5 18s55.166 4 86.499 4c58.667 0 109 -8.16699 151 -24.5s77.667 -38.666 107 -66.999
s52.833 -61.333 70.5 -99s31.334 -78 41.001 -121s16.167 -87.5 19.5 -133.5s5 -91 5 -135v-288z" />
    <glyph glyph-name="uni10D8" unicode="&#x10d8;" horiz-adv-x="1105" 
d="M983 705c-0.666992 -66 -5.66895 -132.666 -15.002 -199.999s-26.5 -129.666 -51.5 -186.999s-60 -107 -105 -149s-103.833 -71.333 -176.5 -88l-22 225c46 0 80.667 34.167 104 102.5s35 165.166 35 290.499v345c0 56 -2.83301 106.167 -8.5 150.5
s-15.834 81.833 -30.501 112.5s-34.5 54 -59.5 70s-56.5 24 -94.5 24c-42.667 0 -77.5 -8.33301 -104.5 -25s-48.167 -40.5 -63.5 -71.5s-25.833 -69 -31.5 -114s-8.5 -95.833 -8.5 -152.5v-339c0 -61.333 1.5 -116.333 4.5 -165s8.33301 -89.834 16 -123.501
s18.167 -59.5 31.5 -77.5s30 -27 50 -27l-2 -223c-50.667 9.33301 -94.167 25.333 -130.5 48s-66.666 49.834 -90.999 81.501s-43.833 67.167 -58.5 106.5s-25.667 80.166 -33 122.499s-12.166 85.5 -14.499 129.5s-3.5 86.667 -3.5 128v336c0 44.667 2.33301 90 7 136
s13.167 90.5 25.5 133.5s28.833 83.5 49.5 121.5s47 71 79 99s70.333 50.167 115 66.5s96.667 24.5 156 24.5c90.667 0 164.334 -15.5 221.001 -46.5s100.667 -72.833 132 -125.5s52.5 -113.5 63.5 -182.5s16.5 -141.5 16.5 -217.5z" />
    <glyph glyph-name="uni10D9" unicode="&#x10d9;" horiz-adv-x="1033" 
d="M933 517c0 -58 -9.66895 -112.832 -29.002 -164.499s-47.5 -96.667 -84.5 -135s-82.167 -68.666 -135.5 -90.999s-114.333 -33.5 -183 -33.5c-65.333 0 -124.666 11.167 -177.999 33.5s-98.666 51.166 -135.999 86.499s-66.166 74.833 -86.499 118.5
s-30.5 86.5 -30.5 128.5v81c0 26 3.5 51 10.5 75s16.333 46.5 28 67.5s25.334 40.5 41.001 58.5s32.167 34 49.5 48l158 -123c-11.333 -8.66699 -20.5 -19.167 -27.5 -31.5s-12.667 -25 -17 -38s-7.33301 -25.833 -9 -38.5s-2.5 -24 -2.5 -34v-44
c0 -21.333 4.16699 -42.333 12.5 -63s20.666 -39.334 36.999 -56.001s37 -30.167 62 -40.5s54.5 -15.5 88.5 -15.5c37.333 0 68.833 5.33301 94.5 16s46.334 25.5 62.001 44.5s27 41.333 34 67s10.5 53.5 10.5 83.5v93c0 31.333 -3.83301 61.666 -11.5 90.999
s-18.334 55.333 -32.001 78s-30.167 40.834 -49.5 54.501s-40.333 20.5 -63 20.5h-173v214h164c17.333 0 33.666 2.66699 48.999 8s28.833 13.333 40.5 24s21 23.834 28 39.501s10.5 33.834 10.5 54.501v67c0 17.333 -5.16699 34.333 -15.5 51s-23.666 31.667 -39.999 45
s-35 24 -56 32s-42.167 12 -63.5 12v215c28 0 57.5 -4 88.5 -12s61.667 -19.5 92 -34.5s59.166 -33 86.499 -54s51.333 -44.667 72 -71s37.167 -55 49.5 -86s18.5 -63.5 18.5 -97.5v-40c0 -62.667 -10.667 -114.334 -32 -155.001s-51.333 -74.334 -90 -101.001
c33.333 -18.667 60.333 -40.167 81 -64.5s36.667 -51.333 48 -81s19 -62 23 -97s6 -72.5 6 -112.5v-93z" />
    <glyph glyph-name="uni10DA" unicode="&#x10da;" horiz-adv-x="1992" 
d="M1902 1033c0 -28 -3.99805 -59.332 -11.998 -93.999s-19.333 -70.5 -34 -107.5s-32.5 -74.333 -53.5 -112s-44.167 -73.334 -69.5 -107.001s-52.833 -64.5 -82.5 -92.5s-60.5 -51 -92.5 -69l-155 141c40.667 30 77.334 64.667 110.001 104s60.5 79.666 83.5 120.999
s40.667 81.666 53 120.999s18.5 74 18.5 104v116c0 38 -3.83301 71.667 -11.5 101s-18.334 53.833 -32.001 73.5s-29.667 34.5 -48 44.5s-37.833 15 -58.5 15c-33.333 0 -60.5 -5.33301 -81.5 -16s-37.5 -25.5 -49.5 -44.5s-20.167 -41.167 -24.5 -66.5
s-6.5 -52.666 -6.5 -81.999v-279h-222v279c0 28.667 -1.83301 56.167 -5.5 82.5s-10.5 49.5 -20.5 69.5s-24 36 -42 48s-41.667 18 -71 18c-26.667 0 -48.834 -6 -66.501 -18s-31.834 -28 -42.501 -48s-18.334 -42.667 -23.001 -68s-7 -51.333 -7 -78v-285h-224v285
c0 26 -1.16699 51.333 -3.5 76s-8.5 46.334 -18.5 65.001s-25.5 33.667 -46.5 45s-50.167 17 -87.5 17c-27.333 0 -50.666 -7 -69.999 -21s-35.333 -33 -48 -57s-21.834 -52.167 -27.501 -84.5s-8.5 -66.833 -8.5 -103.5l2 -128c-0.666992 -65.333 10.333 -127 33 -185
s54.834 -111.167 96.501 -159.5s91.5 -91.666 149.5 -129.999s122.167 -70.833 192.5 -97.5s145.666 -47 225.999 -61s163.5 -21 249.5 -21h184v-232h-180c-127.333 0 -244.833 11.667 -352.5 35s-205.167 55.5 -292.5 96.5s-164.166 89.5 -230.499 145.5
s-122.166 116.833 -167.499 182.5s-79.833 134.667 -103.5 207s-36.167 145.166 -37.5 218.499l-1 134c0 67.333 7.5 130 22.5 188s38.167 108.333 69.5 151s71.333 76.167 120 100.5s106.667 36.5 174 36.5c29.333 0 56.666 -3.16699 81.999 -9.5s49 -16.333 71 -30
s42.833 -30.667 62.5 -51s38.834 -44.5 57.501 -72.5c29.333 54.667 63.666 97 102.999 127s87 45 143 45c54 0 101.5 -14.833 142.5 -44.5s77.5 -71.5 109.5 -125.5c38.667 53.333 81.167 93.5 127.5 120.5s93.5 40.5 141.5 40.5c54 0 104.5 -9.66699 151.5 -29
s87.833 -47.666 122.5 -84.999s62 -83.333 82 -138s30 -117.334 30 -188.001v-134z" />
    <glyph glyph-name="uni10DB" unicode="&#x10db;" horiz-adv-x="1075" 
d="M722 741c0 42 -5.00098 77.9961 -15.001 107.996s-24 54.333 -42 73s-39 32.334 -63 41.001s-50 13 -78 13c-33.333 0 -62.666 -7.16699 -87.999 -21.5s-46.5 -32.833 -63.5 -55.5s-29.833 -48.167 -38.5 -76.5s-13 -56.833 -13 -85.5v-196
c0 -36 4.83301 -68.667 14.5 -98s23.667 -54.166 42 -74.499s40.5 -36.166 66.5 -47.499s55 -17 87 -17c62 0 109.333 20.333 142 61s49 99.334 49 176.001v200zM952.999 518.996c0 -66 -10.3359 -125.17 -31.0029 -177.503s-49.667 -97 -87 -134
s-82.166 -65.333 -134.499 -85s-109.833 -29.5 -172.5 -29.5c-71.333 0 -134.166 11.333 -188.499 34s-100 54 -137 94s-65 87.333 -84 142s-28.5 114 -28.5 178v196c0 52.667 9.5 105.667 28.5 159s47 101.666 84 144.999s82.667 78.666 137 105.999s117.166 41 188.499 41
c32 0 65.5 -4.16699 100.5 -12.5s69.167 -25.166 102.5 -50.499v162c0 18 -5.66699 34 -17 48s-26.166 26 -44.499 36s-39.166 17.5 -62.499 22.5s-46.666 7.5 -69.999 7.5c-57.333 0 -100.333 -7.66699 -129 -23s-43 -33.666 -43 -54.999v-77h-233v77
c0 38.667 11.5 75.834 34.5 111.501s53.5 66.834 91.5 93.501s81.333 48 130 64s99 24 151 24c54 0 106.167 -7.83301 156.5 -23.5s94.666 -38 132.999 -67s69 -63.667 92 -104s34.5 -85.166 34.5 -134.499z" />
    <glyph glyph-name="uni10DC" unicode="&#x10dc;" horiz-adv-x="1073" 
d="M752 749c0 32.667 -4.16504 62.834 -12.498 90.501s-20.833 51.667 -37.5 72s-37.5 36.166 -62.5 47.499s-53.833 17 -86.5 17c-18 0 -38.5 -1.33301 -61.5 -4s-45 -11.167 -66 -25.5s-38.667 -37 -53 -68s-21.5 -74.5 -21.5 -130.5v-221c0 -30 4 -58.5 12 -85.5
s20.167 -50.5 36.5 -70.5s37.166 -35.833 62.499 -47.5s55 -17.5 89 -17.5c67.333 0 117.666 19.833 150.999 59.5s50 97.167 50 172.5v211zM983.002 525c0 -66 -9.33691 -125.668 -28.0039 -179.001s-46.334 -98.666 -83.001 -135.999s-81.667 -66.166 -135 -86.499
s-114.666 -30.5 -183.999 -30.5c-63.333 0 -121.333 10 -174 30s-98.334 48.833 -137.001 86.5s-68.667 83.167 -90 136.5s-32 113.666 -32 180.999v771c0 52 7.16699 96.833 21.5 134.5s34 68.834 59 93.501s54.167 43 87.5 55s69 18 107 18
c31.333 0 60.833 -2.66699 88.5 -8s54.834 -11 81.501 -17h-1c23.333 -5.33301 45.666 -10 66.999 -14s41 -6 59 -6c32.667 0 69.334 7.66699 110.001 23s92.667 37.333 156 66v-203c-27.333 -16.667 -53 -30.834 -77 -42.501s-47.167 -21.167 -69.5 -28.5
s-44.166 -12.666 -65.499 -15.999s-43 -5 -65 -5c-26.667 0 -51.5 2 -74.5 6s-45.5 8.66699 -67.5 14l-58 11.5c-19.333 3.66699 -38.666 5.5 -57.999 5.5c-29.333 0.666992 -50.5 -7.83301 -63.5 -25.5s-19.5 -39.834 -19.5 -66.501v-178c36 28.667 72.333 48 109 58
s71.334 15 104.001 15c69.333 0 130.833 -12.167 184.5 -36.5s98.834 -56.5 135.501 -96.5s64.5 -86 83.5 -138s28.5 -106 28.5 -162v-230z" />
    <glyph glyph-name="uni10DD" unicode="&#x10dd;" horiz-adv-x="1641" 
d="M1296 1011c0 56 -1.49902 107.831 -4.49902 155.498s-10.333 88.834 -22 123.501s-29.5 61.834 -53.5 81.501s-57 29.5 -99 29.5c-120.667 0 -181 -74.667 -181 -224v-593h-231v593c0 78.667 -14.833 135.667 -44.5 171s-75.834 53 -138.501 53
c-38.667 0 -69.834 -9.83301 -93.501 -29.5s-41.834 -47.167 -54.501 -82.5s-21 -77.5 -25 -126.5s-6 -102.5 -6 -160.5v-243c0 -54.667 4.5 -109 13.5 -163s23.5 -102.5 43.5 -145.5s45.833 -77.833 77.5 -104.5s70.5 -40 116.5 -40v-213
c-64.667 0 -121.334 9.33301 -170.001 28s-91 44.167 -127 76.5s-66 70.166 -90 113.499s-43.167 89.5 -57.5 138.5s-24.5 99.667 -30.5 152s-9 103.5 -9 153.5v247c0 50.667 1.83301 101 5.5 151s10.667 97.667 21 143s25 87.5 44 126.5s43.833 72.833 74.5 101.5
s68 51.167 112 67.5s96.333 24.5 157 24.5c34.667 0 66.334 -4.83301 95.001 -14.5s54.834 -22.667 78.501 -39s45 -35.166 64 -56.499s36.167 -43.666 51.5 -66.999c15.333 22 33 43.667 53 65s42.5 40.166 67.5 56.499s52.833 29.666 83.5 39.999s64 15.5 100 15.5
c58 0 108.5 -8 151.5 -24s79.833 -38 110.5 -66s55.834 -61.167 75.501 -99.5s35.167 -79.666 46.5 -123.999s19.166 -90.833 23.499 -139.5s6.5 -97.334 6.5 -146.001l-1 -262c0 -48 -3.33301 -97.5 -10 -148.5s-17.667 -101 -33 -150s-35.333 -95.5 -60 -139.5
s-54.834 -82.667 -90.501 -116s-77.167 -59.666 -124.5 -78.999s-101.666 -29 -162.999 -29v213c42 0 78.333 13.167 109 39.5s56.334 61 77.001 104s36 92 46 147s15 110.833 15 167.5v247z" />
    <glyph glyph-name="uni10DE" unicode="&#x10de;" horiz-adv-x="1043" 
d="M953 557c0 -71.333 -10.333 -135.667 -31 -193s-50 -106 -88 -146s-83.5 -70.833 -136.5 -92.5s-111.833 -32.5 -176.5 -32.5c-60.667 0 -117.334 11 -170.001 33s-98.334 51.333 -137.001 88s-69 78.5 -91 125.5s-33 95.5 -33 145.5v80c0 46 6.33301 86.667 19 122
s33.667 68.666 63 99.999l188 -85c-15.333 -23.333 -25.666 -47.833 -30.999 -73.5s-8 -53.5 -8 -83.5v-30c0 -27.333 5.16699 -53.666 15.5 -78.999s24.5 -47.666 42.5 -66.999s39.167 -34.666 63.5 -45.999s50.5 -17 78.5 -17c71.333 0 122.666 22.5 153.999 67.5
s47 110.5 47 196.5v107c0 21.333 -3.66699 42.666 -11 63.999s-17.5 40.333 -30.5 57s-28 30.167 -45 40.5s-35.5 15.5 -55.5 15.5h-132v214h132c34.667 0 59.334 11.5 74.001 34.5s22 51.167 22 84.5v31c0 6 -4.16699 11.667 -12.5 17s-19.333 10.5 -33 15.5
s-29.5 10 -47.5 15l-56 15.5c-38.667 10 -77.834 21.5 -117.501 34.5s-75.667 31.5 -108 55.5s-58.666 55.5 -78.999 94.5s-30.5 89.167 -30.5 150.5h232c0 -24.667 5.33301 -45 16 -61s24.667 -29.5 42 -40.5s36.833 -20 58.5 -27s43.834 -13.5 66.501 -19.5
c35.333 -9.33301 70.833 -19.5 106.5 -30.5s67.834 -25.5 96.501 -43.5s52 -40.333 70 -67s27 -60 27 -100v-42c0 -16.667 -2 -34.167 -6 -52.5s-10.5 -37.333 -19.5 -57s-21.167 -39.167 -36.5 -58.5s-34.333 -38.333 -57 -57c29.333 -22 54.333 -45.667 75 -71
s37.667 -50.5 51 -75.5s23.166 -49.333 29.499 -73s9.5 -44.834 9.5 -63.501v-120z" />
    <glyph glyph-name="uni10DF" unicode="&#x10df;" horiz-adv-x="1072" 
d="M952 483c0 -65.333 -10.4951 -122.338 -31.4951 -171.005s-50.333 -89.167 -88 -121.5s-82.334 -56.666 -134.001 -72.999s-108.167 -24.5 -169.5 -24.5c-66.667 0 -127 8.16699 -181 24.5s-100.167 40.5 -138.5 72.5s-67.833 71.833 -88.5 119.5
s-31 102.834 -31 165.501v42c2 34 9.16699 62.667 21.5 86s25.166 44.666 38.499 63.999l204 -15c-8.66699 -11.333 -15.167 -23.833 -19.5 -37.5s-7.5 -26.834 -9.5 -39.501s-3 -24 -3 -34v-20v-49c0 -25.333 5.16699 -48.166 15.5 -68.499s24.833 -37.833 43.5 -52.5
s40.667 -25.834 66 -33.501s52.666 -11.5 81.999 -11.5c28.667 0 55 5.33301 79 16s44.333 24.834 61 42.501s29.667 37.834 39 60.501s14 46.334 14 71.001v874c-39.333 -4.66699 -78.333 -9 -117 -13l-118 -12c17.333 -12 31.833 -25.833 43.5 -41.5
s21.167 -33.667 28.5 -54s12.666 -43.166 15.999 -68.499s5 -54 5 -86c0 -19.333 -2.83301 -40 -8.5 -62s-15.5 -43.833 -29.5 -65.5s-32.833 -42.667 -56.5 -63s-53.667 -38.166 -90 -53.499s-79.666 -27.666 -129.999 -36.999s-108.833 -14 -175.5 -14v215
c40 0 76.167 0.333008 108.5 1s59.833 3.5 82.5 8.5s40.5 13.5 53.5 25.5s20.5 29 22.5 51c-0.666992 27.333 -8.83398 51.666 -24.501 72.999s-36 40 -61 56s-53.333 30 -85 42s-63.834 22.667 -96.501 32v197l862 95v-1113z" />
    <glyph glyph-name="uni10E0" unicode="&#x10e0;" horiz-adv-x="1600" 
d="M1510 590c0 -30 -5.50098 -62.9961 -16.501 -98.9961s-26.667 -72.5 -47 -109.5s-44.833 -73 -73.5 -108s-60.834 -66 -96.501 -93s-74.5 -48.667 -116.5 -65s-86 -24.5 -132 -24.5v215c34.667 0 67.167 9.5 97.5 28.5s56.833 42.5 79.5 70.5s40.5 58.5 53.5 91.5
s19.5 63.5 19.5 91.5v142c0 52 -6.16699 94.5 -18.5 127.5s-27.833 59 -46.5 78s-38.5 32 -59.5 39s-39.833 10.5 -56.5 10.5c-19.333 0 -39.666 -3.83301 -60.999 -11.5s-41 -20.5 -59 -38.5s-32.833 -41.833 -44.5 -71.5s-17.5 -66.5 -17.5 -110.5v-259h-232v259
c0 44 -5.83301 80.833 -17.5 110.5s-26.167 53.5 -43.5 71.5s-36.5 30.833 -57.5 38.5s-40.833 11.5 -59.5 11.5c-22.667 0 -44.834 -3.5 -66.501 -10.5s-41.167 -20 -58.5 -39s-31.333 -45 -42 -78s-16 -75.5 -16 -127.5v-147c0 -27.333 5.83301 -57 17.5 -89
s28.5 -62 50.5 -90s48.5 -51.333 79.5 -70s65.833 -28 104.5 -28v-213c-53.333 0 -102.333 8.33301 -147 25s-84.834 38.667 -120.501 66s-67.167 58.666 -94.5 93.999s-50 71.5 -68 108.5s-31.5 73.667 -40.5 110s-13.5 69.166 -13.5 98.499v135c0 72 6.16699 144 18.5 216
s34 140.833 65 206.5s72.667 126.667 125 183s118.5 105.333 198.5 147s175.167 74.334 285.5 98.001s238.833 35.5 385.5 35.5v-215c-180.667 0 -331.667 -20.333 -453 -61s-214.666 -96.334 -279.999 -167.001l63 15c27.333 0 55 -2.33301 83 -7
s55.167 -13.334 81.5 -26.001s51.333 -29.834 75 -51.501s45.167 -49.834 64.5 -84.501c20.667 34 43.334 61.833 68.001 83.5s50 38.834 76 51.501s51.833 21.5 77.5 26.5s50.167 7.5 73.5 7.5c52 0 102.833 -8 152.5 -24s93.834 -42 132.501 -78s69.667 -83.167 93 -141.5
s35 -129.833 35 -214.5v-140z" />
    <glyph glyph-name="uni10E1" unicode="&#x10e1;" horiz-adv-x="1073" 
d="M983 565c0 -68 -10.667 -130.834 -32 -188.501s-51.166 -107.5 -89.499 -149.5s-84 -74.833 -137 -98.5s-110.833 -35.5 -173.5 -35.5c-63.333 0 -121.333 9.66699 -174 29s-98 49 -136 89s-67.667 90.333 -89 151s-32 132 -32 214v1040h231v-1040
c0 -49.333 5 -91.166 15 -125.499s23.833 -62.166 41.5 -83.499s38.667 -36.833 63 -46.5s51.166 -14.5 80.499 -14.5c33.333 0 62.5 6.5 87.5 19.5s46 31.5 63 55.5s29.667 52.667 38 86s12.5 70.333 12.5 111v54c0 44 -7.5 85.833 -22.5 125.5s-36.167 76.5 -63.5 110.5
l-40.5 54c-13 18 -24.5 36.167 -34.5 54.5s-18.167 37 -24.5 56s-9.5 38.5 -9.5 58.5c0 15.333 1.16699 31 3.5 47s6.33301 32.5 12 49.5s13.5 35.167 23.5 54.5s22.667 40.333 38 63l240 -67l-18.5 -22.5l-17.5 -21.5l-14.5 -17.5c-4.33301 -5 -6.83301 -8.5 -7.5 -10.5
c-11.333 -15.333 -20 -28.333 -26 -39s-9 -22.667 -9 -36c0 -21.333 8.83301 -44.333 26.5 -69s38.167 -50.334 61.5 -77.001h-1c34.667 -39.333 62.5 -82.5 83.5 -129.5s31.5 -102.167 31.5 -165.5v-85z" />
    <glyph glyph-name="uni10E2" unicode="&#x10e2;" horiz-adv-x="1304" 
d="M982 915c0 108 -21.168 191.996 -63.501 251.996s-100.833 98.333 -175.5 115c2 -48 4.33301 -97.667 7 -149l8 -154l8 -152.5c2.66699 -50.333 5 -98.166 7 -143.499h-246l30 597c-34 -9.33301 -65.5 -23.666 -94.5 -42.999s-54 -44 -75 -74s-37.333 -65.667 -49 -107
s-17.5 -88.333 -17.5 -141v-274c0 -41.333 7.83301 -82.166 23.5 -122.499s38 -76.166 67 -107.499s63.833 -56.666 104.5 -75.999s86.334 -29 137.001 -29c48 0 92.167 9 132.5 27s75 42.333 104 73s51.667 66.167 68 106.5s24.5 83.166 24.5 128.499v274zM1214 640.996
c0 -52.667 -7.49902 -102.837 -22.499 -150.504s-35.667 -91.667 -62 -132s-57.333 -77 -93 -110s-74.334 -61 -116.001 -84s-85.334 -40.667 -131.001 -53s-91.167 -18.5 -136.5 -18.5c-46 0 -92 6.16699 -138 18.5s-89.833 29.833 -131.5 52.5
s-80.334 50.334 -116.001 83.001s-66.667 69.334 -93 110.001s-47 84.834 -62 132.501s-22.5 98.167 -22.5 151.5v274c0 74 12.167 142.833 36.5 206.5s56.833 120.5 97.5 170.5s87.834 91.833 141.501 125.5s109.834 57.5 168.501 71.5l-37 71.5l-29 55.5h347l-52 -125
c58.667 -14 115.167 -37.667 169.5 -71s102.333 -74.833 144 -124.5s75 -106.667 100 -171s37.5 -134.166 37.5 -209.499v-274z" />
    <glyph glyph-name="uni10E3" unicode="&#x10e3;" horiz-adv-x="1179" 
d="M1059 541c0 -74 -9.16602 -139 -27.499 -195s-45 -102.833 -80 -140.5s-78 -65.834 -129 -84.501s-108.833 -28 -173.5 -28c-70 0 -133 10.333 -189 31s-103.333 49.834 -142 87.501s-68.334 82.5 -89.001 134.5s-31 109 -31 171v88c0 50 10.167 93.667 30.5 131
s49.166 72 86.499 104l179 -82c-23.333 -22 -39.833 -47.167 -49.5 -75.5s-14.5 -54.166 -14.5 -77.499v-88c0 -30.667 4.83301 -59 14.5 -85s23.667 -48.333 42 -67s41.166 -33.167 68.499 -43.5s58.666 -15.5 93.999 -15.5c36 0 65.667 6.16699 89 18.5
s41.666 29.333 54.999 51s22.5 47.167 27.5 76.5s7.5 61.333 7.5 96v815c0 11.333 -9.5 21.666 -28.5 30.999s-44.5 14 -76.5 14c-25.333 0 -45 -4.66699 -59 -14s-21 -19.666 -21 -30.999v-343h-203v343c0 16 -5.5 27.833 -16.5 35.5s-26.167 11.5 -45.5 11.5
c-6.66699 0 -13.667 -3.83301 -21 -11.5s-14.666 -15.834 -21.999 -24.501c-14 -16 -29.167 -30.667 -45.5 -44s-37.166 -20 -62.499 -20c-16.667 0 -33 3 -49 9s-31.667 13.833 -47 23.5s-29.833 20.834 -43.5 33.501s-26.167 26 -37.5 40v265
c14.667 -14.667 31.334 -30.5 50.001 -47.5l54 -47c17.333 -14.333 33 -26.333 47 -36s24 -14.5 30 -14.5c-0.666992 0 1.33301 2 6 6l16 14c16 13.333 33.167 25.666 51.5 36.999s39.833 17 64.5 17c40.667 0 75.834 -8.16699 105.501 -24.5s55.5 -40.5 77.5 -72.5
c23.333 32 51.166 56.167 83.499 72.5s64.5 24.5 96.5 24.5c38.667 0 77.334 -6 116.001 -18s73.667 -28.833 105 -50.5s56.833 -47.667 76.5 -78s29.5 -63.833 29.5 -100.5v-822z" />
    <glyph glyph-name="uni10E4" unicode="&#x10e4;" horiz-adv-x="1564" 
d="M684 1149c0 48 -3.83594 88.1699 -11.5029 120.503s-19.167 58.333 -34.5 78s-34.333 33.5 -57 41.5s-49 12 -79 12s-56.167 -3.5 -78.5 -10.5s-41.166 -19.833 -56.499 -38.5s-26.833 -44.334 -34.5 -77.001s-11.5 -74.667 -11.5 -126v-86
c0 -46.667 3.66699 -84.834 11 -114.501s18.5 -53.167 33.5 -70.5s33.833 -29.333 56.5 -36s49.334 -10 80.001 -10c36 0 65.667 4.66699 89 14s41.833 23.666 55.5 42.999s23.334 43.333 29.001 72s8.5 62.667 8.5 102v86zM1452 487.003
c0 -66 -14.0029 -123.669 -42.0029 -173.002s-67 -90.333 -117 -123s-109.333 -57.167 -178 -73.5s-143.334 -24.5 -224.001 -24.5c-51.333 0 -101.333 2.16699 -150 6.5s-94.667 12.166 -138 23.499s-83.166 27 -119.499 47s-67.666 45.833 -93.999 77.5
s-46.666 69.834 -60.999 114.501s-21.166 97.334 -20.499 158.001l229 -45c0 -30.667 5.16699 -56 15.5 -76s24.333 -36.333 42 -49s38.334 -22 62.001 -28s48.667 -10.167 75 -12.5s53.166 -3.5 80.499 -3.5h79c42.667 0 83.834 3 123.501 9s74.667 16 105 30
s54.666 32.667 72.999 56s27.5 52 27.5 86v49c0 19.333 -1.83301 40.333 -5.5 63s-10 43.667 -19 63s-21.167 35.5 -36.5 48.5s-35 19.5 -59 19.5h-85v213h85c24.667 0 45.834 5.83301 63.501 17.5s32.167 26.834 43.5 45.501s19.833 39.834 25.5 63.501s8.5 47.5 8.5 71.5
v48c0 34 -1.83301 64.167 -5.5 90.5s-11.5 48.5 -23.5 66.5s-29.333 31.667 -52 41s-52.667 14 -90 14c-28 0 -51.833 -6 -71.5 -18s-35.5 -28.667 -47.5 -50s-20.667 -46.666 -26 -75.999s-8 -61 -8 -95v-99c0 -64 -8.33301 -123.333 -25 -178s-42 -102 -76 -142
s-77.167 -71.333 -129.5 -94s-113.833 -34 -184.5 -34c-66 0 -124.667 10.5 -176 31.5s-94.5 51 -129.5 90s-61.5 86 -79.5 141s-27 116.833 -27 185.5v86c0 78 9.83301 146.167 29.5 204.5s47.5 107 83.5 146s79.333 68.167 130 87.5s107 29 169 29
c26 0 52.5 -2.33301 79.5 -7s53.333 -12.334 79 -23.001s50.334 -25.167 74.001 -43.5s45.5 -40.833 65.5 -67.5c18.667 29.333 39 53.166 61 71.499s44.667 32.666 68 42.999s46.833 17.333 70.5 21s47.167 5.5 70.5 5.5c70 0 130.333 -9.66699 181 -29s92.5 -47 125.5 -83
s57.5 -80 73.5 -132s24 -110.667 24 -176v-45c0 -26 -1.83301 -53.333 -5.5 -82s-11 -56.667 -22 -84s-26.833 -53.666 -47.5 -78.999s-48.334 -48 -83.001 -68c31.333 -18 56 -38.5 74 -61.5s31.667 -47.333 41 -73s15.166 -52 17.499 -79s3.5 -53.5 3.5 -79.5v-58z" />
    <glyph glyph-name="uni10E5" unicode="&#x10e5;" horiz-adv-x="1073" 
d="M953 462c0 -59.333 -11.0049 -111.836 -33.0049 -157.503s-52.167 -84.167 -90.5 -115.5s-83.833 -55.166 -136.5 -71.499s-109.667 -24.5 -171 -24.5s-118.166 8.83301 -170.499 26.5s-98 43 -137 76s-69.5 72.833 -91.5 119.5s-33 99 -33 157v36
c0 27.333 7.66699 54.833 23 82.5s37.666 54.167 66.999 79.5l184 -82c-28.667 -45.333 -43 -87.333 -43 -126c0 -49.333 15.833 -87.666 47.5 -114.999s82.834 -41 153.501 -41c29.333 0 56.333 3.16699 81 9.5s45.834 15.5 63.501 27.5s31.334 27.167 41.001 45.5
s14.5 39.5 14.5 63.5v427c0 20 -3.16699 44.167 -9.5 72.5s-18 55.5 -35 81.5s-41 48 -72 66s-70.833 27 -119.5 27c-25.333 0 -45.666 -3.16699 -60.999 -9.5s-27 -14.166 -35 -23.499s-13.333 -19.5 -16 -30.5s-4 -21.5 -4 -31.5c0 -22.667 4 -43.167 12 -61.5
s19.667 -36.166 35 -53.499l-155 -94c-21.333 12 -39.166 26 -53.499 42s-26 33.333 -35 52s-15.5 37.667 -19.5 57s-6 38.333 -6 57c0 44 7.5 84.667 22.5 122s37 69.666 66 96.999s64.333 48.666 106 63.999s89.5 23 143.5 23c51.333 0 97 -9.66699 137 -29
s76 -44.666 108 -75.999v181h-184v204h406v-1154z" />
    <glyph glyph-name="uni10E6" unicode="&#x10e6;" horiz-adv-x="1491" 
d="M1401 935c0 -58.667 -7.33301 -111.337 -22 -158.004s-34.167 -88.667 -58.5 -126s-51.833 -70.166 -82.5 -98.499s-62 -53.5 -94 -75.5l-159 154c40 23.333 72 49.333 96 78s42.5 57.5 55.5 86.5s21.5 57.167 25.5 84.5s6 51 6 71v167
c0 56.667 -2.5 103.334 -7.5 140.001s-13.333 65.667 -25 87s-27.167 36 -46.5 44s-43.666 12 -72.999 12c-32.667 0 -59.167 -4.16699 -79.5 -12.5s-36.166 -22.666 -47.499 -42.999s-19 -47.833 -23 -82.5s-6 -78 -6 -130v-317h-231v317c0 54 -2.5 98.333 -7.5 133
s-13.333 62 -25 82s-27.167 33.833 -46.5 41.5s-43.333 11.5 -72 11.5c-27.333 0 -50.833 -6.16699 -70.5 -18.5s-35.834 -32 -48.501 -59s-22 -61.833 -28 -104.5s-9 -94.667 -9 -156v-133c0 -84 13.5 -162.333 40.5 -235s65.833 -136 116.5 -190s111.667 -96.333 183 -127
s151.666 -46 240.999 -46h200v-239h-200c-86.667 0 -167 10.833 -241 32.5s-141 51.5 -201 89.5s-113.167 83.333 -159.5 136s-85.166 110 -116.499 172s-55 127.5 -71 196.5s-24 139.167 -24 210.5v133c0 84.667 6.83301 161.167 20.5 229.5s35.667 126.5 66 174.5
s70 84.833 119 110.5s108.833 38.5 179.5 38.5c32.667 0 62.167 -2 88.5 -6s50.166 -11.5 71.499 -22.5s41 -26 59 -45s34.667 -43.5 50 -73.5c16 30.667 33.333 55.5 52 74.5s38.834 33.833 60.501 44.5s45.5 18 71.5 22s54.667 6 86 6c72.667 0 133.667 -9.33301 183 -28
s89.166 -48 119.499 -88s52 -91.167 65 -153.5s19.5 -137.166 19.5 -224.499v-187z" />
    <glyph glyph-name="uni10E7" unicode="&#x10e7;" horiz-adv-x="1073" 
d="M953 508c0 -135.333 -34.5029 -238.334 -103.503 -309.001s-178.167 -106 -327.5 -106c-55.333 0 -108.833 7 -160.5 21s-97.667 35.333 -138 64s-72.666 64.334 -96.999 107.001s-36.5 93 -36.5 151c0 28.667 2.66699 53.5 8 74.5s12.333 40 21 57s18.5 32.667 29.5 47
l34.5 43.5l181 -79c-16 -14.667 -27.167 -33.667 -33.5 -57s-9.5 -52 -9.5 -86c0 -19.333 6 -37 18 -53s27.5 -29.667 46.5 -41s40.5 -20.166 64.5 -26.499s48 -9.5 72 -9.5c40 0 72.833 4.83301 98.5 14.5s46 23.834 61 42.501s25.5 41.667 31.5 69s9 58.333 9 93v284
c-13.333 -10 -27 -18.333 -41 -25s-28.833 -12 -44.5 -16s-32.5 -6.66699 -50.5 -8s-37.333 -2 -58 -2c-63.333 0 -120.166 11.167 -170.499 33.5s-93.166 52.333 -128.499 90s-62.5 81.5 -81.5 131.5s-28.5 102.667 -28.5 158v47c0.666992 42.667 7.5 84.667 20.5 126
s30.833 81 53.5 119s49.667 73.667 81 107s65.666 63.666 102.999 90.999l157 -166c-18 -9.33301 -38.167 -24.333 -60.5 -45s-43.333 -44 -63 -70s-36.167 -52.833 -49.5 -80.5s-20 -52.5 -20 -74.5v-76c0 -22 5.16699 -43.667 15.5 -65s24 -40.333 41 -57
s36.833 -30.167 59.5 -40.5s46.334 -15.5 71.001 -15.5c40 0 72.5 7.66699 97.5 23s44.5 32.666 58.5 51.999s23.5 38 28.5 56s7.5 29.667 7.5 35l2 479h231v-1108z" />
    <glyph glyph-name="uni10E8" unicode="&#x10e8;" horiz-adv-x="1187" 
d="M836 690c0 84.667 -17.8311 145.167 -53.498 181.5s-89.834 54.5 -162.501 54.5c-31.333 0.666992 -60.333 -6 -87 -20s-49.834 -33.167 -69.501 -57.5s-35.167 -52.5 -46.5 -84.5s-17 -65.667 -17 -101v-102c0 -33.333 5.33301 -65.333 16 -96
s25.5 -57.834 44.5 -81.501s42 -42.5 69 -56.5s56.833 -21 89.5 -21c29.333 0 57.166 6.16699 83.499 18.5s49.333 29 69 50s35.334 45.833 47.001 74.5s17.5 59.334 17.5 92.001v149zM1067 541c0 -67.333 -12.332 -128.501 -36.999 -183.501s-57.667 -102 -99 -141
s-89 -69.333 -143 -91s-110.333 -32.5 -169 -32.5c-61.333 0 -119.333 13.5 -174 40.5s-102.5 62.333 -143.5 106s-73.5 93 -97.5 148s-36 110.833 -36 167.5v128c0 62 10.667 120.833 32 176.5s51.833 104.334 91.5 146.001s87.167 74.834 142.5 99.501s117 37 185 37
c16 0 33.333 -1 52 -3s38 -5.33301 58 -10s39.833 -11 59.5 -19s38.5 -18.333 56.5 -31v159c0 32.667 -0.833008 60.167 -2.5 82.5s-6 40.166 -13 53.499s-17.667 23 -32 29s-34.5 9 -60.5 9c-32 0 -58.333 -9.16699 -79 -27.5s-31 -43.166 -31 -74.499v-70h-168v70
c0 18 -4.33301 33.333 -13 46s-19.5 23.167 -32.5 31.5s-27.333 14.5 -43 18.5s-30.5 6 -44.5 6c-11.333 0 -20.833 -2 -28.5 -6s-13.834 -8.83301 -18.501 -14.5s-7.83398 -11.834 -9.50098 -18.501s-2.5 -13 -2.5 -19v-171h-207v171c0 36 6.5 69.833 19.5 101.5
s31 59.334 54 83.001s49.833 42.167 80.5 55.5s64 20 100 20c28 0 53.333 -3.16699 76 -9.5s43 -15.333 61 -27s34.5 -25.334 49.5 -41.001s29.167 -32.5 42.5 -50.5c13.333 16 27.5 31.667 42.5 47s31 29 48 41s35.333 21.667 55 29s40.834 11 63.501 11
c58.667 0 108 -7.33301 148 -22s72.333 -37.167 97 -67.5s42.5 -68.833 53.5 -115.5s16.5 -101.667 16.5 -165v-703z" />
    <glyph glyph-name="uni10E9" unicode="&#x10e9;" horiz-adv-x="1073" 
d="M607 1223c3.33301 12 5.8252 22.334 7.49219 31.001s3 17 4 25s1.5 16.333 1.5 25v31c0 14.667 -5.5 27.5 -16.5 38.5s-24.5 20 -40.5 27s-33.167 12.167 -51.5 15.5s-34.833 5 -49.5 5c-16 0 -31.333 -3.33301 -46 -10s-27.5 -15.5 -38.5 -26.5
s-19.667 -23.167 -26 -36.5s-9.5 -27 -9.5 -41v-262c32 24 65.833 41.5 101.5 52.5s71.5 16.5 107.5 16.5c84 0 153.833 -13 209.5 -39s100 -60.333 133 -103s56.167 -90.834 69.5 -144.501s20 -108.5 20 -164.5v-118c0 -53.333 -7 -102.833 -21 -148.5
s-31.667 -88 -53 -127s-44.666 -74.667 -69.999 -107l-71 -88.5h-249c1.33301 2 6 8.33301 14 19l25.5 34l25 33.5c7.66699 10.333 12.167 16.5 13.5 18.5v-1l56 81.5c18.667 27.667 35.334 56.667 50.001 87s26.5 62.5 35.5 96.5s13.5 70.333 13.5 109v111
c0 20.667 -2.16699 44.667 -6.5 72s-13.666 53.333 -27.999 78s-34.666 45.667 -60.999 63s-61.5 26 -105.5 26c-34 0 -64 -7 -90 -21s-47.833 -31.167 -65.5 -51.5s-31 -42.333 -40 -66s-13.5 -45.167 -13.5 -64.5v-606h-222v1229c0 44 9.5 84.167 28.5 120.5
s44.333 67.333 76 93s68.334 45.5 110.001 59.5s85.5 21 131.5 21c24.667 0 51 -1.83301 79 -5.5s55.833 -9.66699 83.5 -18s54.167 -19.5 79.5 -33.5s47.833 -31.5 67.5 -52.5s35.334 -45.667 47.001 -74s17.5 -60.833 17.5 -97.5c0 -15.333 -1.16699 -29 -3.5 -41
s-5.66602 -23.833 -9.99902 -35.5s-9.66602 -23.667 -15.999 -36l-21.5 -41.5z" />
    <glyph glyph-name="uni10EA" unicode="&#x10ea;" horiz-adv-x="1175" 
d="M1085 567c0 -68.667 -12.501 -132.001 -37.501 -190.001s-59.167 -108 -102.5 -150s-94.833 -74.833 -154.5 -98.5s-123.834 -35.5 -192.501 -35.5c-70.667 0 -136.834 13.167 -198.501 39.5s-115.5 63.5 -161.5 111.5s-82.167 105.667 -108.5 173s-39.5 142 -39.5 224
v356c0 32.667 1.16699 72.334 3.5 119.001s8.83301 98.167 19.5 154.5s27.334 116.166 50.001 179.499s54.667 128 96 194l160 -144c-21.333 -38.667 -38.333 -80.667 -51 -126s-22.5 -90.666 -29.5 -135.999s-11.5 -88.833 -13.5 -130.5s-3 -78.5 -3 -110.5v-356
c0 -39.333 6.5 -78.833 19.5 -118.5s31.5 -75.5 55.5 -107.5s53 -58.167 87 -78.5s72 -30.5 114 -30.5c40.667 0 76.834 7.16699 108.501 21.5s58.334 33.666 80.001 57.999s38 52.166 49 83.499s16.5 64 16.5 98v68c0 28 -2.33301 53.667 -7 77s-12.167 43.5 -22.5 60.5
s-23.5 30.333 -39.5 40s-35.333 14.5 -58 14.5h-157v213h157c22.667 0 42 4.5 58 13.5s29.167 19.833 39.5 32.5s17.833 25.834 22.5 39.501s7 25.167 7 34.5c0 10 -2.5 19.333 -7.5 28s-11.833 17.334 -20.5 26.001s-18.334 17 -29.001 25l-33 24
c-20.667 14.667 -42.167 31.5 -64.5 50.5s-42.666 42.333 -60.999 70s-33.333 60.334 -45 98.001s-17.5 82.5 -17.5 134.5h210c0 -28.667 3.33301 -53 10 -73s15.667 -37.5 27 -52.5s24.333 -28.167 39 -39.5s30 -22.333 46 -33l65 -46.5
c21.333 -15.667 40.5 -33.5 57.5 -53.5s30.667 -42.5 41 -67.5s15.5 -53.833 15.5 -86.5c0 -15.333 -0.666992 -32.833 -2 -52.5s-6.16602 -40 -14.499 -61s-21.5 -41.833 -39.5 -62.5s-43.333 -39.667 -76 -57c32.667 -20 58 -42.667 76 -68s31.167 -51 39.5 -77
s13.166 -51.833 14.499 -77.5s2 -48.834 2 -69.501v-72z" />
    <glyph glyph-name="uni10EB" unicode="&#x10eb;" horiz-adv-x="1074" 
d="M722 737c0 33.333 -4.66699 64.502 -14 93.502s-22.5 54.333 -39.5 76s-38 38.667 -63 51s-52.833 18.5 -83.5 18.5c-64 0 -113.333 -19.833 -148 -59.5s-52 -99.5 -52 -179.5v-207c0 -41.333 4.5 -76.333 13.5 -105s22.167 -51.834 39.5 -69.501
s38.333 -30.334 63 -38.001s52.667 -11.5 84 -11.5c32 0 60.333 7.16699 85 21.5s45.5 32.5 62.5 54.5s30 46.667 39 74s13.5 54 13.5 80v201zM954 530.002c0 -63.333 -10.1689 -121.667 -30.502 -175s-49.166 -99.5 -86.499 -138.5s-82.666 -69.333 -135.999 -91
s-113 -32.5 -179 -32.5c-74 0 -138.167 11.5 -192.5 34.5s-99.166 54.833 -134.499 95.5s-61.666 88.5 -78.999 143.5s-26 114.5 -26 178.5v203c0 64 8.66699 123 26 177s43.666 100.5 78.999 139.5s80.166 69.333 134.499 91s118.5 32.5 192.5 32.5
c28 0 59 -4.16699 93 -12.5s69.667 -25.5 107 -51.5v492h232v-1086z" />
    <glyph glyph-name="uni10EC" unicode="&#x10ec;" horiz-adv-x="1189" 
d="M351 565c0 -34 4.83105 -66.501 14.498 -97.501s23.834 -58.5 42.501 -82.5s41.5 -43.167 68.5 -57.5s58.167 -21.5 93.5 -21.5s66.333 7 93 21s49 32.5 67 55.5s31.5 49.5 40.5 79.5s13.5 61 13.5 93v103c0 85.333 -19.333 152 -58 200
c-34.667 44 -86.667 66.667 -156 68c-36.667 0 -68.667 -3.83301 -96 -11.5s-50.166 -20.167 -68.499 -37.5s-32 -40.166 -41 -68.499s-13.5 -63.5 -13.5 -105.5v-138zM119.998 1240c0 63.333 5.17285 118.501 15.5059 165.501s27.666 86.167 51.999 117.5
s56.166 54.666 95.499 69.999s88 23 146 23c23.333 0 45.166 -3.33301 65.499 -10s39.333 -15.834 57 -27.501s34.167 -25 49.5 -40s30 -30.5 44 -46.5c12.667 16.667 26.5 32.667 41.5 48s31.5 28.5 49.5 39.5s38 19.833 60 26.5s46.667 10 74 10
c36 0 69.667 -6.5 101 -19.5s58.666 -30.833 81.999 -53.5s41.833 -49.667 55.5 -81s20.5 -65 20.5 -101v-172h-207v172c0 6 -1.16699 13.5 -3.5 22.5s-6 17.833 -11 26.5s-11.667 16.167 -20 22.5s-18.5 9.5 -30.5 9.5c-14 0 -27.5 -4 -40.5 -12s-24.333 -18.5 -34 -31.5
s-17.5 -28 -23.5 -45s-9 -34.5 -9 -52.5v-71h-211v71c0 16 -1.66699 32.333 -5 49s-8.33301 31.834 -15 45.501s-15.5 24.834 -26.5 33.501s-23.833 13 -38.5 13c-26 0 -46.5 -4.66699 -61.5 -14s-26.333 -23 -34 -41s-12.334 -39.833 -14.001 -65.5
s-2.5 -54.834 -2.5 -87.501v-163c37.333 25.333 75.666 43.5 114.999 54.5s77 16.5 113 16.5c68 0 129.667 -13.167 185 -39.5s102.833 -61.333 142.5 -105s70.167 -94 91.5 -151s32 -116.5 32 -178.5v-123c0 -60 -10.5 -117.167 -31.5 -171.5s-51 -102.333 -90 -144
s-86.333 -74.834 -142 -99.501s-118.167 -37 -187.5 -37c-64 0 -123.5 11.5 -178.5 34.5s-102.667 54.833 -143 95.5s-71.833 88.834 -94.5 144.501s-34 116.5 -34 182.5v690z" />
    <glyph glyph-name="uni10ED" unicode="&#x10ed;" horiz-adv-x="1044" 
d="M539 1071c0 4 -5.8291 9.83496 -17.4961 17.502s-25.167 15.334 -40.5 23.001s-30.833 14.167 -46.5 19.5s-27.834 8 -36.501 8c-14 0 -26.667 -3.16699 -38 -9.5s-21.333 -13.833 -30 -22.5s-15.334 -17.834 -20.001 -27.501s-7 -17.834 -7 -24.501
c0 -8.66699 2.5 -17.834 7.5 -27.501s11.667 -18.5 20 -26.5s18.333 -14.5 30 -19.5s24.167 -7.5 37.5 -7.5c12 0 26.167 2.66699 42.5 8s31.666 12 45.999 20s26.666 16.333 36.999 25s15.5 16 15.5 22v22zM954.004 777.002c-17.333 16 -36.334 30.002 -57.001 42.002
s-41.667 22.5 -63 31.5s-42.166 16.833 -62.499 23.5l-55.5 18c4 -5.33301 9.83301 -10.833 17.5 -16.5s15.834 -11.334 24.501 -17.001s16.834 -11.334 24.501 -17.001s14.167 -11.5 19.5 -17.5l55 -64.5c18 -21.667 34.167 -44.167 48.5 -67.5s26 -47.5 35 -72.5
s13.5 -51.5 13.5 -79.5v-40c0 -63.333 -9.66699 -120 -29 -170s-47.5 -92.667 -84.5 -128s-82.167 -62.333 -135.5 -81s-114.333 -28 -183 -28c-66.667 0 -126.667 11 -180 33s-98.666 52.167 -135.999 90.5s-66 83.5 -86 135.5s-30 108.333 -30 169
c0 22.667 1.33301 42.334 4 59.001s6.83398 31.5 12.501 44.5s12.667 24.667 21 35s18.166 20.5 29.499 30.5l202 -58c-7.33301 -12 -13.333 -22.667 -18 -32s-8.33398 -18.5 -11.001 -27.5s-4.66699 -18 -6 -27s-2 -19.167 -2 -30.5c0 -28 4.16699 -54.5 12.5 -79.5
s20.833 -47.167 37.5 -66.5s37.5 -34.666 62.5 -45.999s54.167 -17 87.5 -17c34.667 0 64.5 4.66699 89.5 14s45.667 22.5 62 39.5s28.5 37.5 36.5 61.5s12 50.333 12 79v54c0 24.667 -7.83301 48.167 -23.5 70.5s-33.167 45.166 -52.5 68.499l-33.5 38
c-11 12.667 -21.5 26 -31.5 40s-19 28.833 -27 44.5s-14.333 33.167 -19 52.5c-27.333 -18.667 -53.5 -34.334 -78.5 -47.001s-44.5 -19 -58.5 -19c-36 0 -70.333 3.83301 -103 11.5s-61.334 21.167 -86.001 40.5s-44.334 45.166 -59.001 77.499s-22 73.5 -22 123.5
c0 44.667 7.33301 82.667 22 114s34.334 56.833 59.001 76.5s53.334 34 86.001 43s67 13.5 103 13.5c25.333 0 47.833 -4.33301 67.5 -13s37.834 -20 54.501 -34c0.666992 14 1.16699 27.333 1.5 40s0.5 26 0.5 40v77h-163v204h372v-287c0 -7.33301 -1.66699 -15 -5 -23
s-7.33301 -16.167 -12 -24.5s-9 -17.166 -13 -26.499s-6.33301 -18.333 -7 -27l57.5 34c21 12 42.667 25.5 65 40.5s45.166 31.667 68.499 50s46.333 38.833 69 61.5v-248c-12.667 -8.66699 -27.334 -17.5 -44.001 -26.5s-34 -17.667 -52 -26l-54.5 -25
c-18.333 -8.33301 -35.5 -16.5 -51.5 -24.5c13.333 -5.33301 28.666 -11 45.999 -17s35.166 -12.5 53.499 -19.5s36.333 -14.5 54 -22.5s33.834 -16.333 48.501 -25v-203z" />
    <glyph glyph-name="uni10EE" unicode="&#x10ee;" horiz-adv-x="1073" 
d="M351 530c0 -70 17.667 -124.832 53 -164.499s84.333 -59.5 147 -59.5s111.834 19.833 147.501 59.5s53.5 94.5 53.5 164.5v196c0 81.333 -17.333 143.333 -52 186s-84.334 64 -149.001 64c-30.667 0 -58.334 -4.5 -83.001 -13.5s-45.667 -23.333 -63 -43
s-30.666 -44.834 -39.999 -75.501s-14 -68 -14 -112v-202zM120 1616l230.997 -0.000976562v-496c38 28 73.833 46.333 107.5 55s64.5 13 92.5 13c74 0 138.167 -10.5 192.5 -31.5s99.166 -50.667 134.499 -89s61.666 -84.166 78.999 -137.499s26 -112.333 26 -177v-253
c0 -48.667 -8.66699 -97.334 -26 -146.001s-43.666 -92.334 -78.999 -131.001s-80.166 -70 -134.499 -94s-118.5 -36 -192.5 -36c-65.333 0 -124.666 12 -177.999 36s-98.666 55.333 -135.999 94s-66.166 82.334 -86.499 131.001s-30.5 97.334 -30.5 146.001v1116z" />
    <glyph glyph-name="uni10EF" unicode="&#x10ef;" horiz-adv-x="1044" 
d="M90 1403l277.998 1.99707v211h222v-213h326v-214h-297c8 -21.333 17.167 -40.833 27.5 -58.5s21.833 -34 34.5 -49s26 -29.333 40 -43l42 -41.5l70.5 -71.5c23 -24.333 43.5 -51.5 61.5 -81.5s32.333 -63.667 43 -101s16 -81 16 -131v-100
c0 -57.333 -9.33301 -111.333 -28 -162s-46 -95 -82 -133s-80.833 -68.167 -134.5 -90.5s-115.5 -33.5 -185.5 -33.5c-48 0 -91.833 6.33301 -131.5 19s-75.667 29.667 -108 51s-60.666 46 -84.999 74s-44.5 57.167 -60.5 87.5s-28.167 61.166 -36.5 92.499
s-12.5 60.666 -12.5 87.999v116c0 28 3.83301 54 11.5 78s18 46.333 31 67s27.5 39.834 43.5 57.501s32.667 33.834 50 48.501l168 -72c-12 -12 -22.5 -25.833 -31.5 -41.5s-16.5 -31.667 -22.5 -48s-10.5 -32.333 -13.5 -48s-4.5 -29.5 -4.5 -41.5v-109
c0 -22 4.16699 -45 12.5 -69s21 -46.167 38 -66.5s38.167 -37.166 63.5 -50.499s54.666 -20 87.999 -20c36.667 0 67.5 5 92.5 15s45 24 60 42s25.833 39.667 32.5 65s10.334 53.333 11.001 84c0 16.667 0.333008 33.334 1 50.001s1 33.334 1 50.001
c0 30.667 -4.16699 58.667 -12.5 84s-19.166 49 -32.499 71s-28.666 43 -45.999 63l-54 60l-56 61c-18.667 20.667 -36.334 43 -53.001 67s-32 50 -46 78s-25.333 59 -34 93h-298v214z" />
    <glyph glyph-name="uni10F0" unicode="&#x10f0;" horiz-adv-x="1044" 
d="M954 472c0 -71.333 -11.0029 -131.164 -33.0029 -179.497s-52.5 -87.166 -91.5 -116.499s-84.833 -50.5 -137.5 -63.5s-109.334 -19.5 -170.001 -19.5c-71.333 0 -133.833 10.333 -187.5 31s-98.667 52.834 -135 96.501s-63.666 99.5 -81.999 167.5s-27.5 149 -27.5 243
h232c0 -60 3.5 -110.667 10.5 -152s18.333 -74.833 34 -100.5s36.167 -44.167 61.5 -55.5s56.666 -17 93.999 -17c64 0 113.333 11.667 148 35s52 59.333 52 108c0 25.333 -1.66699 50 -5 74s-8.83301 45.167 -16.5 63.5s-17.667 33.166 -30 44.499s-27.5 17 -45.5 17h-189
v166h189c15.333 0 27.5 3.33301 36.5 10s16 15.334 21 26.001s8.16699 22.5 9.5 35.5s2 25.833 2 38.5c0 8.66699 -1.33301 18.334 -4 29.001s-7.5 20.334 -14.5 29.001s-16.833 16 -29.5 22s-28.667 9 -48 9h-191v174h191c14.667 0 26.5 4.66699 35.5 14
s16 20.166 21 32.499s8.33301 24.666 10 36.999s2.5 21.5 2.5 27.5c0 25.333 -10.833 45 -32.5 59s-49.667 24.167 -84 30.5s-72.666 10.166 -114.999 11.499s-84.166 2 -125.499 2h-90v211h96c39.333 0 81 -1.33301 125 -4s87.5 -7.83398 130.5 -15.501
s84.167 -18.334 123.5 -32.001s74 -32 104 -55s54 -50.833 72 -83.5s27 -71.667 27 -117c0 -16 -3.33301 -32.5 -10 -49.5s-15.167 -33.833 -25.5 -50.5s-22.166 -32.834 -35.499 -48.501s-26.666 -30.5 -39.999 -44.5c16 -10 32.167 -21.5 48.5 -34.5
s31.333 -27.333 45 -43s24.834 -32.667 33.501 -51s13 -38.166 13 -59.499s-3.66699 -41.333 -11 -60s-16.833 -36 -28.5 -52s-24.834 -30.833 -39.501 -44.5s-29 -26.167 -43 -37.5c21.333 -16 41 -34.167 59 -54.5s33.667 -41.833 47 -64.5s23.833 -45.834 31.5 -69.501
s11.5 -46.834 11.5 -69.501z" />
    <glyph glyph-name="uni10F1" unicode="&#x10f1;" horiz-adv-x="1044" 
d="M954 474c0 -71.333 -11 -131.334 -33 -180.001s-52.5 -87.834 -91.5 -117.501s-84.833 -51 -137.5 -64s-109.334 -19.5 -170.001 -19.5c-66 0 -125.667 9.33301 -179 28s-98.666 46.334 -135.999 83.001s-66.166 82 -86.499 136s-30.5 116.667 -30.5 188v1088h222v-1093
c0 -30 4.83301 -58.333 14.5 -85s23.667 -49.667 42 -69s40.5 -34.666 66.5 -45.999s55.667 -17 89 -17c62.667 0 111.334 13.5 146.001 40.5s52 69.5 52 127.5c0 48 -7.5 83.833 -22.5 107.5s-40.5 36.167 -76.5 37.5h-33.5c-13.667 0 -27.834 0.166992 -42.501 0.5
s-28.667 0.5 -42 0.5h-32v205h152c35.333 0 60.333 8.66699 75 26s22 38.666 22 63.999c0 9.33301 -2.5 18.666 -7.5 27.999s-12.5 17.666 -22.5 24.999s-22.833 13.333 -38.5 18s-34.167 7 -55.5 7h-125v214h125c36 0 65.667 9.16699 89 27.5s35 45.5 35 81.5
c0 13.333 -4.5 25.333 -13.5 36s-23.333 19.667 -43 27s-45.334 12.833 -77.001 16.5s-70.167 5.5 -115.5 5.5v215c61.333 0 120.833 -4.5 178.5 -13.5s109 -24.667 154 -47s81 -52.666 108 -90.999s40.5 -86.5 40.5 -144.5c0 -53.333 -8.66699 -96.666 -26 -129.999
s-41.333 -60.666 -72 -81.999c32 -19.333 56.333 -44.833 73 -76.5s25 -71.167 25 -118.5c0 -48 -7.33301 -88.333 -22 -121s-41.334 -60 -80.001 -82c36.667 -30.667 62.834 -67 78.501 -109s23.5 -84.333 23.5 -127z" />
    <glyph glyph-name="uni10F2" unicode="&#x10f2;" horiz-adv-x="1044" 
d="M322 715c0 -23.333 3.83398 -47.499 11.501 -72.499s17.667 -49.833 30 -74.5s26 -48 41 -70s30 -41.333 45 -58s29.167 -30 42.5 -40s24 -15 32 -15c7.33301 0 17.5 5 30.5 15s26.833 23.5 41.5 40.5s29.5 36.667 44.5 59s28.5 45.666 40.5 69.999s21.833 49 29.5 74
s11.5 48.833 11.5 71.5v386c0 30.667 -1 63.5 -3 98.5s-9.16699 67.5 -21.5 97.5s-32 54.833 -59 74.5s-65.167 29.5 -114.5 29.5c-34 0 -62.5 -5.33301 -85.5 -16s-42 -25 -57 -43s-26.5 -38.667 -34.5 -62s-13.833 -47.5 -17.5 -72.5s-5.83398 -50 -6.50098 -75
s-1 -48.167 -1 -69.5v-348zM90.001 260.001c51.333 0 98.6689 1.49805 142.002 4.49805s76.333 6.83301 99 11.5c-34 22 -65.667 50.333 -95 85s-54.833 72 -76.5 112s-38.667 81 -51 123s-18.5 81.667 -18.5 119v386c0 98 9.16699 179.833 27.5 245.5
s45.666 118.5 81.999 158.5s81.666 68.5 135.999 85.5s117.166 25.5 188.499 25.5c70.667 0 132.834 -8.5 186.501 -25.5s98.5 -45.5 134.5 -85.5s63.167 -92.833 81.5 -158.5s27.5 -147.5 27.5 -245.5v-386c0 -38 -5.83301 -78.333 -17.5 -121
s-28.167 -84.167 -49.5 -124.5s-47 -77.5 -77 -111.5s-63.333 -61.333 -100 -82c18.667 -2 39.834 -4 63.501 -6s47 -3.83301 70 -5.5s44.5 -2.83398 64.5 -3.50098s35.333 -1 46 -1v-214c-60.667 0 -115 4.66699 -163 14s-90 20.833 -126 34.5s-66.333 28.334 -91 44.001
s-44.334 30.167 -59.001 43.5c-32 -18.667 -63.667 -36.167 -95 -52.5s-64 -30.666 -98 -42.999s-70 -22.166 -108 -29.499s-79.333 -11 -124 -11v214z" />
    <glyph glyph-name="uni10F3" unicode="&#x10f3;" horiz-adv-x="1044" 
d="M954 517c0 -58 -9.66699 -112.83 -29 -164.497s-47.5 -96.667 -84.5 -135s-82.167 -68.666 -135.5 -90.999s-114.333 -33.5 -183 -33.5c-66 0 -125.667 11.167 -179 33.5s-98.666 51.166 -135.999 86.499s-66.166 74.833 -86.499 118.5s-30.5 86.5 -30.5 128.5v81
c0 26 5.33301 52.333 16 79s24.667 52.334 42 77.001s37.5 48 60.5 70s47.167 41.333 72.5 58l132 -154c-33.333 -25.333 -56.833 -51.166 -70.5 -77.499s-20.5 -49.166 -20.5 -68.499v-44c0 -21.333 4.16699 -42.333 12.5 -63s20.666 -39.334 36.999 -56.001
s37 -30.167 62 -40.5s54.5 -15.5 88.5 -15.5c37.333 0 68.666 5.33301 93.999 16s45.833 25.5 61.5 44.5s27 41.333 34 67s10.5 53.5 10.5 83.5v93c0 31.333 -3.83301 61.666 -11.5 90.999s-18.5 55.333 -32.5 78s-30.667 40.834 -50 54.501s-40.666 20.5 -63.999 20.5h-232
v214h226c16 0 32.833 8 50.5 24s34.167 38.167 49.5 66.5s28.666 61.833 39.999 100.5s18.666 80.667 21.999 126h-370v-167h-233v379h837v-209c0 -31.333 -4.5 -66 -13.5 -104s-21.5 -76 -37.5 -114s-34.667 -74.333 -56 -109s-44.333 -64.334 -69 -89.001
c34 -18.667 62.167 -40.334 84.5 -65.001s40.333 -52.334 54 -83.001s23.334 -63.834 29.001 -99.501s8.5 -73.834 8.5 -114.501v-93z" />
    <glyph glyph-name="uni10F4" unicode="&#x10f4;" horiz-adv-x="1044" 
d="M954 472c0 -60.667 -10.665 -114.497 -31.998 -161.497s-51 -86.667 -89 -119s-83.333 -56.833 -136 -73.5s-110.334 -25 -173.001 -25s-120.5 10.333 -173.5 31s-98.833 49.334 -137.5 86.001s-68.834 79.834 -90.501 129.501s-32.5 103.167 -32.5 160.5
c0 35.333 13 78.5 39 129.5s65.333 102.833 118 155.5l150 -143c-10 -14 -19.5 -28 -28.5 -42s-17 -27.333 -24 -40s-12.5 -24.5 -16.5 -35.5s-6 -20.5 -6 -28.5c0 -30 5.16699 -56.833 15.5 -80.5s24.5 -43.5 42.5 -59.5s39.333 -28.333 64 -37s51.334 -13 80.001 -13
c29.333 0 56.166 2.66699 80.499 8s45.166 14.166 62.499 26.499s30.833 28.333 40.5 48s14.5 43.5 14.5 71.5v68c0 28.667 -2.83301 51.834 -8.5 69.501s-14 31.334 -25 41.001s-24.833 16 -41.5 19s-36 4.5 -58 4.5h-116v215h116c14 0 27.833 3 41.5 9
s26.167 16.667 37.5 32s21.333 36.166 30 62.499s15 59.833 19 100.5c-40.667 -22.667 -84.334 -39.834 -131.001 -51.501s-92 -17.5 -136 -17.5c-52 0 -100 5.66699 -144 17s-82 29 -114 53s-57 54.333 -75 91s-27 80.667 -27 132c0 13.333 2.83301 30.333 8.5 51
s16 42.5 31 65.5s35.833 46.167 62.5 69.5s61.167 44.166 103.5 62.499s93.333 33.333 153 45s129.834 17.5 210.501 17.5v-215c-61.333 0 -113.5 -3 -156.5 -9s-77.833 -13.667 -104.5 -23s-46 -20.333 -58 -33s-18 -25.334 -18 -38.001
c0 -9.33301 1.83301 -19.5 5.5 -30.5s10.334 -21.167 20.001 -30.5s22.5 -17 38.5 -23s36.667 -9 62 -9c26 0 59 8.66699 99 26s83 39.166 129 65.499s93.167 55.666 141.5 87.999l136.5 93.5c0 -106 -2.16699 -198.5 -6.5 -277.5s-11.5 -146.833 -21.5 -203.5
s-23.333 -103.167 -40 -139.5s-37.334 -64.833 -62.001 -85.5c24.667 -14 45.334 -29.167 62.001 -45.5s30 -34.5 40 -54.5s17.167 -42 21.5 -66s6.5 -50.333 6.5 -79v-55z" />
    <glyph glyph-name="uni10F5" unicode="&#x10f5;" horiz-adv-x="1156" 
d="M722 608l-197.998 -0.000976562c-28.667 0 -55.167 -2.16699 -79.5 -6.5s-45.5 -12.166 -63.5 -23.499s-32.167 -27 -42.5 -47s-15.5 -45.667 -15.5 -77c0 -24 5.16699 -45.5 15.5 -64.5s24.5 -35 42.5 -48s39.167 -22.833 63.5 -29.5s50.833 -10 79.5 -10
c38 0 69.667 4.16699 95 12.5s45.666 19.5 60.999 33.5s26.166 30.667 32.499 50s9.5 40 9.5 62v148zM323.002 1232c0 -26.667 5.16504 -49.332 15.498 -67.999s24.5 -34 42.5 -46s39.167 -20.667 63.5 -26s50.833 -8 79.5 -8h198v143c0 20 -3.16699 40.167 -9.5 60.5
s-17.166 38.666 -32.499 54.999s-35.666 29.666 -60.999 39.999s-57 15.5 -95 15.5c-28.667 0 -55.167 -3.16699 -79.5 -9.5s-45.5 -16.166 -63.5 -29.499s-32.167 -30.5 -42.5 -51.5s-15.5 -46.167 -15.5 -75.5zM954 611.001l0.000976562 -150.999
c0 -56 -9.5 -106.833 -28.5 -152.5s-46.833 -84.667 -83.5 -117s-81.667 -57.333 -135 -75s-114.333 -26.5 -183 -26.5s-129.834 8.66699 -183.501 26s-99 42 -136 74s-65.333 70.833 -85 116.5s-29.5 97.167 -29.5 154.5c0 60 9.83301 112.667 29.5 158
s48.167 83.333 85.5 114s82.833 53.667 136.5 69s114.834 22.666 183.501 21.999c20.667 0 38.667 -0.166992 54 -0.5s30.166 -0.5 44.499 -0.5s29.166 -0.166992 44.499 -0.5s33.333 -0.5 54 -0.5v52h-198c-56.667 0 -111.167 8.33301 -163.5 25s-98.5 40.5 -138.5 71.5
s-72 68.667 -96 113s-36 94.166 -36 149.499c0 56 9.83301 107.167 29.5 153.5s48 86.333 85 120s82.333 59.834 136 78.501s114.834 28 183.501 28s129.667 -9.66699 183 -29s98.333 -46 135 -80s64.5 -74.5 83.5 -121.5s28.5 -98.5 28.5 -154.5v-143h112l-2 -211h-110v-50
c19.333 0.666992 39.5 1.16699 60.5 1.5s37.5 0.5 49.5 0.5v-207z" />
    <glyph glyph-name="uni10F6" unicode="&#x10f6;" horiz-adv-x="1452" 
d="M1131 1207c0 32 -2 60.001 -6 84.001s-11.5 44.167 -22.5 60.5s-25.833 28.666 -44.5 36.999s-42.667 12.5 -72 12.5c-35.333 0 -63 -4.16699 -83 -12.5s-34.833 -20.5 -44.5 -36.5s-15.667 -35.667 -18 -59s-3.5 -50 -3.5 -80v-374c0 -40.667 5.33301 -73 16 -97
s23.667 -42.333 39 -55s31.5 -21 48.5 -25s32.167 -6 45.5 -6c54.667 0 92.5 15 113.5 45s31.5 76 31.5 138v368zM467 1616c32.667 0 61.501 -1.66602 86.501 -4.99902s47.5 -9.33301 67.5 -18s38.333 -20 55 -34s33.334 -32 50.001 -54c13.333 19.333 27.5 36 42.5 50
s32.5 25.5 52.5 34.5s43.333 15.667 70 20s58.334 6.5 95.001 6.5c72.667 0 133 -8.16699 181 -24.5s86.5 -41 115.5 -74s49.5 -74.333 61.5 -124s18 -108.167 18 -175.5v-379c0 -65.333 -10.333 -123 -31 -173s-48.334 -91.833 -83.001 -125.5s-74.667 -59 -120 -76
s-92.666 -25.5 -141.999 -25.5c-34.667 0 -63.334 2 -86.001 6s-43.667 11 -63 21v-19c0 -65.333 -11.333 -120.5 -34 -165.5s-54.834 -81.5 -96.501 -109.5s-91.834 -48.167 -150.501 -60.5s-124 -18.5 -196 -18.5v205c34 0 66.167 3 96.5 9s57 15.167 80 27.5
s41.333 27.833 55 46.5s20.5 40.667 20.5 66l3 760c0 66.667 -11.167 115.667 -33.5 147s-60.5 47 -114.5 47c-34.667 0 -61.667 -4 -81 -12s-33.833 -19.667 -43.5 -35s-15.5 -34.333 -17.5 -57s-3 -49 -3 -79v-379c0 -40 5.83301 -72.667 17.5 -98
s27.5 -45.166 47.5 -59.499s43 -24 69 -29s53 -7.5 81 -7.5v-206c-65.333 0 -125.333 8 -180 24s-101.667 40.5 -141 73.5s-70.166 74.667 -92.499 125s-33.5 109.5 -33.5 177.5v374c0 68.667 5.83301 128.167 17.5 178.5s32 92.166 61 125.499s67.667 58.166 116 74.499
s109.166 24.5 182.499 24.5z" />
    <glyph glyph-name="uni10FB" unicode="&#x10fb;" horiz-adv-x="773" 
d="M473 676h249v-248h-249v248zM51 1019h249v-249h-249v249zM51 342h249v-251h-249v251z" />
    <glyph glyph-name="figuredash" unicode="&#x2012;" horiz-adv-x="1235" 
d="M1299 492h-1304v200h1304v-200z" />
    <glyph glyph-name="endash" unicode="&#x2013;" horiz-adv-x="1235" 
d="M-29 464v194h1302v-194h-1302z" />
    <glyph glyph-name="emdash" unicode="&#x2014;" horiz-adv-x="2218" 
d="M8 468v193h2271v-193h-2271z" />
    <glyph glyph-name="quoteleft" unicode="&#x2018;" horiz-adv-x="501" 
d="M422 1538c-26 -28.667 -47.833 -54.667 -65.5 -78s-32.334 -44.666 -44.001 -63.999s-20.167 -37 -25.5 -53s-8.33301 -31 -9 -45c30 -4 55.833 -16.5 77.5 -37.5s32.5 -48.833 32.5 -83.5c0 -24.667 -4.16699 -45.834 -12.5 -63.501s-19 -32.334 -32 -44.001
s-27.833 -20.167 -44.5 -25.5s-33 -8 -49 -8c-45.333 0 -81.666 14.167 -108.999 42.5s-41 75.5 -41 141.5c0 32.667 5.16699 66.834 15.5 102.501s25 71.5 44 107.5s42.333 71.5 70 106.5s58.5 68.5 92.5 100.5z" />
    <glyph glyph-name="quoteright" unicode="&#x2019;" horiz-adv-x="501" 
d="M80 1115c25.333 28.667 46.834 54.8311 64.501 78.498s32.167 45.167 43.5 64.5s19.666 37 24.999 53s8.33301 31 9 45c-30 4 -55.667 16.5 -77 37.5s-32 49.167 -32 84.5c0 24 4.16699 44.833 12.5 62.5s19 32.334 32 44.001s27.833 20.167 44.5 25.5s33 8 49 8
c22.667 0 43.167 -3.33301 61.5 -10s34 -17.334 47 -32.001s23.167 -33.667 30.5 -57s11 -51.666 11 -84.999s-5.16699 -67.666 -15.5 -102.999s-25 -71 -44 -107s-42.333 -71.5 -70 -106.5s-58.5 -68.5 -92.5 -100.5z" />
    <glyph glyph-name="quotesinglbase" unicode="&#x201a;" horiz-adv-x="501" 
d="M80 -102c50.667 57.333 86.668 104.832 108.001 142.499s32.666 70.167 33.999 97.5c-30 4.66699 -55.667 17.334 -77 38.001s-32 48.667 -32 84c0 24.667 4.16699 45.834 12.5 63.501s19 32.167 32 43.5s27.833 19.666 44.5 24.999s33 8 49 8
c22.667 0 43.167 -3.33301 61.5 -10s34 -17.334 47 -32.001s23.167 -33.667 30.5 -57s11 -51.666 11 -84.999c0 -32.667 -5.16699 -66.667 -15.5 -102s-25 -71 -44 -107s-42.333 -71.667 -70 -107s-58.5 -69 -92.5 -101z" />
    <glyph glyph-name="quotedblleft" unicode="&#x201c;" horiz-adv-x="913" 
d="M792 1601c-27.333 -30.667 -50.501 -58.833 -69.501 -84.5s-34.333 -49.167 -46 -70.5s-20 -41.166 -25 -59.499s-7.5 -35.5 -7.5 -51.5v-5c16 -1.33301 31.333 -4.83301 46 -10.5s27.334 -13.5 38.001 -23.5s19.167 -22 25.5 -36s9.5 -30 9.5 -48
c0 -24 -4 -44.5 -12 -61.5s-18.5 -31 -31.5 -42s-27.5 -19.167 -43.5 -24.5s-31.667 -8 -47 -8c-44 0 -79.333 14.167 -106 42.5s-40 75.166 -40 140.499c0 34.667 5.16699 70.5 15.5 107.5s25 74 44 111s42.333 73.333 70 109s58.5 69.5 92.5 101.5zM431.999 1601
c-27.333 -30.667 -50.501 -58.833 -69.501 -84.5s-34.333 -49.167 -46 -70.5s-20 -41.166 -25 -59.499s-7.5 -35.5 -7.5 -51.5v-5c16 -1.33301 31.333 -4.83301 46 -10.5s27.334 -13.5 38.001 -23.5s19.167 -22 25.5 -36s9.5 -30 9.5 -48c0 -24 -4 -44.5 -12 -61.5
s-18.5 -31 -31.5 -42s-27.5 -19.167 -43.5 -24.5s-31.667 -8 -47 -8c-44 0 -79.333 14.167 -106 42.5s-40 75.166 -40 140.499c0 34.667 5.16699 70.5 15.5 107.5s25 74 44 111s42.333 73.333 70 109s58.5 69.5 92.5 101.5z" />
    <glyph glyph-name="quotedblright" unicode="&#x201d;" horiz-adv-x="916" 
d="M109 1147c26.667 30.667 49.501 58.832 68.501 84.499s34.167 49.167 45.5 70.5s19.666 41 24.999 59s8 35 8 51v6c-32.667 2 -60.5 13.167 -83.5 33.5s-34.5 48.5 -34.5 84.5c0 24 4 44.5 12 61.5s18.5 31 31.5 42s27.5 19.167 43.5 24.5s31.667 8 47 8
c44 0 79.333 -14.167 106 -42.5s40 -75.166 40 -140.499c0 -35.333 -5.16699 -71.333 -15.5 -108s-25 -73.5 -44 -110.5s-42.333 -73.333 -70 -109s-58.5 -69.5 -92.5 -101.5zM479.001 1147c26.667 30.667 49.501 58.832 68.501 84.499s34.167 49.167 45.5 70.5
s19.666 41 24.999 59s8 35 8 51v6c-32.667 2 -60.5 13.167 -83.5 33.5s-34.5 48.5 -34.5 84.5c0 24 4 44.5 12 61.5s18.5 31 31.5 42s27.5 19.167 43.5 24.5s31.667 8 47 8c44 0 79.333 -14.167 106 -42.5s40 -75.166 40 -140.499c0 -35.333 -5.16699 -71.333 -15.5 -108
s-25 -73.5 -44 -110.5s-42.333 -73.333 -70 -109s-58.5 -69.5 -92.5 -101.5z" />
    <glyph glyph-name="quotedblbase" unicode="&#x201e;" horiz-adv-x="924" 
d="M109 -164c26.667 30.667 49.501 58.832 68.501 84.499s34.167 49.167 45.5 70.5s19.666 41 24.999 59s8 35 8 51v6c-32.667 2 -60.5 13.167 -83.5 33.5s-34.5 48.5 -34.5 84.5c0 24 4 44.5 12 61.5s18.5 31 31.5 42s27.5 19.167 43.5 24.5s31.667 8 47 8
c44 0 79.333 -14.167 106 -42.5s40 -75.166 40 -140.499c0 -35.333 -5.16699 -71.333 -15.5 -108s-25 -73.5 -44 -110.5s-42.333 -73.333 -70 -109s-58.5 -69.5 -92.5 -101.5zM469.001 -164.002c26.667 30.667 49.501 58.832 68.501 84.499s34.167 49.167 45.5 70.5
s19.666 41 24.999 59s8 35 8 51v6c-32.667 2 -60.5 13.167 -83.5 33.5s-34.5 48.5 -34.5 84.5c0 24 4 44.5 12 61.5s18.5 31 31.5 42s27.5 19.167 43.5 24.5s31.667 8 47 8c44 0 79.333 -14.167 106 -42.5s40 -75.166 40 -140.499c0 -35.333 -5.16699 -71.333 -15.5 -108
s-25 -73.5 -44 -110.5s-42.333 -73.333 -70 -109s-58.5 -69.5 -92.5 -101.5z" />
    <glyph glyph-name="dagger" unicode="&#x2020;" horiz-adv-x="1085" 
d="M640 1384v-434l87.5 -23.5l91.5 -24.5l90.5 -23.5l83.5 -21.5v-180l-361 93v-865h-186v871l-89 -23l-93.5 -24l-90 -23.5l-80.5 -21.5v181l361 93v426h186z" />
    <glyph glyph-name="bullet" unicode="&#x2022;" horiz-adv-x="776" 
d="M119 835c0 38.667 7.83301 74.832 23.5 108.499s36.834 63 63.501 88s57.667 44.667 93 59s72.333 21.5 111 21.5c40 0 77.833 -7.33301 113.5 -22s67 -34.667 94 -60s48.333 -54.666 64 -87.999s23.5 -69 23.5 -107c0 -37.333 -7.83301 -72.833 -23.5 -106.5
s-37 -63.167 -64 -88.5s-58.333 -45.5 -94 -60.5s-73.5 -22.5 -113.5 -22.5c-38.667 0 -75.667 7.5 -111 22.5s-66.333 35.167 -93 60.5s-47.834 54.833 -63.501 88.5s-23.5 69.167 -23.5 106.5z" />
    <glyph glyph-name="ellipsis" unicode="&#x2026;" horiz-adv-x="1855" 
d="M331 143v252h255v-252h-255zM1328 143v252h256v-252h-256zM827 143v252h258v-252h-258z" />
    <glyph glyph-name="guilsinglleft" unicode="&#x2039;" horiz-adv-x="737" 
d="M350 618l75 -115.5l82.5 -126.5l81.5 -124.5l72 -110.5h-209l-362 477l361 483h212z" />
    <glyph glyph-name="guilsinglright" unicode="&#x203a;" horiz-adv-x="737" 
d="M387 624l-76 115.5l-83 126.5l-82 124.5l-72 110.5h209l351 -473l-351 -487h-209z" />
    <glyph glyph-name="Euro" unicode="&#x20ac;" horiz-adv-x="1275" 
d="M-22 986c0 0.666992 0.166992 1.16699 0.5 1.5s0.5 0.833008 0.5 1.5v1zM1073 792c4.66699 0 11.3262 1.33887 19.9932 4.00586s17.667 5.66699 27 9c8 3.33301 15.333 5.83301 22 7.5s12 2.5 16 2.5c12.667 0 21.334 -1.5 26.001 -4.5s4.83398 -8 0.500977 -15
s-13.5 -16.5 -27.5 -28.5s-33.333 -26.667 -58 -44c0 -2 -1.33301 -7 -4 -15v-1v1c-0.666992 -0.666992 -1 -1.66699 -1 -3c0 0.666992 0.166992 1 0.5 1s0.5 0.333008 0.5 1c0 -1.33301 -0.166992 -2.83301 -0.5 -4.5s-0.5 -2.83398 -0.5 -3.50098l-4 -12v-8
c0 -3.33301 -0.333008 -6 -1 -8c-5.33301 -29.333 -241.333 -44.333 -708 -45c22 -79.333 51.333 -145 88 -197s78.334 -92.667 125.001 -122h-1c49.333 -27.333 101.5 -48 156.5 -62s108.167 -21 159.5 -21c110.667 0 226.334 31.333 347.001 94v-231
c-55.333 -18.667 -111.5 -33.167 -168.5 -43.5s-110.5 -15.5 -160.5 -15.5c-88 7.33301 -174.667 26.833 -260 58.5s-162.666 72.834 -231.999 123.501c-65.333 50 -122.833 109.167 -172.5 177.5s-87.167 147.833 -112.5 238.5l-41.5 2
c-14.333 0.666992 -29.166 1.66699 -44.499 3c-7.33301 0.666992 -16 1.16699 -26 1.5s-20 0.833008 -30 1.5s-19.5 1.16699 -28.5 1.5s-16.167 0.5 -21.5 0.5l14.5 49c3.66699 12 6.33398 21.167 8.00098 27.5s2.66699 10.666 3 12.999s0.5 3.83301 0.5 4.5l2 18
c0 4.66699 2.66699 11.5 8 20.5s11.333 16.833 18 23.5h105v122h-145c0 25.333 0.833008 44 2.5 56s3.5 20 5.5 24c0.666992 3.33301 1.33398 7.16602 2.00098 11.499s1.66699 8.83301 3 13.5v2c0 0.666992 0.166992 1.33398 0.5 2.00098s0.5 1.66699 0.5 3v9
c0 4 0.333008 7.66699 1 11c0 4 0.166992 8.83301 0.5 14.5s0.5 8.83398 0.5 9.50098l146 9c11.333 46 26.5 88.833 45.5 128.5s40.833 76.5 65.5 110.5s52 65.5 82 94.5s61.667 55.5 95 79.5c70 50.667 148 91.5 234 122.5s177.667 50.833 275 59.5
c62.667 -4 126.667 -13.5 192 -28.5s125.333 -33.833 180 -56.5c-2 -28 -5.16699 -53 -9.5 -75s-9.16602 -41.333 -14.499 -58v1l-3.5 -17l-5.5 -25.5c-2 -9 -3.66699 -17.333 -5 -25s-2.33301 -12.834 -3 -15.501c-60 30 -118.833 53.667 -176.5 71
s-109.5 26.666 -155.5 27.999c-62.667 -4 -122.167 -15.333 -178.5 -34s-108.333 -44.5 -156 -77.5s-89.834 -73 -126.501 -120s-66.334 -100.833 -89.001 -161.5h798l-5.5 -21.5c-2.33301 -9 -4.5 -17.833 -6.5 -26.5s-4 -16.334 -6 -23.001s-3 -10.334 -3 -11.001v1
c-2 -6.66699 -3.66699 -15.334 -5 -26.001s-2 -30.334 -2 -59.001h-797v-122h720z" />
    <glyph glyph-name="trademark" unicode="&#x2122;" horiz-adv-x="2218" 
d="M562 762v691h-294v169h766v-169h-295v-691h-177zM1101 762l-0.000976562 860.001h241l219 -631c3.33301 9.33301 6.33301 18.5 9 27.5s5.33398 18.5 8.00098 28.5l32 100c10.667 32.667 21.667 60.667 33 84c3.33301 11.333 6.66602 21.333 9.99902 30l32.5 95.5l34 103
l30 94c9 29 15.833 51.833 20.5 68.5h239v-860h-164v620c-5.33301 -12.667 -10.166 -25.834 -14.499 -39.501s-9.16602 -28.167 -14.499 -43.5c-4 -12.667 -8.16699 -25.167 -12.5 -37.5l-13.5 -38.5l-22.5 -65c-7.66699 -22 -14.5 -42.667 -20.5 -62l-24 -72l-16 -46
c-10.667 -25.333 -20.834 -52.333 -30.501 -81s-18.167 -56 -25.5 -82l-18 -53h-145l-220 629v-629h-167z" />
    <glyph glyph-name=".null" horiz-adv-x="0" 
 />
    <glyph glyph-name="nonmarkingreturn" horiz-adv-x="643" 
 />
    <glyph glyph-name="ring" horiz-adv-x="770" 
d="M408 1458c-9.33301 0 -20.001 -2.83496 -32.001 -8.50195s-23.167 -12.5 -33.5 -20.5s-19.166 -16.333 -26.499 -25s-11.333 -16.334 -12 -23.001c0.666992 -7.33301 4.5 -16.333 11.5 -27s15.667 -20.667 26 -30s21.5 -17.166 33.5 -23.499s23 -9.16602 33 -8.49902
c8.66699 -0.666992 18.834 2 30.501 8s22.5 13.5 32.5 22.5s18.5 18.333 25.5 28s10.5 18.167 10.5 25.5c0 6.66699 -3.5 14.834 -10.5 24.501s-15.5 18.667 -25.5 27s-20.833 15.5 -32.5 21.5s-21.834 9 -30.501 9zM162.999 1379c0 30 6.16895 58.998 18.502 86.998
s29.5 52.667 51.5 74s47.833 38.333 77.5 51s61.5 19 95.5 19c32 0 62.667 -6.16699 92 -18.5s55.166 -29.166 77.499 -50.499s40 -46.166 53 -74.499s19.5 -58.5 19.5 -90.5c0 -32.667 -6.5 -63.5 -19.5 -92.5s-30.5 -54.167 -52.5 -75.5s-47.5 -38.333 -76.5 -51
s-59.5 -19 -91.5 -19c-36.667 0 -70 6.33301 -100 19s-55.833 30 -77.5 52s-38.334 47.5 -50.001 76.5s-17.5 60.167 -17.5 93.5z" />
    </font>
</defs>
</svg>
